<?xml version="1.0" encoding="UTF-8" standalone="no"?>
<!-- Created with Inkscape (http://www.inkscape.org/) -->

<svg
   xmlns:dc="http://purl.org/dc/elements/1.1/"
   xmlns:cc="http://creativecommons.org/ns#"
   xmlns:rdf="http://www.w3.org/1999/02/22-rdf-syntax-ns#"
   xmlns:svg="http://www.w3.org/2000/svg"
   xmlns="http://www.w3.org/2000/svg"
   xmlns:sodipodi="http://sodipodi.sourceforge.net/DTD/sodipodi-0.dtd"
   xmlns:inkscape="http://www.inkscape.org/namespaces/inkscape"
   id="svg8"
   version="1.1"
   viewBox="0 0 210 297"
   height="297mm"
   width="210mm"
   inkscape:version="0.92.4 (5da689c313, 2019-01-14)"
   sodipodi:docname="drawing.svg"
   inkscape:export-filename="C:\Users\Kevin\OneDrive - Tier 3 Tech\Badges\Project-LLK\PICS\bitmap.png"
   inkscape:export-xdpi="96"
   inkscape:export-ydpi="96">
  <defs
     id="defs2" />
  <sodipodi:namedview
     id="base"
     pagecolor="#ffffff"
     bordercolor="#666666"
     borderopacity="1.0"
     inkscape:pageopacity="0.0"
     inkscape:pageshadow="2"
     inkscape:zoom="1.979899"
     inkscape:cx="402.10924"
     inkscape:cy="637.399"
     inkscape:document-units="mm"
     inkscape:current-layer="layer1"
     showgrid="false"
     inkscape:window-width="3840"
     inkscape:window-height="2081"
     inkscape:window-x="-9"
     inkscape:window-y="-9"
     inkscape:window-maximized="1" />
  <metadata
     id="metadata5">
    <rdf:RDF>
      <cc:Work
         rdf:about="">
        <dc:format>image/svg+xml</dc:format>
        <dc:type
           rdf:resource="http://purl.org/dc/dcmitype/StillImage" />
        <dc:title />
      </cc:Work>
    </rdf:RDF>
  </metadata>
  <g
     inkscape:label="Layer 1"
     inkscape:groupmode="layer"
     id="layer1">
    <path
       style="fill:black;stroke-width:0.43060732"
       d="m 93.531439,207.27372 c -0.352631,-0.19801 -1.105322,-1.33576 -1.672629,-2.52833 l -1.031483,-2.16832 -4.365044,-0.20276 c -2.400772,-0.1115 -4.567792,-0.38525 -4.815593,-0.6083 -0.2478,-0.22304 -0.514335,-1.31796 -0.59229,-2.43316 l -0.141742,-2.02764 -4.546777,-0.11701 c -2.500727,-0.0644 -4.812434,-0.31255 -5.137128,-0.55155 -0.32469,-0.23899 -2.908186,-4.24431 -5.741094,-8.90072 l -5.150745,-8.4662 -4.218919,-0.006 c -3.878308,-0.005 -4.270354,-0.0789 -4.856031,-0.91767 -0.350416,-0.50185 -2.361292,-4.78007 -4.468624,-9.5072 -2.648458,-5.94095 -4.076861,-8.65223 -4.626166,-8.78097 -1.052959,-0.24676 -1.720145,-1.90299 -1.720145,-4.27012 0,-1.66863 -0.182674,-2.04475 -1.371712,-2.82443 l -1.371725,-0.89946 v -13.32935 -13.32961 l 2.934549,-2.51298 2.934548,-2.51298 0.191604,-13.24183 C 43.923792,96.113928 44.091379,93.453661 44.764527,91.259378 46.594426,85.294461 50.640894,79.7029 57.279862,73.96524 82.477854,52.188143 122.80356,52.187337 147.98315,73.96364 c 6.64242,5.744587 10.4574,10.994952 12.42007,17.093189 0.80761,2.509299 0.9353,4.376451 1.10045,16.090941 l 0.18683,13.25226 2.93445,2.4615 2.93446,2.4615 v 13.34675 13.34676 l -1.37171,1.02369 c -1.14988,0.85812 -1.37173,1.31878 -1.37173,2.84834 0,2.27424 -0.68156,3.92641 -1.72014,4.16979 -0.54929,0.12872 -1.97771,2.84 -4.62617,8.78097 -2.10733,4.72712 -4.11821,9.00536 -4.46862,9.50719 -0.5856,0.83868 -0.97821,0.91292 -4.85603,0.91848 l -4.21892,0.006 -5.1749,8.48318 c -2.84619,4.66574 -5.42969,8.67071 -5.74109,8.89992 -0.31142,0.22922 -2.61225,0.46942 -5.11297,0.53379 l -4.54678,0.1168 -0.13419,2.02764 c -0.18055,2.72874 -0.75996,3.04146 -5.63517,3.04146 h -3.99424 l -1.1971,2.31906 c -0.6584,1.27549 -1.44507,2.45887 -1.74815,2.62972 -0.77207,0.43523 -17.327442,0.39008 -18.110061,-0.0494 z m 4.070435,-10.37403 v -6.6912 H 96.00154 94.401207 v 4.60949 c 0,3.78462 0.174547,4.982 0.97544,6.6912 0.536486,1.14494 1.256629,2.08171 1.600334,2.08171 0.503107,0 0.624893,-1.30393 0.624893,-6.6912 z m 3.657916,0 c 0,-5.67738 -0.10395,-6.6912 -0.68587,-6.6912 -0.581945,0 -0.685851,1.01382 -0.685851,6.6912 0,5.67738 0.103948,6.6912 0.685851,6.6912 0.58194,0 0.68587,-1.01382 0.68587,-6.6912 z m 4.11515,0 c 0,-5.67738 -0.10395,-6.6912 -0.68588,-6.6912 -0.58194,0 -0.68584,1.01382 -0.68584,6.6912 0,5.67738 0.10395,6.6912 0.68584,6.6912 0.58195,0 0.68588,-1.01382 0.68588,-6.6912 z m 4.5114,4.60949 c 0.80091,-1.7092 0.97546,-2.90658 0.97546,-6.6912 v -4.60949 h -1.60034 -1.60033 v 6.6912 c 0,5.38727 0.12183,6.6912 0.62488,6.6912 0.34372,0 1.06386,-0.93677 1.60033,-2.08171 z m -20.057526,-8.53145 c 0,-4.40105 0.133204,-5.47184 0.756723,-6.08291 0.693901,-0.68003 1.687342,-0.74159 11.966523,-0.74159 9.78917,0 11.31574,0.0851 12.04594,0.67114 0.7305,0.58631 0.83619,1.35509 0.83619,6.08291 v 5.41176 h 2.05757 2.05758 v -15.0837 -15.0837 l -1.22865,-1.13739 -1.22863,-1.13739 H 102.6315 88.170951 l -1.228644,1.13739 -1.228642,1.13739 v 15.0837 15.0837 h 2.057575 2.057574 z m -8.687535,-1.82735 c 0,-1.64556 -0.425315,-2.50108 -3.210952,-6.45886 -3.073934,-4.36741 -3.307373,-4.59047 -5.470682,-5.22775 l -2.259739,-0.66569 -0.130491,-3.91975 -0.130487,-3.91978 -7.996598,-1.35569 c -4.398129,-0.74564 -8.142298,-1.56478 -8.320369,-1.82033 -0.178071,-0.25554 -0.671424,-1.74692 -1.09633,-3.31416 -0.929582,-3.42867 -1.271482,-3.86336 -3.038728,-3.86336 -0.907342,0 -1.288981,0.16987 -1.138827,0.50692 0.124167,0.2788 1.607707,3.56357 3.296668,7.29949 l 3.070836,6.79258 h 3.839452 c 3.062918,0 4.003075,0.1451 4.648444,0.71749 0.444939,0.39462 3.049042,4.40934 5.786892,8.92159 l 4.977908,8.20411 h 3.586502 3.586501 z m 55.104631,-6.30046 c 2.74406,-4.50848 5.35672,-8.5232 5.80592,-8.92159 0.65441,-0.58041 1.57956,-0.72433 4.65614,-0.72433 h 3.83945 l 3.07084,-6.79258 c 1.68897,-3.73592 3.17246,-7.02069 3.29667,-7.29949 0.15015,-0.33705 -0.23149,-0.50692 -1.13883,-0.50692 -1.76725,0 -2.10915,0.43469 -3.03873,3.86336 -0.4249,1.56724 -0.91778,3.05794 -1.09525,3.31261 -0.17748,0.25471 -3.92164,1.08981 -8.32037,1.8558 l -7.99767,1.39273 -0.13049,3.88429 -0.13049,3.88428 -2.25974,0.66569 c -2.16331,0.63728 -2.39674,0.86034 -5.47068,5.22775 -2.78565,3.95778 -3.21095,4.8133 -3.21095,6.45886 v 1.89681 h 3.56749 3.56749 z m -55.104631,-8.01609 c 0,-8.07589 -0.0031,-8.10346 -1.028787,-8.29418 -9.570718,-1.7802 -21.005253,-4.6935 -24.276147,-6.18508 -0.714943,-0.32603 -1.373146,-0.52781 -1.462679,-0.44842 -0.256867,0.22783 0.785838,3.72331 1.244947,4.17348 0.227471,0.22303 4.056992,1.05079 8.51005,1.83941 l 8.09646,1.43391 0.228617,4.00834 0.22862,4.00835 1.828954,0.55209 c 1.557053,0.47002 2.161757,1.03249 4.067509,3.7835 1.231208,1.77728 2.311434,3.23141 2.400504,3.23141 0.08908,0 0.161952,-3.64626 0.161952,-8.10281 z m 45.542901,4.8714 c 1.90576,-2.75101 2.51046,-3.31348 4.06751,-3.7835 l 1.82896,-0.55209 0.22862,-4.00835 0.22862,-4.00834 8.00167,-1.43391 c 4.40092,-0.78862 8.23555,-1.56873 8.52139,-1.73354 0.28585,-0.16482 0.65799,-0.95336 0.82697,-1.75229 0.169,-0.79895 0.4155,-1.70277 0.54779,-2.00851 0.15668,-0.36213 -1.98945,0.13543 -6.1573,1.42749 -5.22335,1.61929 -14.03124,3.72848 -19.6279,4.70018 -1.02584,0.17812 -1.02878,0.20181 -1.02878,8.28146 0,4.45655 0.0728,8.10281 0.16193,8.10281 0.0891,0 1.16931,-1.45413 2.40052,-3.23141 z m -44.171186,-19.27534 2.019359,-1.82488 h 18.064327 18.06434 l 2.18333,1.90729 2.18332,1.9073 4.69097,-0.93527 c 9.68729,-1.93139 20.82109,-5.4182 21.35263,-6.68707 0.19717,-0.4707 0.69736,-2.93766 1.11153,-5.48212 0.41418,-2.54449 0.98217,-4.8712 1.26223,-5.17048 0.28005,-0.29929 1.21664,-0.54414 2.0813,-0.54414 h 1.57209 l -0.1578,-25.6496 c -0.15747,-25.594847 -0.16007,-25.655622 -1.22292,-28.48826 -1.5132,-4.032898 -2.82614,-6.16893 -5.88951,-9.581671 -8.75869,-9.757577 -20.98794,-16.425449 -34.97302,-19.068657 -6.64271,-1.255486 -17.800553,-1.256292 -24.437568,-0.0018 -13.932196,2.633455 -26.272826,9.360528 -34.98418,19.070423 -3.062439,3.413474 -4.375388,5.550023 -5.888117,9.581673 -1.062835,2.832637 -1.065441,2.893413 -1.222918,28.488272 l -0.157801,25.64958 h 1.572103 c 0.864648,0 1.797225,0.2406 2.072398,0.53466 0.275167,0.29405 0.816276,2.43828 1.202461,4.76494 1.084104,6.53139 1.03143,6.4023 2.905807,7.12136 5.325527,2.04303 21.01043,6.16671 23.642694,6.21586 0.520361,0.009 1.827397,-0.7903 2.952945,-1.80744 z M 69.938928,146.06052 c -2.809911,-1.13499 -5.068039,-3.61585 -5.749507,-6.31658 -2.259244,-8.95364 10.468197,-14.52848 17.461741,-7.64856 5.68393,5.59157 0.975853,14.7039 -7.597086,14.7039 -1.257406,0 -3.109223,-0.33245 -4.115148,-0.73876 z m 7.133894,-4.22596 c 4.668998,-2.7866 1.984408,-9.22988 -3.618764,-8.6854 -2.278139,0.22139 -3.945255,1.411 -4.6567,3.32289 -1.061379,2.85229 1.811507,6.28977 5.256718,6.28977 0.805805,0 2.164239,-0.41727 3.018746,-0.92726 z m 49.995438,4.21766 c -1.01996,-0.41089 -2.59842,-1.51789 -3.50767,-2.46002 -7.13199,-7.38979 2.4352,-17.95442 12.30787,-13.59106 5.80434,2.56532 7.2761,9.42643 2.93756,13.69448 -3.05003,3.00048 -7.78138,3.95039 -11.73776,2.3566 z m 7.15942,-4.21766 c 4.21028,-2.51282 2.6279,-8.19498 -2.41872,-8.6854 -5.60318,-0.54448 -8.28778,5.8988 -3.61878,8.6854 0.85451,0.50999 2.21294,0.92726 3.01875,0.92726 0.80581,0 2.16424,-0.41727 3.01875,-0.92726 z m -85.093112,14.08363 c 0,-0.34735 -0.235918,-1.89851 -0.52425,-3.44699 -0.514024,-2.76053 -0.55121,-2.81542 -1.907265,-2.81542 -0.760661,0 -1.759287,-0.30201 -2.219186,-0.67115 -0.771406,-0.61915 -0.836172,-1.53386 -0.836172,-11.80993 0,-9.85517 -0.07906,-11.08062 -0.68585,-10.63396 -0.579776,0.42676 -0.685862,2.26149 -0.685862,11.86218 v 11.35732 l 1.600332,1.57106 c 1.24214,1.21938 1.600333,1.91873 1.600333,3.1244 0,1.89692 0.200884,2.09405 2.133786,2.09405 1.074916,0 1.524134,-0.18615 1.524134,-0.63156 z M 159.8069,154.42444 c 0.1859,-1.43433 0.62131,-2.26306 1.71465,-3.26352 l 1.46547,-1.34097 v -11.38719 c 0,-9.62721 -0.10602,-11.46522 -0.68586,-11.89202 -0.6068,-0.44665 -0.68585,0.77097 -0.68585,10.56349 0,12.30845 -0.0577,12.55155 -2.97592,12.55155 -1.45434,0 -1.46536,0.0156 -1.98671,2.81542 -0.77999,4.18893 -0.79241,4.14718 1.1904,4.00165 1.67949,-0.1233 1.71976,-0.1653 1.96382,-2.04841 z"
       id="path3742-2"
       inkscape:connector-curvature="0" />
  </g>
</svg>
