%TF.GenerationSoftware,KiCad,Pcbnew,(6.0.7)*%
%TF.CreationDate,2022-12-12T17:27:47-06:00*%
%TF.ProjectId,LLK,4c4c4b2e-6b69-4636-9164-5f7063625858,rev?*%
%TF.SameCoordinates,Original*%
%TF.FileFunction,Copper,L2,Bot*%
%TF.FilePolarity,Positive*%
%FSLAX46Y46*%
G04 Gerber Fmt 4.6, Leading zero omitted, Abs format (unit mm)*
G04 Created by KiCad (PCBNEW (6.0.7)) date 2022-12-12 17:27:47*
%MOMM*%
%LPD*%
G01*
G04 APERTURE LIST*
G04 Aperture macros list*
%AMRotRect*
0 Rectangle, with rotation*
0 The origin of the aperture is its center*
0 $1 length*
0 $2 width*
0 $3 Rotation angle, in degrees counterclockwise*
0 Add horizontal line*
21,1,$1,$2,0,0,$3*%
G04 Aperture macros list end*
%TA.AperFunction,ComponentPad*%
%ADD10C,4.000000*%
%TD*%
%TA.AperFunction,SMDPad,CuDef*%
%ADD11RotRect,2.000000X2.500000X135.000000*%
%TD*%
%TA.AperFunction,SMDPad,CuDef*%
%ADD12RotRect,2.000000X2.500000X45.000000*%
%TD*%
%TA.AperFunction,SMDPad,CuDef*%
%ADD13C,0.500000*%
%TD*%
%TA.AperFunction,SMDPad,CuDef*%
%ADD14R,3.857800X5.472400*%
%TD*%
%TA.AperFunction,SMDPad,CuDef*%
%ADD15R,3.908600X5.523200*%
%TD*%
%TA.AperFunction,SMDPad,CuDef*%
%ADD16C,16.459512*%
%TD*%
%TA.AperFunction,SMDPad,CuDef*%
%ADD17RotRect,1.000000X0.800000X240.000000*%
%TD*%
%TA.AperFunction,SMDPad,CuDef*%
%ADD18RotRect,0.700000X1.500000X240.000000*%
%TD*%
%TA.AperFunction,Conductor*%
%ADD19C,0.250000*%
%TD*%
G04 APERTURE END LIST*
D10*
%TO.P,REF\u002A\u002A,*%
%TO.N,*%
X150660000Y-79220000D03*
%TD*%
D11*
%TO.P,D1,1,K*%
%TO.N,GND*%
X139813654Y-102693654D03*
%TO.P,D1,2,A*%
%TO.N,Net-(D1-Pad2)*%
X143066346Y-105946346D03*
%TD*%
D12*
%TO.P,D2,1,K*%
%TO.N,GND*%
X162183701Y-102923412D03*
%TO.P,D2,2,A*%
%TO.N,Net-(D1-Pad2)*%
X158931009Y-106176104D03*
%TD*%
D13*
%TO.P,REF\u002A\u002A,*%
%TO.N,*%
X172110000Y-100300000D03*
%TD*%
%TO.P,REF\u002A\u002A,*%
%TO.N,*%
X147740000Y-77580000D03*
%TD*%
D14*
%TO.P,BT1,1,+*%
%TO.N,Net-(BT1-Pad1)*%
X138535000Y-92060000D03*
D15*
X162345000Y-92060000D03*
D16*
%TO.P,BT1,2,-*%
%TO.N,GND*%
X150440000Y-92060000D03*
%TD*%
D17*
%TO.P,ON/OFF,*%
%TO.N,*%
X162739500Y-115379007D03*
X159089500Y-121700993D03*
X164653416Y-116484007D03*
X161003416Y-122805993D03*
D18*
%TO.P,ON/OFF,1,A*%
%TO.N,Net-(BT1-Pad1)*%
X161476584Y-116266443D03*
%TO.P,ON/OFF,2,B*%
%TO.N,Net-(D1-Pad2)*%
X159976584Y-118864519D03*
%TO.P,ON/OFF,3*%
%TO.N,N/C*%
X159226584Y-120163557D03*
%TD*%
D13*
%TO.P,REF\u002A\u002A,*%
%TO.N,*%
X148170000Y-126990000D03*
%TD*%
D19*
%TO.N,Net-(BT1-Pad1)*%
X166500000Y-112807550D02*
X166500000Y-96215000D01*
X162970530Y-116337020D02*
X166500000Y-112807550D01*
X162345000Y-91075000D02*
X162345000Y-92060000D01*
X161476584Y-116266443D02*
X161547161Y-116337020D01*
X138535000Y-92060000D02*
X138535000Y-91025000D01*
X166500000Y-96215000D02*
X162345000Y-92060000D01*
X161547161Y-116337020D02*
X162970530Y-116337020D01*
X146054756Y-83505244D02*
X154775244Y-83505244D01*
X138535000Y-91025000D02*
X146054756Y-83505244D01*
X154775244Y-83505244D02*
X162345000Y-91075000D01*
%TO.N,GND*%
X151292692Y-92060000D02*
X150440000Y-92060000D01*
X150440000Y-92067308D02*
X150440000Y-92060000D01*
%TO.N,Net-(D1-Pad2)*%
X153364519Y-118864519D02*
X151210000Y-116710000D01*
X143511346Y-106221346D02*
X150710000Y-113420000D01*
X151490000Y-113420000D02*
X151550000Y-113420000D01*
X159976584Y-118864519D02*
X153364519Y-118864519D01*
X158843654Y-106126346D02*
X158843654Y-106116346D01*
X151210000Y-116710000D02*
X151210000Y-113430000D01*
X150710000Y-113420000D02*
X151540000Y-113420000D01*
X151550000Y-113420000D02*
X158843654Y-106126346D01*
%TD*%
%TA.AperFunction,Conductor*%
%TO.N,GND*%
G36*
X152698941Y-77044426D02*
G01*
X152703948Y-77044828D01*
X153642541Y-77139228D01*
X153647528Y-77139831D01*
X154121557Y-77206684D01*
X154581558Y-77271559D01*
X154586476Y-77272353D01*
X155050532Y-77356787D01*
X155514569Y-77441218D01*
X155519492Y-77442216D01*
X156440057Y-77647927D01*
X156444937Y-77649120D01*
X157356575Y-77891362D01*
X157361403Y-77892748D01*
X157810324Y-78031413D01*
X158262699Y-78171145D01*
X158267443Y-78172715D01*
X158555586Y-78274467D01*
X159156908Y-78486812D01*
X159161611Y-78488579D01*
X160037846Y-78837878D01*
X160042474Y-78839831D01*
X160701565Y-79133530D01*
X160886730Y-79216042D01*
X160904070Y-79223769D01*
X160908589Y-79225891D01*
X161754264Y-79643901D01*
X161758709Y-79646210D01*
X162586992Y-80097565D01*
X162591354Y-80100056D01*
X163400999Y-80584073D01*
X163405258Y-80586736D01*
X164194943Y-81102626D01*
X164199093Y-81105456D01*
X164967618Y-81652433D01*
X164971649Y-81655425D01*
X165698011Y-82217323D01*
X165717750Y-82232593D01*
X165721658Y-82235742D01*
X166427096Y-82827867D01*
X166444174Y-82842202D01*
X166447948Y-82845501D01*
X166732333Y-83104212D01*
X167145699Y-83480261D01*
X167149347Y-83483715D01*
X167156700Y-83490960D01*
X167814098Y-84138744D01*
X167821241Y-84145783D01*
X167824748Y-84149379D01*
X168469722Y-84837705D01*
X168473078Y-84841432D01*
X169075630Y-85538186D01*
X169090125Y-85554947D01*
X169093330Y-85558808D01*
X169667628Y-86279019D01*
X169681414Y-86296308D01*
X169684460Y-86300288D01*
X169974961Y-86695981D01*
X170216878Y-87025499D01*
X170228276Y-87044255D01*
X170232350Y-87052502D01*
X170232355Y-87052510D01*
X170236329Y-87060553D01*
X170242401Y-87067158D01*
X170242405Y-87067164D01*
X170243414Y-87068261D01*
X170258284Y-87088022D01*
X170493256Y-87474048D01*
X170497863Y-87482298D01*
X170726482Y-87930390D01*
X170730372Y-87938758D01*
X170943569Y-88445100D01*
X170949389Y-88462289D01*
X171052291Y-88858067D01*
X171056119Y-88882226D01*
X171081254Y-89301132D01*
X171081480Y-89308810D01*
X171075054Y-95297257D01*
X171071551Y-98562125D01*
X171070152Y-98580711D01*
X171066283Y-98606462D01*
X171071352Y-98643677D01*
X171071463Y-98644753D01*
X171071461Y-98645967D01*
X171071920Y-98649193D01*
X171076244Y-98679617D01*
X171076343Y-98680322D01*
X171085939Y-98750787D01*
X171086554Y-98752164D01*
X171086766Y-98753658D01*
X171090311Y-98761478D01*
X171090312Y-98761480D01*
X171116102Y-98818364D01*
X171116403Y-98819033D01*
X171145312Y-98883794D01*
X171146288Y-98884942D01*
X171146911Y-98886317D01*
X171193436Y-98940429D01*
X171217782Y-98969081D01*
X171218698Y-98969872D01*
X171219442Y-98970677D01*
X171236019Y-98989957D01*
X171241872Y-98996764D01*
X171267004Y-99013092D01*
X171280671Y-99023354D01*
X171968494Y-99616956D01*
X172006996Y-99676604D01*
X172007138Y-99747601D01*
X171968873Y-99807403D01*
X171920796Y-99833493D01*
X171903529Y-99838428D01*
X171782280Y-99914930D01*
X171687377Y-100022388D01*
X171626447Y-100152163D01*
X171604391Y-100293823D01*
X171605555Y-100302725D01*
X171605555Y-100302728D01*
X171610013Y-100336818D01*
X171622980Y-100435979D01*
X171680720Y-100567203D01*
X171686497Y-100574076D01*
X171686498Y-100574077D01*
X171738948Y-100636474D01*
X171772970Y-100676948D01*
X171892313Y-100756390D01*
X172029157Y-100799142D01*
X172038129Y-100799306D01*
X172038132Y-100799307D01*
X172103463Y-100800504D01*
X172172499Y-100801770D01*
X172181728Y-100799254D01*
X172302158Y-100766421D01*
X172302160Y-100766420D01*
X172310817Y-100764060D01*
X172346981Y-100741855D01*
X172415496Y-100723258D01*
X172483191Y-100744654D01*
X172528572Y-100799254D01*
X172538904Y-100848275D01*
X172568711Y-104778512D01*
X172595264Y-108279550D01*
X172599263Y-108806895D01*
X172579779Y-108875166D01*
X172554715Y-108903987D01*
X172086204Y-109300919D01*
X172075907Y-109308771D01*
X171922960Y-109413420D01*
X171919314Y-109415823D01*
X171866164Y-109449525D01*
X171860236Y-109456268D01*
X171840575Y-109478630D01*
X171831127Y-109488280D01*
X171802567Y-109514478D01*
X171797922Y-109522157D01*
X171767684Y-109572146D01*
X171766182Y-109574567D01*
X171740366Y-109615136D01*
X171739172Y-109617012D01*
X171733369Y-109625159D01*
X171727685Y-109630533D01*
X171696464Y-109683956D01*
X171693998Y-109687998D01*
X171681395Y-109707803D01*
X171679544Y-109711900D01*
X171677418Y-109715832D01*
X171677415Y-109715830D01*
X171674209Y-109722037D01*
X171658723Y-109748535D01*
X171658720Y-109748542D01*
X171654192Y-109756290D01*
X171652020Y-109765000D01*
X171650436Y-109771354D01*
X171642998Y-109792760D01*
X171636597Y-109806922D01*
X171633615Y-109828086D01*
X171631060Y-109846218D01*
X171628547Y-109859127D01*
X171628293Y-109860146D01*
X171627112Y-109864883D01*
X171626674Y-109869739D01*
X171626674Y-109869740D01*
X171625054Y-109887711D01*
X171624332Y-109893962D01*
X171616273Y-109951155D01*
X171617566Y-109960042D01*
X171617577Y-109964684D01*
X171617068Y-109976284D01*
X171520696Y-111045132D01*
X171514022Y-111075752D01*
X171433292Y-111304487D01*
X171431768Y-111308427D01*
X171430122Y-111311617D01*
X171428584Y-111316231D01*
X171419360Y-111343902D01*
X171418643Y-111345990D01*
X171409826Y-111370971D01*
X171409823Y-111370980D01*
X171408337Y-111375192D01*
X171407637Y-111378699D01*
X171406364Y-111382888D01*
X171362853Y-111513422D01*
X171342110Y-111551785D01*
X171315346Y-111585593D01*
X171269355Y-111621789D01*
X171203911Y-111651993D01*
X171180552Y-111660102D01*
X171179572Y-111660338D01*
X171170386Y-111662545D01*
X171162598Y-111667007D01*
X171130999Y-111685111D01*
X171121160Y-111690188D01*
X171113757Y-111693604D01*
X171109996Y-111696039D01*
X171109995Y-111696040D01*
X171098072Y-111703761D01*
X171092224Y-111707325D01*
X171073276Y-111718181D01*
X171069478Y-111721220D01*
X171069470Y-111721225D01*
X171067469Y-111722826D01*
X171057249Y-111730196D01*
X171022455Y-111752726D01*
X171016593Y-111759524D01*
X171016591Y-111759525D01*
X171013060Y-111763619D01*
X170996357Y-111779716D01*
X170948794Y-111817767D01*
X170947510Y-111818659D01*
X170946010Y-111819289D01*
X170942491Y-111822146D01*
X170942478Y-111822155D01*
X170886838Y-111867327D01*
X170886213Y-111867832D01*
X170863831Y-111885738D01*
X170862932Y-111886695D01*
X170862182Y-111887345D01*
X170839898Y-111905436D01*
X170839893Y-111905441D01*
X170832928Y-111911096D01*
X170827827Y-111918483D01*
X170818537Y-111931935D01*
X170806721Y-111946574D01*
X170804537Y-111948901D01*
X170789384Y-111965042D01*
X170773549Y-111996270D01*
X170771472Y-112000088D01*
X170769330Y-112003189D01*
X170755641Y-112031532D01*
X170754601Y-112033633D01*
X170732240Y-112077730D01*
X170723507Y-112094951D01*
X170722742Y-112099043D01*
X170721096Y-112103064D01*
X168075327Y-117581481D01*
X168069576Y-117592064D01*
X167961202Y-117770563D01*
X167939236Y-117797503D01*
X167824704Y-117903855D01*
X167778813Y-117931056D01*
X167603477Y-117989502D01*
X167581459Y-117994700D01*
X167322303Y-118031722D01*
X167308648Y-118032919D01*
X165236268Y-118101346D01*
X165231532Y-118101414D01*
X165169581Y-118101120D01*
X165160957Y-118103598D01*
X165160954Y-118103598D01*
X165131481Y-118112066D01*
X165118658Y-118115035D01*
X165079619Y-118121947D01*
X165071572Y-118125931D01*
X165071573Y-118125931D01*
X165065664Y-118128856D01*
X165044548Y-118137040D01*
X165038216Y-118138859D01*
X165038210Y-118138862D01*
X165029587Y-118141339D01*
X165022005Y-118146137D01*
X165021999Y-118146140D01*
X164996092Y-118162536D01*
X164984623Y-118168982D01*
X164949086Y-118186578D01*
X164937627Y-118197130D01*
X164919661Y-118210908D01*
X164906507Y-118219233D01*
X164900572Y-118225972D01*
X164900568Y-118225975D01*
X164880307Y-118248979D01*
X164871106Y-118258387D01*
X164841939Y-118285246D01*
X164837309Y-118292934D01*
X164837308Y-118292935D01*
X164807723Y-118342058D01*
X164806029Y-118344792D01*
X163025343Y-121137601D01*
X162284741Y-122299154D01*
X162264025Y-122331644D01*
X162210537Y-122378329D01*
X162140299Y-122388685D01*
X162075613Y-122359424D01*
X162047829Y-122321495D01*
X162046978Y-122322013D01*
X162042317Y-122314347D01*
X162038786Y-122306089D01*
X161990954Y-122247960D01*
X161951259Y-122199719D01*
X161951257Y-122199717D01*
X161946235Y-122193614D01*
X161895761Y-122156673D01*
X161892802Y-122154965D01*
X161892798Y-122154962D01*
X161416564Y-121880008D01*
X161119571Y-121708539D01*
X161062342Y-121683298D01*
X161054555Y-121682002D01*
X161054552Y-121682001D01*
X160927519Y-121660858D01*
X160927517Y-121660858D01*
X160918661Y-121659384D01*
X160873661Y-121664790D01*
X160782955Y-121675686D01*
X160782952Y-121675687D01*
X160774043Y-121676757D01*
X160640114Y-121734020D01*
X160633186Y-121739721D01*
X160633184Y-121739722D01*
X160585852Y-121778670D01*
X160527640Y-121826571D01*
X160490699Y-121877045D01*
X159942565Y-122826441D01*
X159917324Y-122883670D01*
X159893409Y-123027351D01*
X159910782Y-123171968D01*
X159914311Y-123180221D01*
X159964515Y-123297640D01*
X159964517Y-123297643D01*
X159968046Y-123305897D01*
X160060597Y-123418372D01*
X160111071Y-123455313D01*
X160114030Y-123457021D01*
X160114034Y-123457024D01*
X160436668Y-123643297D01*
X160485661Y-123694680D01*
X160499097Y-123764393D01*
X160472711Y-123830304D01*
X160414878Y-123871486D01*
X160379241Y-123878292D01*
X158542853Y-123959549D01*
X158521053Y-123958622D01*
X158516198Y-123957991D01*
X158512195Y-123957471D01*
X158512193Y-123957471D01*
X158503296Y-123956315D01*
X158465840Y-123962179D01*
X158459962Y-123962769D01*
X158459977Y-123962897D01*
X158455519Y-123963413D01*
X158451045Y-123963611D01*
X158425422Y-123968445D01*
X158421555Y-123969112D01*
X158359391Y-123978845D01*
X158352092Y-123982279D01*
X158344158Y-123983776D01*
X158288004Y-124012367D01*
X158284593Y-124014038D01*
X158227594Y-124040857D01*
X158221551Y-124046203D01*
X158214357Y-124049866D01*
X158207823Y-124056020D01*
X158168533Y-124093024D01*
X158165632Y-124095672D01*
X158118499Y-124137368D01*
X158114199Y-124144196D01*
X158108323Y-124149730D01*
X158103779Y-124157470D01*
X158103778Y-124157471D01*
X158076432Y-124204048D01*
X158074394Y-124207399D01*
X158040877Y-124260620D01*
X158038667Y-124268375D01*
X158034578Y-124275341D01*
X158032389Y-124284044D01*
X158032389Y-124284045D01*
X158019225Y-124336391D01*
X158018208Y-124340185D01*
X158011546Y-124363567D01*
X158011544Y-124363575D01*
X158010211Y-124368255D01*
X158009613Y-124373088D01*
X158008645Y-124377857D01*
X158008445Y-124377816D01*
X158007345Y-124383631D01*
X157999054Y-124416600D01*
X157999396Y-124425573D01*
X157999396Y-124425575D01*
X157999886Y-124438406D01*
X157999025Y-124458679D01*
X157909370Y-125183391D01*
X157901621Y-125246027D01*
X157884970Y-125294793D01*
X157829052Y-125389153D01*
X157812005Y-125411700D01*
X157775133Y-125450512D01*
X157726355Y-125482319D01*
X157495332Y-125565251D01*
X157488471Y-125567494D01*
X157152421Y-125666781D01*
X157117335Y-125671944D01*
X155212146Y-125681192D01*
X155188081Y-125678867D01*
X155187178Y-125678817D01*
X155178372Y-125677055D01*
X155169428Y-125677835D01*
X155169427Y-125677835D01*
X155144956Y-125679970D01*
X155131317Y-125681159D01*
X155120980Y-125681635D01*
X155120243Y-125681638D01*
X155115500Y-125681661D01*
X155115495Y-125681661D01*
X155111019Y-125681683D01*
X155106586Y-125682340D01*
X155106583Y-125682340D01*
X155094311Y-125684158D01*
X155086795Y-125685041D01*
X155061130Y-125687280D01*
X155033265Y-125689710D01*
X155024902Y-125692968D01*
X155018538Y-125694453D01*
X155012295Y-125696311D01*
X155003421Y-125697626D01*
X154995274Y-125701378D01*
X154995271Y-125701379D01*
X154954599Y-125720111D01*
X154947627Y-125723071D01*
X154897543Y-125742582D01*
X154890425Y-125748061D01*
X154884755Y-125751260D01*
X154879279Y-125754799D01*
X154871120Y-125758557D01*
X154864348Y-125764450D01*
X154864346Y-125764451D01*
X154830563Y-125793848D01*
X154824710Y-125798639D01*
X154807308Y-125812033D01*
X154789228Y-125825948D01*
X154789226Y-125825950D01*
X154782115Y-125831423D01*
X154776824Y-125838674D01*
X154772260Y-125843357D01*
X154768009Y-125848278D01*
X154761238Y-125854170D01*
X154737021Y-125891932D01*
X154732223Y-125899414D01*
X154727947Y-125905660D01*
X154719013Y-125917904D01*
X154719008Y-125917911D01*
X154716147Y-125921833D01*
X154711918Y-125930039D01*
X154705983Y-125940331D01*
X154682607Y-125976781D01*
X154680077Y-125985393D01*
X154680076Y-125985395D01*
X154679071Y-125988815D01*
X154670181Y-126011020D01*
X154539798Y-126264003D01*
X154112422Y-127093241D01*
X154076390Y-127163153D01*
X154051650Y-127196324D01*
X153892743Y-127348875D01*
X153886667Y-127354339D01*
X153813835Y-127415672D01*
X153768470Y-127440101D01*
X153648036Y-127475785D01*
X153639026Y-127478095D01*
X153498596Y-127508624D01*
X153471830Y-127511500D01*
X148657099Y-127511500D01*
X148588978Y-127491498D01*
X148542485Y-127437842D01*
X148532381Y-127367568D01*
X148563683Y-127300945D01*
X148583178Y-127279407D01*
X148589200Y-127272754D01*
X148651710Y-127143733D01*
X148675496Y-127002354D01*
X148675647Y-126990000D01*
X148667473Y-126932924D01*
X148656596Y-126856968D01*
X148656595Y-126856965D01*
X148655323Y-126848082D01*
X148595984Y-126717572D01*
X148557039Y-126672374D01*
X148508260Y-126615763D01*
X148508257Y-126615760D01*
X148502400Y-126608963D01*
X148382095Y-126530985D01*
X148244739Y-126489907D01*
X148235763Y-126489852D01*
X148235762Y-126489852D01*
X148175555Y-126489484D01*
X148101376Y-126489031D01*
X147963529Y-126528428D01*
X147842280Y-126604930D01*
X147747377Y-126712388D01*
X147686447Y-126842163D01*
X147685999Y-126841953D01*
X147650398Y-126896022D01*
X147585495Y-126924798D01*
X147515337Y-126913917D01*
X147462199Y-126866833D01*
X147455733Y-126855200D01*
X147378443Y-126696997D01*
X147258056Y-126450580D01*
X147255585Y-126444683D01*
X147254475Y-126439117D01*
X147250319Y-126431161D01*
X147250318Y-126431157D01*
X147224024Y-126380817D01*
X147222496Y-126377793D01*
X147212834Y-126358016D01*
X147212833Y-126358014D01*
X147210862Y-126353980D01*
X147208338Y-126350264D01*
X147206992Y-126347944D01*
X147204303Y-126343061D01*
X147191198Y-126317971D01*
X147187040Y-126310010D01*
X147173846Y-126296289D01*
X147160448Y-126279764D01*
X147149742Y-126264003D01*
X147139006Y-126255150D01*
X147121813Y-126240970D01*
X147111157Y-126231097D01*
X147092304Y-126211491D01*
X147092302Y-126211489D01*
X147086080Y-126205019D01*
X147069566Y-126195553D01*
X147052062Y-126183448D01*
X147044293Y-126177041D01*
X147037368Y-126171330D01*
X147004097Y-126157061D01*
X146991110Y-126150581D01*
X146967503Y-126137049D01*
X146967501Y-126137048D01*
X146959711Y-126132583D01*
X146950983Y-126130484D01*
X146950980Y-126130483D01*
X146941198Y-126128131D01*
X146920995Y-126121423D01*
X146903502Y-126113921D01*
X146876400Y-126110635D01*
X146867581Y-126109566D01*
X146860447Y-126108281D01*
X146860440Y-126108324D01*
X146855629Y-126107554D01*
X146850894Y-126106415D01*
X146824820Y-126104284D01*
X146819924Y-126103788D01*
X146758902Y-126096390D01*
X146750941Y-126097707D01*
X146740465Y-126097392D01*
X144343369Y-125901519D01*
X144304424Y-125891932D01*
X144150696Y-125826715D01*
X144120630Y-125808657D01*
X144011090Y-125719981D01*
X143999399Y-125709228D01*
X143823827Y-125526023D01*
X143820121Y-125521933D01*
X143817575Y-125518448D01*
X143794374Y-125495247D01*
X143792499Y-125493333D01*
X143777062Y-125477225D01*
X143743790Y-125411020D01*
X143727114Y-125312245D01*
X143643391Y-124816347D01*
X143641974Y-124804623D01*
X143641726Y-124801252D01*
X143642343Y-124792297D01*
X143640422Y-124783528D01*
X143629873Y-124735383D01*
X143628712Y-124729394D01*
X143626073Y-124713764D01*
X143626070Y-124713753D01*
X143625326Y-124709344D01*
X143623964Y-124705083D01*
X143623960Y-124705068D01*
X143623442Y-124703448D01*
X143620381Y-124692058D01*
X143613090Y-124658789D01*
X143613089Y-124658786D01*
X143611167Y-124650015D01*
X143606864Y-124642141D01*
X143606861Y-124642134D01*
X143605346Y-124639363D01*
X143595899Y-124617317D01*
X143594932Y-124614294D01*
X143594931Y-124614293D01*
X143592196Y-124605739D01*
X143584688Y-124594621D01*
X143568097Y-124570056D01*
X143561950Y-124559964D01*
X143545615Y-124530076D01*
X143541311Y-124522201D01*
X143532729Y-124513606D01*
X143517477Y-124495101D01*
X143515701Y-124492472D01*
X143515699Y-124492470D01*
X143510675Y-124485031D01*
X143503769Y-124479304D01*
X143503767Y-124479302D01*
X143477535Y-124457550D01*
X143468804Y-124449590D01*
X143444732Y-124425483D01*
X143444731Y-124425483D01*
X143438390Y-124419132D01*
X143427739Y-124413291D01*
X143407901Y-124399806D01*
X143405463Y-124397784D01*
X143405462Y-124397783D01*
X143398553Y-124392054D01*
X143379058Y-124383631D01*
X143359032Y-124374978D01*
X143348421Y-124369790D01*
X143318551Y-124353409D01*
X143318547Y-124353407D01*
X143310678Y-124349092D01*
X143301913Y-124347158D01*
X143301910Y-124347157D01*
X143298815Y-124346474D01*
X143275995Y-124339101D01*
X143273087Y-124337845D01*
X143273086Y-124337845D01*
X143264842Y-124334283D01*
X143239545Y-124331147D01*
X143222115Y-124328986D01*
X143210477Y-124326985D01*
X143206140Y-124326028D01*
X143206132Y-124326027D01*
X143201387Y-124324980D01*
X143196534Y-124324675D01*
X143196524Y-124324674D01*
X143181728Y-124323745D01*
X143174121Y-124323036D01*
X143129197Y-124317467D01*
X143129196Y-124317467D01*
X143120291Y-124316363D01*
X143111432Y-124317803D01*
X143102457Y-124317973D01*
X143102447Y-124317433D01*
X143090507Y-124318021D01*
X141691523Y-124230218D01*
X140826717Y-124175942D01*
X140805206Y-124172710D01*
X140639288Y-124132890D01*
X140627310Y-124129378D01*
X140493110Y-124082699D01*
X140468184Y-124070827D01*
X140444265Y-124056020D01*
X140354013Y-124000150D01*
X140340237Y-123990281D01*
X140281620Y-123942008D01*
X140255272Y-123912161D01*
X140140712Y-123731276D01*
X140137587Y-123726069D01*
X140135736Y-123722810D01*
X140133667Y-123718404D01*
X140116669Y-123693214D01*
X140114667Y-123690152D01*
X140102450Y-123670862D01*
X140102449Y-123670861D01*
X140100054Y-123667079D01*
X140097147Y-123663675D01*
X140094482Y-123660063D01*
X140094619Y-123659962D01*
X140091196Y-123655465D01*
X139956134Y-123455313D01*
X136796977Y-118773670D01*
X136795190Y-118770945D01*
X136764483Y-118722780D01*
X136764482Y-118722779D01*
X136759656Y-118715209D01*
X136732622Y-118691558D01*
X136722193Y-118681306D01*
X136704100Y-118661325D01*
X136704098Y-118661323D01*
X136698075Y-118654672D01*
X136690429Y-118649979D01*
X136690427Y-118649978D01*
X136681616Y-118644571D01*
X136664558Y-118632013D01*
X136656785Y-118625213D01*
X136650030Y-118619303D01*
X136641891Y-118615528D01*
X136641886Y-118615525D01*
X136617440Y-118604187D01*
X136604550Y-118597273D01*
X136593000Y-118590185D01*
X136573933Y-118578483D01*
X136555301Y-118573407D01*
X136535412Y-118566144D01*
X136526036Y-118561796D01*
X136526034Y-118561795D01*
X136517891Y-118558019D01*
X136482372Y-118552659D01*
X136468054Y-118549639D01*
X136442059Y-118542557D01*
X136442054Y-118542556D01*
X136433397Y-118540198D01*
X136424423Y-118540364D01*
X136424422Y-118540364D01*
X136398410Y-118540846D01*
X136362020Y-118541519D01*
X136360339Y-118541540D01*
X134317232Y-118551132D01*
X134286086Y-118547371D01*
X134093895Y-118499324D01*
X134074357Y-118492698D01*
X133870441Y-118404335D01*
X133852089Y-118394509D01*
X133769416Y-118341014D01*
X133606118Y-118235350D01*
X133587672Y-118220806D01*
X133506212Y-118143225D01*
X133479203Y-118105848D01*
X133377357Y-117890475D01*
X130759543Y-112354596D01*
X130752951Y-112337555D01*
X130745074Y-112311772D01*
X130724622Y-112280623D01*
X130724354Y-112280182D01*
X130724084Y-112279611D01*
X130704636Y-112250182D01*
X130683648Y-112218216D01*
X130683228Y-112217751D01*
X130682926Y-112217329D01*
X130669064Y-112196353D01*
X130669061Y-112196350D01*
X130664114Y-112188864D01*
X130640550Y-112168922D01*
X130628516Y-112157279D01*
X130483924Y-111997467D01*
X130477659Y-111989979D01*
X130471453Y-111981948D01*
X130471447Y-111981942D01*
X130468476Y-111978097D01*
X130457446Y-111967648D01*
X130450676Y-111960720D01*
X130442574Y-111951765D01*
X130430362Y-111941622D01*
X130424247Y-111936195D01*
X130242083Y-111763619D01*
X130162807Y-111688515D01*
X130132084Y-111642852D01*
X130056589Y-111449398D01*
X130048465Y-111414775D01*
X129972901Y-110566788D01*
X129972405Y-110555156D01*
X129972421Y-110550690D01*
X129973725Y-110541808D01*
X129965729Y-110484535D01*
X129965016Y-110478296D01*
X129963252Y-110458498D01*
X129961741Y-110452076D01*
X129959599Y-110440625D01*
X129958924Y-110435792D01*
X129958250Y-110430964D01*
X129956844Y-110426307D01*
X129956842Y-110426297D01*
X129952681Y-110412514D01*
X129950656Y-110404966D01*
X129940394Y-110361358D01*
X129940391Y-110361350D01*
X129938336Y-110352618D01*
X129933912Y-110344812D01*
X129930636Y-110336450D01*
X129931082Y-110336275D01*
X129926271Y-110325034D01*
X129865456Y-110123585D01*
X129807682Y-109932207D01*
X129805624Y-109920900D01*
X129804990Y-109921035D01*
X129803127Y-109912260D01*
X129802526Y-109903301D01*
X129797960Y-109890848D01*
X129783582Y-109851636D01*
X129781257Y-109844676D01*
X129777542Y-109832370D01*
X129776249Y-109828086D01*
X129774356Y-109824016D01*
X129772326Y-109819651D01*
X129768275Y-109809892D01*
X129764187Y-109798745D01*
X129752381Y-109766548D01*
X129747050Y-109759328D01*
X129747049Y-109759325D01*
X129747035Y-109759306D01*
X129734164Y-109737622D01*
X129734155Y-109737602D01*
X129734153Y-109737599D01*
X129730368Y-109729463D01*
X129699911Y-109694731D01*
X129693295Y-109686515D01*
X129665868Y-109649365D01*
X129658723Y-109643929D01*
X129658705Y-109643915D01*
X129640271Y-109626721D01*
X129640253Y-109626701D01*
X129634333Y-109619950D01*
X129595354Y-109595164D01*
X129586694Y-109589131D01*
X129580668Y-109584547D01*
X129576796Y-109581601D01*
X129572523Y-109579289D01*
X129572516Y-109579285D01*
X129562139Y-109573672D01*
X129554475Y-109569170D01*
X129518997Y-109546609D01*
X129518994Y-109546608D01*
X129511421Y-109541792D01*
X129502801Y-109539296D01*
X129494617Y-109535600D01*
X129494668Y-109535488D01*
X129481846Y-109530234D01*
X129013301Y-109276759D01*
X128984159Y-109255032D01*
X128875663Y-109146536D01*
X128841637Y-109084224D01*
X128838758Y-109057317D01*
X128838909Y-108903987D01*
X128843606Y-104117484D01*
X138755364Y-104117484D01*
X138755495Y-104119317D01*
X138759746Y-104125932D01*
X139309251Y-104675437D01*
X139314334Y-104679998D01*
X139354208Y-104712059D01*
X139367561Y-104720282D01*
X139484662Y-104773524D01*
X139501720Y-104778512D01*
X139627988Y-104796595D01*
X139645766Y-104796595D01*
X139772036Y-104778512D01*
X139789094Y-104773524D01*
X139906946Y-104719941D01*
X139977236Y-104709955D01*
X140041768Y-104739556D01*
X140050322Y-104747729D01*
X140894896Y-105634269D01*
X141001438Y-105746105D01*
X141033942Y-105809223D01*
X141024910Y-105885165D01*
X140985991Y-105970764D01*
X140985989Y-105970770D01*
X140982276Y-105978937D01*
X140981004Y-105987820D01*
X140981003Y-105987823D01*
X140971740Y-106052507D01*
X140961627Y-106123123D01*
X140962900Y-106132012D01*
X140972712Y-106200523D01*
X140982276Y-106267309D01*
X141042563Y-106399905D01*
X141047510Y-106406058D01*
X141047512Y-106406061D01*
X141068300Y-106431915D01*
X141081756Y-106448651D01*
X142564041Y-107930936D01*
X142566703Y-107933076D01*
X142606631Y-107965180D01*
X142606634Y-107965182D01*
X142612787Y-107970129D01*
X142745383Y-108030416D01*
X142754266Y-108031688D01*
X142754269Y-108031689D01*
X142880680Y-108049792D01*
X142889569Y-108051065D01*
X142898458Y-108049792D01*
X143024869Y-108031689D01*
X143024872Y-108031688D01*
X143033755Y-108030416D01*
X143166351Y-107970129D01*
X143172504Y-107965182D01*
X143172507Y-107965180D01*
X143212435Y-107933076D01*
X143215097Y-107930936D01*
X143680969Y-107465064D01*
X143743281Y-107431038D01*
X143814096Y-107436103D01*
X143859159Y-107465064D01*
X150206348Y-113812253D01*
X150213888Y-113820539D01*
X150218000Y-113827018D01*
X150223777Y-113832443D01*
X150267651Y-113873643D01*
X150270493Y-113876398D01*
X150290230Y-113896135D01*
X150293427Y-113898615D01*
X150302447Y-113906318D01*
X150334679Y-113936586D01*
X150341625Y-113940405D01*
X150341628Y-113940407D01*
X150352434Y-113946348D01*
X150368953Y-113957199D01*
X150384959Y-113969614D01*
X150392228Y-113972759D01*
X150392232Y-113972762D01*
X150425537Y-113987174D01*
X150436187Y-113992391D01*
X150474940Y-114013695D01*
X150482616Y-114015666D01*
X150489987Y-114018584D01*
X150489431Y-114019988D01*
X150542837Y-114051775D01*
X150574529Y-114115306D01*
X150576500Y-114137506D01*
X150576500Y-116631233D01*
X150575973Y-116642416D01*
X150574298Y-116649909D01*
X150574547Y-116657835D01*
X150574547Y-116657836D01*
X150576438Y-116717986D01*
X150576500Y-116721945D01*
X150576500Y-116749856D01*
X150576997Y-116753790D01*
X150576997Y-116753791D01*
X150577005Y-116753856D01*
X150577938Y-116765693D01*
X150579327Y-116809889D01*
X150584978Y-116829339D01*
X150588987Y-116848700D01*
X150591526Y-116868797D01*
X150594445Y-116876168D01*
X150594445Y-116876170D01*
X150607804Y-116909912D01*
X150611649Y-116921142D01*
X150621629Y-116955494D01*
X150623982Y-116963593D01*
X150628015Y-116970412D01*
X150628017Y-116970417D01*
X150634293Y-116981028D01*
X150642988Y-116998776D01*
X150650448Y-117017617D01*
X150655110Y-117024033D01*
X150655110Y-117024034D01*
X150676436Y-117053387D01*
X150682952Y-117063307D01*
X150698905Y-117090281D01*
X150705458Y-117101362D01*
X150719779Y-117115683D01*
X150732619Y-117130716D01*
X150744528Y-117147107D01*
X150750634Y-117152158D01*
X150778605Y-117175298D01*
X150787384Y-117183288D01*
X152860867Y-119256772D01*
X152868407Y-119265058D01*
X152872519Y-119271537D01*
X152878296Y-119276962D01*
X152922170Y-119318162D01*
X152925012Y-119320917D01*
X152944749Y-119340654D01*
X152947946Y-119343134D01*
X152956966Y-119350837D01*
X152989198Y-119381105D01*
X152996144Y-119384924D01*
X152996147Y-119384926D01*
X153006953Y-119390867D01*
X153023472Y-119401718D01*
X153039478Y-119414133D01*
X153046747Y-119417278D01*
X153046751Y-119417281D01*
X153080056Y-119431693D01*
X153090706Y-119436910D01*
X153129459Y-119458214D01*
X153137134Y-119460185D01*
X153137135Y-119460185D01*
X153149081Y-119463252D01*
X153167786Y-119469656D01*
X153186374Y-119477700D01*
X153194197Y-119478939D01*
X153194207Y-119478942D01*
X153230043Y-119484618D01*
X153241663Y-119487024D01*
X153276808Y-119496047D01*
X153284489Y-119498019D01*
X153304743Y-119498019D01*
X153324453Y-119499570D01*
X153344462Y-119502739D01*
X153352354Y-119501993D01*
X153388480Y-119498578D01*
X153400338Y-119498019D01*
X157939404Y-119498019D01*
X158007525Y-119518021D01*
X158054018Y-119571677D01*
X158064122Y-119641951D01*
X158048523Y-119687018D01*
X157937624Y-119879101D01*
X157912383Y-119936330D01*
X157911087Y-119944119D01*
X157911086Y-119944121D01*
X157907400Y-119966270D01*
X157888468Y-120080011D01*
X157905841Y-120224629D01*
X157963105Y-120358557D01*
X158055656Y-120471032D01*
X158106130Y-120507973D01*
X158109089Y-120509681D01*
X158109093Y-120509684D01*
X158464347Y-120714790D01*
X158513340Y-120766173D01*
X158526776Y-120835886D01*
X158510466Y-120886909D01*
X158443538Y-121002832D01*
X158028649Y-121721441D01*
X158003408Y-121778670D01*
X158002112Y-121786459D01*
X158002111Y-121786461D01*
X157986541Y-121880008D01*
X157979493Y-121922351D01*
X157996866Y-122066968D01*
X158000395Y-122075221D01*
X158050599Y-122192640D01*
X158050601Y-122192643D01*
X158054130Y-122200897D01*
X158059837Y-122207832D01*
X158134982Y-122299154D01*
X158146681Y-122313372D01*
X158197155Y-122350313D01*
X158200114Y-122352021D01*
X158200118Y-122352024D01*
X158245680Y-122378329D01*
X158973345Y-122798447D01*
X159030574Y-122823688D01*
X159038361Y-122824984D01*
X159038364Y-122824985D01*
X159165397Y-122846128D01*
X159165399Y-122846128D01*
X159174255Y-122847602D01*
X159219255Y-122842196D01*
X159309961Y-122831300D01*
X159309964Y-122831299D01*
X159318873Y-122830229D01*
X159452802Y-122772966D01*
X159459730Y-122767265D01*
X159459732Y-122767264D01*
X159559174Y-122685436D01*
X159565276Y-122680415D01*
X159602217Y-122629941D01*
X160150351Y-121680545D01*
X160175592Y-121623316D01*
X160199507Y-121479635D01*
X160182134Y-121335018D01*
X160130879Y-121215143D01*
X160122489Y-121144644D01*
X160137614Y-121102607D01*
X160181609Y-121026405D01*
X160232991Y-120977412D01*
X160302705Y-120963976D01*
X160368616Y-120990362D01*
X160382277Y-121002832D01*
X160496254Y-121123360D01*
X160655763Y-121235049D01*
X160661626Y-121237586D01*
X160828613Y-121309848D01*
X160828617Y-121309849D01*
X160834472Y-121312383D01*
X160840719Y-121313688D01*
X160840722Y-121313689D01*
X161020345Y-121351214D01*
X161020350Y-121351215D01*
X161025081Y-121352203D01*
X161031473Y-121352538D01*
X161174451Y-121352538D01*
X161259215Y-121343928D01*
X161313166Y-121338448D01*
X161313167Y-121338448D01*
X161319515Y-121337803D01*
X161400631Y-121312383D01*
X161499239Y-121281482D01*
X161499244Y-121281480D01*
X161505329Y-121279573D01*
X161592263Y-121231384D01*
X161670059Y-121188261D01*
X161670062Y-121188259D01*
X161675638Y-121185168D01*
X161680479Y-121181019D01*
X161680483Y-121181016D01*
X161818643Y-121062598D01*
X161823486Y-121058447D01*
X161848341Y-121026405D01*
X161938919Y-120909632D01*
X161942834Y-120904585D01*
X162028806Y-120729867D01*
X162030416Y-120723687D01*
X162076280Y-120547613D01*
X162076280Y-120547610D01*
X162077890Y-120541431D01*
X162088081Y-120346974D01*
X162058963Y-120154439D01*
X162056760Y-120148453D01*
X162056759Y-120148447D01*
X161993928Y-119977678D01*
X161993926Y-119977673D01*
X161991725Y-119971692D01*
X161889114Y-119806198D01*
X161755322Y-119664716D01*
X161595813Y-119553027D01*
X161477880Y-119501993D01*
X161422963Y-119478228D01*
X161422959Y-119478227D01*
X161417104Y-119475693D01*
X161410857Y-119474388D01*
X161410854Y-119474387D01*
X161283913Y-119447868D01*
X161221322Y-119414359D01*
X161186784Y-119352329D01*
X161191264Y-119281474D01*
X161200560Y-119261531D01*
X161263837Y-119151931D01*
X161265544Y-119148975D01*
X161290785Y-119091746D01*
X161297961Y-119048635D01*
X161313226Y-118956923D01*
X161313226Y-118956920D01*
X161314700Y-118948065D01*
X161297327Y-118803447D01*
X161245472Y-118682169D01*
X161243594Y-118677777D01*
X161243594Y-118677776D01*
X161240063Y-118669519D01*
X161180615Y-118597273D01*
X161152536Y-118563149D01*
X161152534Y-118563147D01*
X161147512Y-118557044D01*
X161097038Y-118520103D01*
X159714630Y-117721969D01*
X159657401Y-117696728D01*
X159649614Y-117695432D01*
X159649611Y-117695431D01*
X159522578Y-117674288D01*
X159522576Y-117674288D01*
X159513720Y-117672814D01*
X159369102Y-117690186D01*
X159353802Y-117696728D01*
X159243428Y-117743920D01*
X159243426Y-117743921D01*
X159235173Y-117747450D01*
X159122699Y-117840001D01*
X159085758Y-117890475D01*
X158943404Y-118137040D01*
X158925518Y-118168019D01*
X158874136Y-118217012D01*
X158816399Y-118231019D01*
X153679113Y-118231019D01*
X153610992Y-118211017D01*
X153590018Y-118194114D01*
X151880405Y-116484500D01*
X151846379Y-116422188D01*
X151843500Y-116395405D01*
X151843500Y-114054287D01*
X151863502Y-113986166D01*
X151905360Y-113945834D01*
X151934534Y-113928580D01*
X151941362Y-113924542D01*
X151955683Y-113910221D01*
X151970717Y-113897380D01*
X151980694Y-113890131D01*
X151987107Y-113885472D01*
X152015298Y-113851395D01*
X152023288Y-113842616D01*
X158154639Y-107711265D01*
X158216951Y-107677239D01*
X158287766Y-107682304D01*
X158332829Y-107711265D01*
X158782258Y-108160694D01*
X158784920Y-108162834D01*
X158824848Y-108194938D01*
X158824851Y-108194940D01*
X158831004Y-108199887D01*
X158963600Y-108260174D01*
X158972483Y-108261446D01*
X158972486Y-108261447D01*
X159098897Y-108279550D01*
X159107786Y-108280823D01*
X159116675Y-108279550D01*
X159243086Y-108261447D01*
X159243089Y-108261446D01*
X159251972Y-108260174D01*
X159384568Y-108199887D01*
X159390721Y-108194940D01*
X159390724Y-108194938D01*
X159430652Y-108162834D01*
X159433314Y-108160694D01*
X160915599Y-106678409D01*
X160929055Y-106661673D01*
X160949843Y-106635819D01*
X160949845Y-106635816D01*
X160954792Y-106629663D01*
X160982355Y-106569040D01*
X161011365Y-106505236D01*
X161011365Y-106505235D01*
X161015079Y-106497067D01*
X161035728Y-106352881D01*
X161025615Y-106282265D01*
X161016352Y-106217581D01*
X161016351Y-106217578D01*
X161015079Y-106208695D01*
X161011365Y-106200526D01*
X161011364Y-106200523D01*
X160962925Y-106093985D01*
X160952939Y-106023695D01*
X160982540Y-105959163D01*
X160990716Y-105950606D01*
X161995600Y-104993290D01*
X162058718Y-104960786D01*
X162134661Y-104969818D01*
X162208264Y-105003283D01*
X162225319Y-105008270D01*
X162351589Y-105026353D01*
X162369367Y-105026353D01*
X162495635Y-105008270D01*
X162512693Y-105003282D01*
X162629799Y-104950038D01*
X162643145Y-104941819D01*
X162683023Y-104909756D01*
X162688100Y-104905201D01*
X163234378Y-104358923D01*
X163241992Y-104344979D01*
X163241861Y-104343146D01*
X163237610Y-104336531D01*
X161825623Y-102924544D01*
X162548109Y-102924544D01*
X162548240Y-102926377D01*
X162552491Y-102932992D01*
X163593587Y-103974088D01*
X163607531Y-103981702D01*
X163609364Y-103981571D01*
X163615979Y-103977320D01*
X164165484Y-103427815D01*
X164170045Y-103422732D01*
X164202106Y-103382858D01*
X164210329Y-103369505D01*
X164263571Y-103252404D01*
X164268559Y-103235346D01*
X164286642Y-103109078D01*
X164286642Y-103091300D01*
X164268559Y-102965030D01*
X164263572Y-102947975D01*
X164210326Y-102830866D01*
X164202109Y-102817522D01*
X164170046Y-102777645D01*
X164165490Y-102772567D01*
X163442435Y-102049512D01*
X163428491Y-102041898D01*
X163426658Y-102042029D01*
X163420043Y-102046280D01*
X162555723Y-102910600D01*
X162548109Y-102924544D01*
X161825623Y-102924544D01*
X160773815Y-101872736D01*
X160759871Y-101865122D01*
X160758038Y-101865253D01*
X160751423Y-101869504D01*
X160201918Y-102419009D01*
X160197357Y-102424092D01*
X160165296Y-102463966D01*
X160157073Y-102477319D01*
X160103831Y-102594420D01*
X160098843Y-102611478D01*
X160080760Y-102737746D01*
X160080760Y-102755524D01*
X160098843Y-102881794D01*
X160103830Y-102898849D01*
X160157074Y-103015954D01*
X160157935Y-103017352D01*
X160158273Y-103018592D01*
X160160344Y-103023146D01*
X160159607Y-103023481D01*
X160176625Y-103085844D01*
X160155318Y-103153568D01*
X160140845Y-103171403D01*
X159574678Y-103751814D01*
X159196289Y-104139722D01*
X159134404Y-104174518D01*
X159063531Y-104170333D01*
X159040024Y-104159028D01*
X159037169Y-104157270D01*
X159031014Y-104152321D01*
X159023827Y-104149054D01*
X159023825Y-104149052D01*
X158906587Y-104095748D01*
X158906586Y-104095748D01*
X158898418Y-104092034D01*
X158889535Y-104090762D01*
X158889532Y-104090761D01*
X158763121Y-104072658D01*
X158754232Y-104071385D01*
X158745343Y-104072658D01*
X158618932Y-104090761D01*
X158618929Y-104090762D01*
X158610046Y-104092034D01*
X158601878Y-104095748D01*
X158601877Y-104095748D01*
X158554071Y-104117484D01*
X158477450Y-104152321D01*
X158471297Y-104157268D01*
X158471294Y-104157270D01*
X158449843Y-104174518D01*
X158428704Y-104191514D01*
X156946419Y-105673799D01*
X156944279Y-105676461D01*
X156912175Y-105716389D01*
X156912173Y-105716392D01*
X156907226Y-105722545D01*
X156846939Y-105855141D01*
X156845667Y-105864024D01*
X156845666Y-105864027D01*
X156829210Y-105978937D01*
X156826290Y-105999327D01*
X156827563Y-106008216D01*
X156837285Y-106076099D01*
X156846939Y-106143513D01*
X156907226Y-106276109D01*
X156912173Y-106282262D01*
X156912175Y-106282265D01*
X156932963Y-106308119D01*
X156946419Y-106324855D01*
X157258735Y-106637171D01*
X157292761Y-106699483D01*
X157287696Y-106770298D01*
X157258735Y-106815361D01*
X154281327Y-109792768D01*
X151324500Y-112749595D01*
X151262188Y-112783621D01*
X151235405Y-112786500D01*
X151024594Y-112786500D01*
X150956473Y-112766498D01*
X150935499Y-112749595D01*
X144755064Y-106569159D01*
X144721038Y-106506847D01*
X144726103Y-106436032D01*
X144755064Y-106390969D01*
X145050936Y-106095097D01*
X145066211Y-106076099D01*
X145085180Y-106052507D01*
X145085182Y-106052504D01*
X145090129Y-106046351D01*
X145124496Y-105970764D01*
X145146702Y-105921924D01*
X145146702Y-105921923D01*
X145150416Y-105913755D01*
X145154511Y-105885165D01*
X145169792Y-105778458D01*
X145171065Y-105769569D01*
X145150416Y-105625383D01*
X145090129Y-105492787D01*
X145085182Y-105486634D01*
X145085180Y-105486631D01*
X145053076Y-105446703D01*
X145050936Y-105444041D01*
X143568651Y-103961756D01*
X143530976Y-103931464D01*
X143526061Y-103927512D01*
X143526058Y-103927510D01*
X143519905Y-103922563D01*
X143387309Y-103862276D01*
X143378426Y-103861004D01*
X143378423Y-103861003D01*
X143252012Y-103842900D01*
X143243123Y-103841627D01*
X143234234Y-103842900D01*
X143107823Y-103861003D01*
X143107820Y-103861004D01*
X143098937Y-103862276D01*
X142968727Y-103921478D01*
X142898437Y-103931464D01*
X142833906Y-103901864D01*
X142828595Y-103896972D01*
X141856016Y-102948260D01*
X141821220Y-102886375D01*
X141825404Y-102815502D01*
X141836711Y-102791993D01*
X141840281Y-102786196D01*
X141893525Y-102669091D01*
X141898512Y-102652036D01*
X141916595Y-102525766D01*
X141916595Y-102507988D01*
X141898512Y-102381720D01*
X141893524Y-102364662D01*
X141840280Y-102247556D01*
X141832061Y-102234210D01*
X141799998Y-102194332D01*
X141795443Y-102189255D01*
X141249165Y-101642977D01*
X141235221Y-101635363D01*
X141233388Y-101635494D01*
X141226773Y-101639745D01*
X138762978Y-104103540D01*
X138755364Y-104117484D01*
X128843606Y-104117484D01*
X128844821Y-102879320D01*
X137710713Y-102879320D01*
X137728796Y-103005588D01*
X137733784Y-103022646D01*
X137787028Y-103139752D01*
X137795247Y-103153098D01*
X137827310Y-103192976D01*
X137831865Y-103198053D01*
X138378143Y-103744331D01*
X138392087Y-103751945D01*
X138393920Y-103751814D01*
X138400535Y-103747563D01*
X139441632Y-102706466D01*
X139449246Y-102692522D01*
X139449115Y-102690689D01*
X139444864Y-102684074D01*
X138580545Y-101819755D01*
X138566601Y-101812141D01*
X138564768Y-101812272D01*
X138558153Y-101816523D01*
X137831871Y-102542805D01*
X137827309Y-102547889D01*
X137795249Y-102587762D01*
X137787027Y-102601112D01*
X137733783Y-102718217D01*
X137728796Y-102735272D01*
X137710713Y-102861542D01*
X137710713Y-102879320D01*
X128844821Y-102879320D01*
X128846225Y-101448864D01*
X138932140Y-101448864D01*
X138932271Y-101450697D01*
X138936522Y-101457312D01*
X139800842Y-102321632D01*
X139814786Y-102329246D01*
X139816619Y-102329115D01*
X139823234Y-102324864D01*
X140646253Y-101501845D01*
X161125410Y-101501845D01*
X161125541Y-101503678D01*
X161129792Y-101510293D01*
X162170889Y-102551390D01*
X162184833Y-102559004D01*
X162186666Y-102558873D01*
X162193281Y-102554622D01*
X163057600Y-101690303D01*
X163065214Y-101676359D01*
X163065083Y-101674526D01*
X163060832Y-101667911D01*
X162334550Y-100941629D01*
X162329466Y-100937067D01*
X162289593Y-100905007D01*
X162276243Y-100896785D01*
X162159138Y-100843541D01*
X162142083Y-100838554D01*
X162015813Y-100820471D01*
X161998035Y-100820471D01*
X161871767Y-100838554D01*
X161854709Y-100843542D01*
X161737603Y-100896786D01*
X161724257Y-100905005D01*
X161684379Y-100937068D01*
X161679302Y-100941623D01*
X161133024Y-101487901D01*
X161125410Y-101501845D01*
X140646253Y-101501845D01*
X140864330Y-101283768D01*
X140871944Y-101269824D01*
X140871813Y-101267991D01*
X140867562Y-101261376D01*
X140318057Y-100711871D01*
X140312974Y-100707310D01*
X140273100Y-100675249D01*
X140259747Y-100667026D01*
X140142646Y-100613784D01*
X140125588Y-100608796D01*
X139999320Y-100590713D01*
X139981542Y-100590713D01*
X139855272Y-100608796D01*
X139838217Y-100613783D01*
X139721108Y-100667029D01*
X139707764Y-100675246D01*
X139667887Y-100707309D01*
X139662809Y-100711865D01*
X138939754Y-101434920D01*
X138932140Y-101448864D01*
X128846225Y-101448864D01*
X128848213Y-99422610D01*
X128868282Y-99354509D01*
X128892378Y-99326927D01*
X129957651Y-98417007D01*
X144448533Y-98417007D01*
X144448618Y-98418198D01*
X144453536Y-98425692D01*
X144588528Y-98555598D01*
X144591627Y-98558388D01*
X145031895Y-98929128D01*
X145035147Y-98931687D01*
X145499016Y-99272434D01*
X145502463Y-99274793D01*
X145987867Y-99584030D01*
X145991478Y-99586165D01*
X146496292Y-99862543D01*
X146500038Y-99864436D01*
X147022098Y-100106768D01*
X147025922Y-100108391D01*
X147562893Y-100315590D01*
X147566828Y-100316961D01*
X148116346Y-100488116D01*
X148120364Y-100489223D01*
X148680035Y-100623589D01*
X148684089Y-100624421D01*
X149251444Y-100721401D01*
X149255549Y-100721963D01*
X149828071Y-100781127D01*
X149832239Y-100781418D01*
X150407395Y-100802508D01*
X150411557Y-100802523D01*
X150986876Y-100785448D01*
X150991031Y-100785186D01*
X151563930Y-100730023D01*
X151568075Y-100729484D01*
X152136059Y-100636474D01*
X152140158Y-100635662D01*
X152700730Y-100505213D01*
X152704751Y-100504135D01*
X153255459Y-100336818D01*
X153259403Y-100335475D01*
X153797814Y-100132026D01*
X153801648Y-100130430D01*
X154325381Y-99891751D01*
X154329124Y-99889893D01*
X154835866Y-99617041D01*
X154839509Y-99614920D01*
X155327041Y-99309092D01*
X155330520Y-99306745D01*
X155796723Y-98969270D01*
X155800039Y-98966698D01*
X156242860Y-98599062D01*
X156245980Y-98596292D01*
X156423250Y-98428069D01*
X156431224Y-98414334D01*
X156431180Y-98413376D01*
X156426218Y-98405428D01*
X150452812Y-92432022D01*
X150438868Y-92424408D01*
X150437035Y-92424539D01*
X150430420Y-92428790D01*
X144456147Y-98403063D01*
X144448533Y-98417007D01*
X129957651Y-98417007D01*
X130074643Y-98317076D01*
X130089504Y-98306157D01*
X130104386Y-98296818D01*
X130104390Y-98296815D01*
X130111991Y-98292045D01*
X130136830Y-98264060D01*
X130137343Y-98263519D01*
X130138027Y-98262935D01*
X130139664Y-98261075D01*
X130139678Y-98261060D01*
X130160920Y-98236921D01*
X130161275Y-98236519D01*
X130202913Y-98189607D01*
X130202917Y-98189601D01*
X130208680Y-98183108D01*
X130209151Y-98182111D01*
X130209885Y-98181277D01*
X130240146Y-98116520D01*
X130240375Y-98116034D01*
X130267190Y-98059285D01*
X130267191Y-98059281D01*
X130270909Y-98051413D01*
X130271082Y-98050318D01*
X130271550Y-98049317D01*
X130282442Y-97978526D01*
X130288401Y-97940869D01*
X130288403Y-97939969D01*
X130288493Y-97939203D01*
X130292337Y-97914222D01*
X130292337Y-97914219D01*
X130293701Y-97905354D01*
X130292522Y-97896462D01*
X130292522Y-97896458D01*
X130289698Y-97875162D01*
X130288605Y-97858290D01*
X130296047Y-94844334D01*
X136097600Y-94844334D01*
X136104355Y-94906516D01*
X136155485Y-95042905D01*
X136242839Y-95159461D01*
X136359395Y-95246815D01*
X136495784Y-95297945D01*
X136557966Y-95304700D01*
X140512034Y-95304700D01*
X140574216Y-95297945D01*
X140710605Y-95246815D01*
X140827161Y-95159461D01*
X140914515Y-95042905D01*
X140965645Y-94906516D01*
X140972400Y-94844334D01*
X140972400Y-89535694D01*
X140992402Y-89467573D01*
X141009305Y-89446599D01*
X142397081Y-88058823D01*
X142459393Y-88024797D01*
X142530208Y-88029862D01*
X142587044Y-88072409D01*
X142611855Y-88138929D01*
X142599328Y-88203350D01*
X142466576Y-88474330D01*
X142464867Y-88478133D01*
X142246478Y-89010622D01*
X142245021Y-89014539D01*
X142062391Y-89560364D01*
X142061208Y-89564331D01*
X141915147Y-90121079D01*
X141914230Y-90125118D01*
X141805394Y-90690295D01*
X141804739Y-90694426D01*
X141733602Y-91265556D01*
X141733222Y-91269725D01*
X141700092Y-91844322D01*
X141699990Y-91848479D01*
X141705013Y-92424019D01*
X141705188Y-92428186D01*
X141748340Y-93002094D01*
X141748795Y-93006284D01*
X141829886Y-93576064D01*
X141830615Y-93580198D01*
X141949294Y-94143365D01*
X141950291Y-94147426D01*
X142106038Y-94701513D01*
X142107290Y-94705461D01*
X142299419Y-95248018D01*
X142300944Y-95251909D01*
X142528600Y-95780518D01*
X142530372Y-95784285D01*
X142792564Y-96296652D01*
X142794596Y-96300318D01*
X143090160Y-96794172D01*
X143092416Y-96797672D01*
X143420058Y-97270847D01*
X143422562Y-97274218D01*
X143780861Y-97724662D01*
X143783533Y-97727803D01*
X144071227Y-98043974D01*
X144084791Y-98052233D01*
X144085045Y-98052227D01*
X144094063Y-98046727D01*
X150350905Y-91789885D01*
X150413217Y-91755859D01*
X150484032Y-91760924D01*
X150529095Y-91789885D01*
X156783141Y-98043931D01*
X156797085Y-98051545D01*
X156797571Y-98051511D01*
X156806008Y-98045846D01*
X157056712Y-97774161D01*
X157059448Y-97770992D01*
X157420877Y-97323067D01*
X157423373Y-97319755D01*
X157754331Y-96848849D01*
X157756606Y-96845372D01*
X158055620Y-96353582D01*
X158057680Y-96349926D01*
X158323420Y-95839442D01*
X158325244Y-95835634D01*
X158556568Y-95308663D01*
X158558130Y-95304760D01*
X158754032Y-94763589D01*
X158755322Y-94759619D01*
X158914929Y-94206647D01*
X158915955Y-94202592D01*
X159038564Y-93640254D01*
X159039318Y-93636144D01*
X159124387Y-93066936D01*
X159124871Y-93062751D01*
X159172049Y-92488912D01*
X159172245Y-92485233D01*
X159182593Y-92061827D01*
X159182578Y-92058185D01*
X159163486Y-91482682D01*
X159163209Y-91478504D01*
X159106046Y-90905800D01*
X159105496Y-90901679D01*
X159010499Y-90334000D01*
X159009680Y-90329938D01*
X158877269Y-89769801D01*
X158876176Y-89765780D01*
X158706939Y-89215663D01*
X158705586Y-89211734D01*
X158500263Y-88674049D01*
X158498638Y-88670184D01*
X158328024Y-88299241D01*
X158317731Y-88228995D01*
X158347049Y-88164335D01*
X158406672Y-88125790D01*
X158477668Y-88125599D01*
X158531591Y-88157495D01*
X159845295Y-89471199D01*
X159879321Y-89533511D01*
X159882200Y-89560294D01*
X159882200Y-94869734D01*
X159888955Y-94931916D01*
X159940085Y-95068305D01*
X160027439Y-95184861D01*
X160143995Y-95272215D01*
X160280384Y-95323345D01*
X160342566Y-95330100D01*
X164347434Y-95330100D01*
X164409616Y-95323345D01*
X164546005Y-95272215D01*
X164546557Y-95273687D01*
X164606107Y-95260663D01*
X164672655Y-95285400D01*
X164686353Y-95297257D01*
X165829595Y-96440499D01*
X165863621Y-96502811D01*
X165866500Y-96529594D01*
X165866500Y-112492955D01*
X165846498Y-112561076D01*
X165829595Y-112582050D01*
X163731981Y-114679664D01*
X163669669Y-114713690D01*
X163598854Y-114708625D01*
X163579886Y-114699688D01*
X163060092Y-114399585D01*
X162855655Y-114281553D01*
X162798426Y-114256312D01*
X162790639Y-114255016D01*
X162790636Y-114255015D01*
X162663603Y-114233872D01*
X162663601Y-114233872D01*
X162654745Y-114232398D01*
X162609745Y-114237804D01*
X162519039Y-114248700D01*
X162519036Y-114248701D01*
X162510127Y-114249771D01*
X162376198Y-114307034D01*
X162369270Y-114312735D01*
X162369268Y-114312736D01*
X162291316Y-114376880D01*
X162263724Y-114399585D01*
X162226783Y-114450059D01*
X161819740Y-115155078D01*
X161744966Y-115284591D01*
X161693584Y-115333584D01*
X161623870Y-115347020D01*
X161572847Y-115330710D01*
X161517877Y-115298973D01*
X161214630Y-115123893D01*
X161157401Y-115098652D01*
X161149614Y-115097356D01*
X161149611Y-115097355D01*
X161022578Y-115076212D01*
X161022576Y-115076212D01*
X161013720Y-115074738D01*
X160869102Y-115092110D01*
X160853802Y-115098652D01*
X160743428Y-115145844D01*
X160743426Y-115145845D01*
X160735173Y-115149374D01*
X160622699Y-115241925D01*
X160585758Y-115292399D01*
X160187624Y-115981987D01*
X160162383Y-116039216D01*
X160138468Y-116182897D01*
X160155841Y-116327515D01*
X160213105Y-116461443D01*
X160305656Y-116573918D01*
X160356130Y-116610859D01*
X161400011Y-117213544D01*
X161653285Y-117359772D01*
X161702278Y-117411154D01*
X161715714Y-117480868D01*
X161712217Y-117500647D01*
X161673686Y-117648569D01*
X161672359Y-117673885D01*
X161663917Y-117834980D01*
X161663495Y-117843026D01*
X161692613Y-118035561D01*
X161694816Y-118041547D01*
X161694817Y-118041553D01*
X161757648Y-118212322D01*
X161757650Y-118212327D01*
X161759851Y-118218308D01*
X161806122Y-118292935D01*
X161836580Y-118342058D01*
X161862462Y-118383802D01*
X161866843Y-118388435D01*
X161866844Y-118388436D01*
X161969331Y-118496814D01*
X161996254Y-118525284D01*
X162001484Y-118528946D01*
X162001485Y-118528947D01*
X162048399Y-118561796D01*
X162155763Y-118636973D01*
X162161626Y-118639510D01*
X162328613Y-118711772D01*
X162328617Y-118711773D01*
X162334472Y-118714307D01*
X162340719Y-118715612D01*
X162340722Y-118715613D01*
X162520345Y-118753138D01*
X162520350Y-118753139D01*
X162525081Y-118754127D01*
X162531473Y-118754462D01*
X162674451Y-118754462D01*
X162743739Y-118747424D01*
X162813166Y-118740372D01*
X162813167Y-118740372D01*
X162819515Y-118739727D01*
X162900631Y-118714307D01*
X162999239Y-118683406D01*
X162999244Y-118683404D01*
X163005329Y-118681497D01*
X163117529Y-118619303D01*
X163170059Y-118590185D01*
X163170062Y-118590183D01*
X163175638Y-118587092D01*
X163180479Y-118582943D01*
X163180483Y-118582940D01*
X163318643Y-118464522D01*
X163323486Y-118460371D01*
X163442834Y-118306509D01*
X163449514Y-118292935D01*
X163525988Y-118137518D01*
X163528806Y-118131791D01*
X163536719Y-118101414D01*
X163576280Y-117949537D01*
X163576280Y-117949534D01*
X163577890Y-117943355D01*
X163585534Y-117797503D01*
X163587747Y-117755279D01*
X163587747Y-117755275D01*
X163588081Y-117748898D01*
X163558963Y-117556363D01*
X163556760Y-117550377D01*
X163556759Y-117550371D01*
X163493928Y-117379602D01*
X163493926Y-117379597D01*
X163491725Y-117373616D01*
X163389114Y-117208122D01*
X163384732Y-117203488D01*
X163384728Y-117203483D01*
X163267833Y-117079870D01*
X163235561Y-117016632D01*
X163242601Y-116945985D01*
X163285321Y-116891361D01*
X163313917Y-116870585D01*
X163323837Y-116864068D01*
X163355065Y-116845600D01*
X163355068Y-116845598D01*
X163361892Y-116841562D01*
X163367502Y-116835952D01*
X163373758Y-116831099D01*
X163374672Y-116832277D01*
X163429286Y-116802454D01*
X163500101Y-116807519D01*
X163556937Y-116850066D01*
X163571923Y-116876039D01*
X163598001Y-116937030D01*
X163618046Y-116983911D01*
X163623753Y-116990846D01*
X163697007Y-117079870D01*
X163710597Y-117096386D01*
X163761071Y-117133327D01*
X163764030Y-117135035D01*
X163764034Y-117135038D01*
X164124978Y-117343429D01*
X164537261Y-117581461D01*
X164594490Y-117606702D01*
X164602277Y-117607998D01*
X164602280Y-117607999D01*
X164729313Y-117629142D01*
X164729315Y-117629142D01*
X164738171Y-117630616D01*
X164783171Y-117625210D01*
X164873877Y-117614314D01*
X164873880Y-117614313D01*
X164882789Y-117613243D01*
X165016718Y-117555980D01*
X165023646Y-117550279D01*
X165023648Y-117550278D01*
X165123090Y-117468450D01*
X165129192Y-117463429D01*
X165166133Y-117412955D01*
X165714267Y-116463559D01*
X165739508Y-116406330D01*
X165740805Y-116398539D01*
X165761949Y-116271507D01*
X165761949Y-116271504D01*
X165763423Y-116262649D01*
X165746050Y-116118032D01*
X165712351Y-116039216D01*
X165692317Y-115992360D01*
X165692315Y-115992357D01*
X165688786Y-115984103D01*
X165596235Y-115871628D01*
X165545761Y-115834687D01*
X164941782Y-115485979D01*
X164892790Y-115434598D01*
X164879354Y-115364884D01*
X164905740Y-115298973D01*
X164915688Y-115287766D01*
X166892247Y-113311207D01*
X166900537Y-113303663D01*
X166907018Y-113299550D01*
X166953659Y-113249882D01*
X166956413Y-113247041D01*
X166976134Y-113227320D01*
X166978612Y-113224125D01*
X166986318Y-113215103D01*
X167011158Y-113188651D01*
X167016586Y-113182871D01*
X167026346Y-113165118D01*
X167037199Y-113148595D01*
X167044753Y-113138856D01*
X167049613Y-113132591D01*
X167067176Y-113092007D01*
X167072383Y-113081377D01*
X167093695Y-113042610D01*
X167095666Y-113034933D01*
X167095668Y-113034928D01*
X167098732Y-113022992D01*
X167105138Y-113004280D01*
X167110034Y-112992967D01*
X167113181Y-112985695D01*
X167120097Y-112942031D01*
X167122504Y-112930410D01*
X167131528Y-112895261D01*
X167131528Y-112895260D01*
X167133500Y-112887580D01*
X167133500Y-112867319D01*
X167135051Y-112847608D01*
X167136979Y-112835435D01*
X167138219Y-112827607D01*
X167134059Y-112783596D01*
X167133500Y-112771739D01*
X167133500Y-96293763D01*
X167134027Y-96282579D01*
X167135701Y-96275091D01*
X167133562Y-96207032D01*
X167133500Y-96203075D01*
X167133500Y-96175144D01*
X167132994Y-96171138D01*
X167132061Y-96159292D01*
X167130922Y-96123037D01*
X167130673Y-96115110D01*
X167125022Y-96095658D01*
X167121014Y-96076306D01*
X167119467Y-96064063D01*
X167118474Y-96056203D01*
X167115556Y-96048832D01*
X167102200Y-96015097D01*
X167098355Y-96003870D01*
X167097721Y-96001687D01*
X167086018Y-95961407D01*
X167081984Y-95954585D01*
X167081981Y-95954579D01*
X167075706Y-95943968D01*
X167067010Y-95926218D01*
X167062472Y-95914756D01*
X167062469Y-95914751D01*
X167059552Y-95907383D01*
X167033573Y-95871625D01*
X167027057Y-95861707D01*
X167008575Y-95830457D01*
X167004542Y-95823637D01*
X166990218Y-95809313D01*
X166977376Y-95794278D01*
X166965472Y-95777893D01*
X166931406Y-95749711D01*
X166922627Y-95741722D01*
X164844705Y-93663800D01*
X164810679Y-93601488D01*
X164807800Y-93574705D01*
X164807800Y-89250266D01*
X164801045Y-89188084D01*
X164749915Y-89051695D01*
X164662561Y-88935139D01*
X164546005Y-88847785D01*
X164409616Y-88796655D01*
X164347434Y-88789900D01*
X161007994Y-88789900D01*
X160939873Y-88769898D01*
X160918899Y-88752995D01*
X155278896Y-83112991D01*
X155271356Y-83104705D01*
X155267244Y-83098226D01*
X155217592Y-83051600D01*
X155214751Y-83048846D01*
X155195014Y-83029109D01*
X155191817Y-83026629D01*
X155182795Y-83018924D01*
X155169366Y-83006313D01*
X155150565Y-82988658D01*
X155143619Y-82984839D01*
X155143616Y-82984837D01*
X155132810Y-82978896D01*
X155116291Y-82968045D01*
X155115827Y-82967685D01*
X155100285Y-82955630D01*
X155093016Y-82952485D01*
X155093012Y-82952482D01*
X155059707Y-82938070D01*
X155049057Y-82932853D01*
X155010304Y-82911549D01*
X154990681Y-82906511D01*
X154971978Y-82900107D01*
X154960664Y-82895211D01*
X154960663Y-82895211D01*
X154953389Y-82892063D01*
X154945566Y-82890824D01*
X154945556Y-82890821D01*
X154909720Y-82885145D01*
X154898100Y-82882739D01*
X154862955Y-82873716D01*
X154862954Y-82873716D01*
X154855274Y-82871744D01*
X154835020Y-82871744D01*
X154815309Y-82870193D01*
X154803130Y-82868264D01*
X154795301Y-82867024D01*
X154766030Y-82869791D01*
X154751283Y-82871185D01*
X154739425Y-82871744D01*
X146133523Y-82871744D01*
X146122340Y-82871217D01*
X146114847Y-82869542D01*
X146106921Y-82869791D01*
X146106920Y-82869791D01*
X146046757Y-82871682D01*
X146042799Y-82871744D01*
X146014900Y-82871744D01*
X146010910Y-82872248D01*
X145999076Y-82873180D01*
X145954867Y-82874570D01*
X145947253Y-82876782D01*
X145947248Y-82876783D01*
X145935415Y-82880221D01*
X145916052Y-82884232D01*
X145895959Y-82886770D01*
X145888592Y-82889687D01*
X145888587Y-82889688D01*
X145854848Y-82903046D01*
X145843621Y-82906890D01*
X145801163Y-82919226D01*
X145794337Y-82923263D01*
X145783728Y-82929537D01*
X145765980Y-82938232D01*
X145747139Y-82945692D01*
X145740723Y-82950354D01*
X145740722Y-82950354D01*
X145711369Y-82971680D01*
X145701449Y-82978196D01*
X145670221Y-82996664D01*
X145670218Y-82996666D01*
X145663394Y-83000702D01*
X145649073Y-83015023D01*
X145634040Y-83027863D01*
X145617649Y-83039772D01*
X145608973Y-83050260D01*
X145589458Y-83073849D01*
X145581468Y-83082628D01*
X139885700Y-88778395D01*
X139823388Y-88812421D01*
X139796605Y-88815300D01*
X136557966Y-88815300D01*
X136495784Y-88822055D01*
X136359395Y-88873185D01*
X136242839Y-88960539D01*
X136155485Y-89077095D01*
X136104355Y-89213484D01*
X136097600Y-89275666D01*
X136097600Y-94844334D01*
X130296047Y-94844334D01*
X130308347Y-89862610D01*
X130310742Y-89838472D01*
X130477000Y-88997946D01*
X130477782Y-88994279D01*
X130651570Y-88235099D01*
X130659533Y-88211415D01*
X130841446Y-87808044D01*
X130851927Y-87789268D01*
X131018999Y-87542176D01*
X131209567Y-87260333D01*
X131356600Y-87042877D01*
X131359496Y-87038772D01*
X131505906Y-86839816D01*
X131918604Y-86279003D01*
X131921637Y-86275050D01*
X132510579Y-85538178D01*
X132513786Y-85534325D01*
X133131608Y-84821540D01*
X133134973Y-84817810D01*
X133780734Y-84130199D01*
X133784245Y-84126607D01*
X134456885Y-83465296D01*
X134460537Y-83461846D01*
X135159008Y-82827867D01*
X135162794Y-82824566D01*
X135885975Y-82218936D01*
X135889890Y-82215788D01*
X135978514Y-82147390D01*
X136636666Y-81639442D01*
X136640655Y-81636489D01*
X137390598Y-81104008D01*
X137409803Y-81090372D01*
X137413956Y-81087546D01*
X138012672Y-80697375D01*
X138204256Y-80572524D01*
X138208487Y-80569885D01*
X139018706Y-80086764D01*
X139023041Y-80084295D01*
X139851860Y-79633858D01*
X139856318Y-79631550D01*
X140702409Y-79214520D01*
X140706924Y-79212405D01*
X141569002Y-78829415D01*
X141573586Y-78827487D01*
X142450261Y-78479156D01*
X142454942Y-78477404D01*
X143344749Y-78164314D01*
X143349520Y-78162742D01*
X144251108Y-77885366D01*
X144255924Y-77883988D01*
X145167876Y-77642762D01*
X145172754Y-77641576D01*
X146093573Y-77436898D01*
X146098463Y-77435913D01*
X146808376Y-77307572D01*
X147026710Y-77268101D01*
X147031669Y-77267306D01*
X147070486Y-77261876D01*
X147124800Y-77254278D01*
X147195034Y-77264650D01*
X147248512Y-77311347D01*
X147268254Y-77379543D01*
X147262749Y-77415902D01*
X147260261Y-77424040D01*
X147256447Y-77432163D01*
X147255067Y-77441029D01*
X147255066Y-77441031D01*
X147245976Y-77499418D01*
X147234391Y-77573823D01*
X147235555Y-77582725D01*
X147235555Y-77582728D01*
X147236814Y-77592354D01*
X147252980Y-77715979D01*
X147310720Y-77847203D01*
X147316497Y-77854076D01*
X147316498Y-77854077D01*
X147342177Y-77884626D01*
X147402970Y-77956948D01*
X147522313Y-78036390D01*
X147659157Y-78079142D01*
X147668129Y-78079306D01*
X147668132Y-78079307D01*
X147733463Y-78080504D01*
X147802499Y-78081770D01*
X147811533Y-78079307D01*
X147932158Y-78046421D01*
X147932160Y-78046420D01*
X147940817Y-78044060D01*
X148062991Y-77969045D01*
X148159200Y-77862754D01*
X148194089Y-77790743D01*
X148217795Y-77741814D01*
X148217795Y-77741813D01*
X148221710Y-77733733D01*
X148245496Y-77592354D01*
X148245647Y-77580000D01*
X148225323Y-77438082D01*
X148221609Y-77429913D01*
X148169699Y-77315742D01*
X148169698Y-77315740D01*
X148165984Y-77307572D01*
X148160318Y-77300996D01*
X148140508Y-77232973D01*
X148160662Y-77164897D01*
X148214421Y-77118523D01*
X148254040Y-77107871D01*
X148909515Y-77042692D01*
X148914523Y-77042295D01*
X149001822Y-77037117D01*
X149071007Y-77053051D01*
X149120595Y-77103859D01*
X149134842Y-77173412D01*
X149109225Y-77239626D01*
X149083345Y-77264830D01*
X149057860Y-77283346D01*
X148827767Y-77499418D01*
X148825243Y-77502469D01*
X148825242Y-77502470D01*
X148758847Y-77582728D01*
X148626568Y-77742625D01*
X148457438Y-78009131D01*
X148455754Y-78012710D01*
X148455750Y-78012717D01*
X148324733Y-78291144D01*
X148323044Y-78294734D01*
X148225505Y-78594928D01*
X148166359Y-78904980D01*
X148146540Y-79220000D01*
X148166359Y-79535020D01*
X148225505Y-79845072D01*
X148226732Y-79848848D01*
X148307936Y-80098767D01*
X148323044Y-80145266D01*
X148324731Y-80148852D01*
X148324733Y-80148856D01*
X148455750Y-80427283D01*
X148455754Y-80427290D01*
X148457438Y-80430869D01*
X148626568Y-80697375D01*
X148827767Y-80940582D01*
X149057860Y-81156654D01*
X149313221Y-81342184D01*
X149589821Y-81494247D01*
X149593490Y-81495700D01*
X149593495Y-81495702D01*
X149669532Y-81525807D01*
X149883298Y-81610443D01*
X150189025Y-81688940D01*
X150502179Y-81728500D01*
X150817821Y-81728500D01*
X151130975Y-81688940D01*
X151436702Y-81610443D01*
X151650468Y-81525807D01*
X151726505Y-81495702D01*
X151726510Y-81495700D01*
X151730179Y-81494247D01*
X152006779Y-81342184D01*
X152262140Y-81156654D01*
X152492233Y-80940582D01*
X152693432Y-80697375D01*
X152862562Y-80430869D01*
X152864246Y-80427290D01*
X152864250Y-80427283D01*
X152995267Y-80148856D01*
X152995269Y-80148852D01*
X152996956Y-80145266D01*
X153012065Y-80098767D01*
X153093268Y-79848848D01*
X153094495Y-79845072D01*
X153153641Y-79535020D01*
X153173460Y-79220000D01*
X153153641Y-78904980D01*
X153094495Y-78594928D01*
X152996956Y-78294734D01*
X152995267Y-78291144D01*
X152864250Y-78012717D01*
X152864246Y-78012710D01*
X152862562Y-78009131D01*
X152693432Y-77742625D01*
X152561153Y-77582728D01*
X152494758Y-77502470D01*
X152494757Y-77502469D01*
X152492233Y-77499418D01*
X152262140Y-77283346D01*
X152247014Y-77272356D01*
X152213079Y-77247701D01*
X152169725Y-77191479D01*
X152163650Y-77120742D01*
X152196782Y-77057951D01*
X152258602Y-77023039D01*
X152294741Y-77019995D01*
X152698941Y-77044426D01*
G37*
%TD.AperFunction*%
%TD*%
M02*
