%TF.GenerationSoftware,KiCad,Pcbnew,(6.0.7)*%
%TF.CreationDate,2022-11-23T15:41:05-06:00*%
%TF.ProjectId,LLK,4c4c4b2e-6b69-4636-9164-5f7063625858,rev?*%
%TF.SameCoordinates,Original*%
%TF.FileFunction,Legend,Bot*%
%TF.FilePolarity,Positive*%
%FSLAX46Y46*%
G04 Gerber Fmt 4.6, Leading zero omitted, Abs format (unit mm)*
G04 Created by KiCad (PCBNEW (6.0.7)) date 2022-11-23 15:41:05*
%MOMM*%
%LPD*%
G01*
G04 APERTURE LIST*
%ADD10C,0.150000*%
%ADD11C,0.120000*%
G04 APERTURE END LIST*
D10*
%TO.C,BT1*%
X162885952Y-88118228D02*
X162124047Y-88118228D01*
X162505000Y-88499180D02*
X162505000Y-87737276D01*
X138578152Y-88118228D02*
X137816247Y-88118228D01*
X138197200Y-88499180D02*
X138197200Y-87737276D01*
X153056190Y-103627142D02*
X153103809Y-103674761D01*
X153246666Y-103722380D01*
X153341904Y-103722380D01*
X153484761Y-103674761D01*
X153580000Y-103579523D01*
X153627619Y-103484285D01*
X153675238Y-103293809D01*
X153675238Y-103150952D01*
X153627619Y-102960476D01*
X153580000Y-102865238D01*
X153484761Y-102770000D01*
X153341904Y-102722380D01*
X153246666Y-102722380D01*
X153103809Y-102770000D01*
X153056190Y-102817619D01*
X152056190Y-103722380D02*
X152389523Y-103246190D01*
X152627619Y-103722380D02*
X152627619Y-102722380D01*
X152246666Y-102722380D01*
X152151428Y-102770000D01*
X152103809Y-102817619D01*
X152056190Y-102912857D01*
X152056190Y-103055714D01*
X152103809Y-103150952D01*
X152151428Y-103198571D01*
X152246666Y-103246190D01*
X152627619Y-103246190D01*
X151865714Y-103817619D02*
X151103809Y-103817619D01*
X150913333Y-102817619D02*
X150865714Y-102770000D01*
X150770476Y-102722380D01*
X150532380Y-102722380D01*
X150437142Y-102770000D01*
X150389523Y-102817619D01*
X150341904Y-102912857D01*
X150341904Y-103008095D01*
X150389523Y-103150952D01*
X150960952Y-103722380D01*
X150341904Y-103722380D01*
X149722857Y-102722380D02*
X149627619Y-102722380D01*
X149532380Y-102770000D01*
X149484761Y-102817619D01*
X149437142Y-102912857D01*
X149389523Y-103103333D01*
X149389523Y-103341428D01*
X149437142Y-103531904D01*
X149484761Y-103627142D01*
X149532380Y-103674761D01*
X149627619Y-103722380D01*
X149722857Y-103722380D01*
X149818095Y-103674761D01*
X149865714Y-103627142D01*
X149913333Y-103531904D01*
X149960952Y-103341428D01*
X149960952Y-103103333D01*
X149913333Y-102912857D01*
X149865714Y-102817619D01*
X149818095Y-102770000D01*
X149722857Y-102722380D01*
X149056190Y-102722380D02*
X148437142Y-102722380D01*
X148770476Y-103103333D01*
X148627619Y-103103333D01*
X148532380Y-103150952D01*
X148484761Y-103198571D01*
X148437142Y-103293809D01*
X148437142Y-103531904D01*
X148484761Y-103627142D01*
X148532380Y-103674761D01*
X148627619Y-103722380D01*
X148913333Y-103722380D01*
X149008571Y-103674761D01*
X149056190Y-103627142D01*
X148056190Y-102817619D02*
X148008571Y-102770000D01*
X147913333Y-102722380D01*
X147675238Y-102722380D01*
X147580000Y-102770000D01*
X147532380Y-102817619D01*
X147484761Y-102912857D01*
X147484761Y-103008095D01*
X147532380Y-103150952D01*
X148103809Y-103722380D01*
X147484761Y-103722380D01*
%TO.C,ON/OFF*%
X159606371Y-114870507D02*
X159511133Y-115035464D01*
X159504753Y-115141752D01*
X159539613Y-115271850D01*
X159680761Y-115408327D01*
X159969436Y-115574994D01*
X160158203Y-115628993D01*
X160288300Y-115594133D01*
X160377159Y-115535464D01*
X160472397Y-115370507D01*
X160478776Y-115264219D01*
X160443917Y-115134121D01*
X160302769Y-114997644D01*
X160014094Y-114830977D01*
X159825327Y-114776978D01*
X159695230Y-114811838D01*
X159606371Y-114870507D01*
X160043825Y-116112814D02*
X159177800Y-115612814D01*
X159758111Y-116607686D01*
X158892086Y-116107686D01*
X158255608Y-117114859D02*
X159797641Y-117015409D01*
X158034943Y-117592301D02*
X157939705Y-117757258D01*
X157933325Y-117863546D01*
X157968184Y-117993644D01*
X158109332Y-118130121D01*
X158398007Y-118296788D01*
X158586774Y-118350787D01*
X158716872Y-118315927D01*
X158805730Y-118257258D01*
X158900968Y-118092301D01*
X158907348Y-117986013D01*
X158872488Y-117855915D01*
X158731341Y-117719438D01*
X158442665Y-117552771D01*
X158253899Y-117498772D01*
X158123801Y-117533632D01*
X158034943Y-117592301D01*
X157852098Y-118861379D02*
X158018764Y-118572704D01*
X158472397Y-118834608D02*
X157606371Y-118334608D01*
X157368276Y-118747001D01*
X157423526Y-119603686D02*
X157590193Y-119315011D01*
X158043825Y-119576916D02*
X157177800Y-119076916D01*
X156939705Y-119489309D01*
D11*
%TO.C,D1*%
X137973621Y-101931252D02*
X138332831Y-101572042D01*
X136104596Y-99561596D02*
X136445846Y-99902845D01*
X138404673Y-100530332D02*
X137650332Y-101284673D01*
X137650332Y-101284673D02*
X136985793Y-99865793D01*
X141232252Y-102839460D02*
X141333934Y-102941142D01*
X137973621Y-101572042D02*
X138314871Y-101913291D01*
X136554741Y-100260924D02*
X137380924Y-99434741D01*
X136985793Y-99829872D02*
X138404673Y-100530332D01*
X136985793Y-99829872D02*
X136554741Y-99398820D01*
X138045463Y-100925463D02*
X138548358Y-101428358D01*
X142816329Y-104454982D02*
G75*
G03*
X141333934Y-102941142I-1376328J134983D01*
G01*
X140063672Y-104185018D02*
G75*
G03*
X141546066Y-105698858I1376328J-134982D01*
G01*
%TO.C,D2*%
X163592682Y-100760090D02*
X165011562Y-100095551D01*
X162037895Y-104342010D02*
X161936213Y-104443692D01*
X163951892Y-101155221D02*
X163448997Y-101658116D01*
X165047483Y-100095551D02*
X164347023Y-101514431D01*
X165047483Y-100095551D02*
X165478535Y-99664499D01*
X164616431Y-99664499D02*
X165442614Y-100490682D01*
X162946103Y-101083379D02*
X163305313Y-101442589D01*
X163305313Y-101083379D02*
X162964064Y-101424629D01*
X165315759Y-99214354D02*
X164974510Y-99555604D01*
X164347023Y-101514431D02*
X163592682Y-100760090D01*
X160422373Y-105926087D02*
G75*
G03*
X161936213Y-104443692I134983J1376328D01*
G01*
X160692337Y-103173430D02*
G75*
G03*
X159178497Y-104655824I-134982J-1376328D01*
G01*
%TO.C,kibuzzard-637E6C8C*%
G36*
X136789014Y-109852785D02*
G01*
X136883307Y-110059331D01*
X136866189Y-110180845D01*
X136787891Y-110293941D01*
X136674516Y-110371395D01*
X136552160Y-110385988D01*
X136351227Y-110295063D01*
X136259179Y-110090762D01*
X136273211Y-109965600D01*
X136351227Y-109850540D01*
X136464602Y-109771963D01*
X136584714Y-109756248D01*
X136789014Y-109852785D01*
G37*
G36*
X145390978Y-118378416D02*
G01*
X145476289Y-118582717D01*
X145421286Y-118781405D01*
X145138407Y-118498527D01*
X145124937Y-118341372D01*
X145247293Y-118297594D01*
X145390978Y-118378416D01*
G37*
G36*
X140548821Y-119249341D02*
G01*
X140641721Y-119452835D01*
X140624856Y-119572553D01*
X140547716Y-119683976D01*
X140436016Y-119760287D01*
X140315468Y-119774664D01*
X140117504Y-119685082D01*
X140026817Y-119483800D01*
X140040641Y-119360488D01*
X140117505Y-119247129D01*
X140229204Y-119169713D01*
X140347541Y-119154229D01*
X140548821Y-119249341D01*
G37*
G36*
X142026749Y-115144401D02*
G01*
X142106449Y-115349825D01*
X142023381Y-115538410D01*
X141834796Y-115616988D01*
X141636108Y-115539532D01*
X141555285Y-115337477D01*
X141631617Y-115144401D01*
X141821325Y-115062457D01*
X142026749Y-115144401D01*
G37*
G36*
X139708720Y-112821883D02*
G01*
X139789543Y-113028429D01*
X139707598Y-113220381D01*
X139515644Y-113295591D01*
X139314711Y-113213646D01*
X139237257Y-113014958D01*
X139315834Y-112826373D01*
X139504420Y-112743306D01*
X139708720Y-112821883D01*
G37*
G36*
X136558580Y-115259099D02*
G01*
X136651479Y-115462593D01*
X136634613Y-115582310D01*
X136557474Y-115693734D01*
X136445773Y-115770044D01*
X136325226Y-115784421D01*
X136127262Y-115694840D01*
X136036575Y-115493559D01*
X136050399Y-115370246D01*
X136127263Y-115256887D01*
X136238962Y-115179471D01*
X136357299Y-115163987D01*
X136558580Y-115259099D01*
G37*
G36*
X137870229Y-116623832D02*
G01*
X137950962Y-116826220D01*
X137870229Y-117013124D01*
X137680006Y-117088328D01*
X137480937Y-117008700D01*
X137404626Y-116812948D01*
X137482043Y-116627150D01*
X137667841Y-116545311D01*
X137870229Y-116623832D01*
G37*
G36*
X143370420Y-116357859D02*
G01*
X143455732Y-116562159D01*
X143400728Y-116760847D01*
X143117850Y-116477969D01*
X143104379Y-116320815D01*
X143226736Y-116277036D01*
X143370420Y-116357859D01*
G37*
G36*
X149288000Y-119783244D02*
G01*
X149407947Y-119922295D01*
X149520926Y-120067064D01*
X149626665Y-120217203D01*
X149724911Y-120372349D01*
X149815425Y-120532129D01*
X149897990Y-120696158D01*
X149972407Y-120864041D01*
X150038497Y-121035372D01*
X150096101Y-121209740D01*
X150145079Y-121386725D01*
X150185314Y-121565900D01*
X150216709Y-121746833D01*
X150239188Y-121929089D01*
X150252697Y-122112229D01*
X150257204Y-122295810D01*
X150252697Y-122479391D01*
X150239188Y-122662531D01*
X150216709Y-122844786D01*
X150185314Y-123025720D01*
X150145079Y-123204895D01*
X150096101Y-123381879D01*
X150038497Y-123556247D01*
X149972407Y-123727580D01*
X149897991Y-123895462D01*
X149815425Y-124059491D01*
X149724911Y-124219270D01*
X149626665Y-124374417D01*
X149520926Y-124524555D01*
X149407947Y-124669325D01*
X149288000Y-124808377D01*
X149161375Y-124941375D01*
X149028377Y-125068000D01*
X148889325Y-125187947D01*
X148744555Y-125300926D01*
X148594417Y-125406665D01*
X148439270Y-125504911D01*
X148279491Y-125595425D01*
X148115462Y-125677991D01*
X147947580Y-125752407D01*
X147776247Y-125818497D01*
X147601879Y-125876101D01*
X147424895Y-125925079D01*
X147245720Y-125965314D01*
X147064786Y-125996709D01*
X146882531Y-126019188D01*
X146699391Y-126032697D01*
X146515810Y-126037204D01*
X146332229Y-126032697D01*
X146149089Y-126019188D01*
X145966833Y-125996709D01*
X145785900Y-125965314D01*
X145606725Y-125925079D01*
X145429740Y-125876101D01*
X145255372Y-125818497D01*
X145084041Y-125752407D01*
X144916158Y-125677990D01*
X144752129Y-125595425D01*
X144592349Y-125504911D01*
X144437203Y-125406665D01*
X144287064Y-125300926D01*
X144142295Y-125187947D01*
X144003244Y-125068000D01*
X143870245Y-124941375D01*
X139726531Y-120797661D01*
X140535551Y-120797661D01*
X140628450Y-120934798D01*
X141424729Y-121731076D01*
X141568502Y-121832823D01*
X141690155Y-121828399D01*
X141816232Y-121728864D01*
X143046041Y-120499056D01*
X143119033Y-120419428D01*
X143156635Y-120339800D01*
X143142811Y-120236395D01*
X143043829Y-120107552D01*
X142900057Y-120004700D01*
X142778403Y-120005806D01*
X142652325Y-120109764D01*
X141555230Y-121206859D01*
X140953598Y-120605226D01*
X140830837Y-120515645D01*
X140734620Y-120523387D01*
X140629556Y-120606332D01*
X140546609Y-120711397D01*
X140535551Y-120797661D01*
X139726531Y-120797661D01*
X138439489Y-119510619D01*
X139471910Y-119510619D01*
X139511448Y-119722684D01*
X139599370Y-119911800D01*
X139726000Y-120072162D01*
X139887745Y-120197963D01*
X140081009Y-120283397D01*
X140296391Y-120320723D01*
X140524491Y-120302199D01*
X140744574Y-120223123D01*
X140935902Y-120078797D01*
X141081886Y-119891525D01*
X141104549Y-119835463D01*
X145492005Y-119835463D01*
X145506598Y-119962309D01*
X145536907Y-120086910D01*
X145630077Y-120296823D01*
X145715670Y-120436298D01*
X145815295Y-120553883D01*
X145929512Y-120654069D01*
X146058884Y-120741347D01*
X146207058Y-120814310D01*
X146377683Y-120871560D01*
X146560937Y-120907761D01*
X146746996Y-120917584D01*
X146939791Y-120892607D01*
X147143250Y-120824414D01*
X147343622Y-120713283D01*
X147527156Y-120559496D01*
X147679539Y-120377927D01*
X147786460Y-120183448D01*
X147850164Y-119986724D01*
X147872895Y-119798420D01*
X147861109Y-119615447D01*
X147821259Y-119434719D01*
X147741684Y-119220440D01*
X147634669Y-119032602D01*
X147500215Y-118871207D01*
X147385716Y-118772986D01*
X147253258Y-118689358D01*
X147022016Y-118590574D01*
X146936704Y-118568124D01*
X146833431Y-118545673D01*
X146668418Y-118593942D01*
X146590964Y-118765689D01*
X146583106Y-118939682D01*
X146626885Y-119044077D01*
X146790775Y-119109184D01*
X146958032Y-119161944D01*
X147118554Y-119284299D01*
X147238104Y-119454363D01*
X147304894Y-119672695D01*
X147277954Y-119924143D01*
X147215933Y-120053515D01*
X147119676Y-120172222D01*
X147000968Y-120268479D01*
X146871597Y-120330499D01*
X146615660Y-120357440D01*
X146401817Y-120291772D01*
X146231754Y-120171100D01*
X146118378Y-120021803D01*
X146065619Y-119897202D01*
X146054394Y-119827605D01*
X145991532Y-119674940D01*
X145887697Y-119633968D01*
X145715389Y-119650245D01*
X145540274Y-119726577D01*
X145492005Y-119835463D01*
X141104549Y-119835463D01*
X141165937Y-119683607D01*
X141188056Y-119455046D01*
X141154141Y-119229434D01*
X141070089Y-119030364D01*
X140935901Y-118857837D01*
X140763744Y-118723772D01*
X140699592Y-118696654D01*
X144169381Y-118696654D01*
X144196603Y-118848757D01*
X144308576Y-119035659D01*
X144505299Y-119257359D01*
X144676485Y-119399920D01*
X144857774Y-119495336D01*
X145039063Y-119543604D01*
X145210250Y-119544727D01*
X145414800Y-119497331D01*
X145597398Y-119409025D01*
X145758045Y-119279809D01*
X145913703Y-119083491D01*
X146003506Y-118871707D01*
X146027453Y-118644457D01*
X145989536Y-118418204D01*
X145893747Y-118209413D01*
X145740085Y-118018083D01*
X145580685Y-117886186D01*
X145414550Y-117802558D01*
X145241680Y-117767197D01*
X145062075Y-117780106D01*
X144882751Y-117844933D01*
X144730928Y-117958589D01*
X144627936Y-118095818D01*
X144595102Y-118231365D01*
X144680414Y-118449135D01*
X145212495Y-118981216D01*
X145032889Y-119012647D01*
X144842059Y-118907129D01*
X144732612Y-118784211D01*
X144664699Y-118675887D01*
X144648984Y-118642211D01*
X144583877Y-118527713D01*
X144359370Y-118505262D01*
X144226911Y-118579349D01*
X144169381Y-118696654D01*
X140699592Y-118696654D01*
X140565779Y-118640089D01*
X140342010Y-118606788D01*
X140115292Y-118629521D01*
X139908481Y-118713942D01*
X139721577Y-118860049D01*
X139571998Y-119057184D01*
X139490434Y-119281413D01*
X139471910Y-119510619D01*
X138439489Y-119510619D01*
X137025818Y-118096948D01*
X137914466Y-118096948D01*
X137928290Y-118200354D01*
X138027272Y-118329196D01*
X138171598Y-118432602D01*
X138290487Y-118428731D01*
X138416564Y-118329196D01*
X138805856Y-117939904D01*
X138999396Y-117850323D01*
X139189619Y-117938798D01*
X139278094Y-118133444D01*
X139192936Y-118326984D01*
X138801432Y-118718488D01*
X138728440Y-118798116D01*
X138693050Y-118875532D01*
X138705215Y-118977279D01*
X138803644Y-119105568D01*
X138930827Y-119202891D01*
X139033680Y-119216162D01*
X139111096Y-119176349D01*
X139190724Y-119103356D01*
X139973732Y-118320349D01*
X140044512Y-118242933D01*
X140079902Y-118165517D01*
X140063313Y-118065982D01*
X139978594Y-117957466D01*
X143308680Y-117957466D01*
X143383890Y-118079823D01*
X143573598Y-118249325D01*
X143756009Y-118352037D01*
X143912603Y-118359333D01*
X144102310Y-118263918D01*
X144325694Y-118071965D01*
X145394345Y-117003314D01*
X145468432Y-116922493D01*
X145508843Y-116843915D01*
X145494812Y-116738958D01*
X145394345Y-116608183D01*
X145268060Y-116512207D01*
X145163103Y-116498175D01*
X145081159Y-116537464D01*
X144999214Y-116612673D01*
X143959749Y-117652138D01*
X143844128Y-117740818D01*
X143763306Y-117702652D01*
X143698199Y-117644280D01*
X143640950Y-117625197D01*
X143436649Y-117739695D01*
X143333937Y-117864857D01*
X143308680Y-117957466D01*
X139978594Y-117957466D01*
X139964884Y-117939905D01*
X139843231Y-117843687D01*
X139748120Y-117824886D01*
X139635313Y-117893455D01*
X139639737Y-117809403D01*
X139626466Y-117703232D01*
X139511448Y-117486468D01*
X139353421Y-117366042D01*
X139174258Y-117299686D01*
X138973959Y-117287398D01*
X138771203Y-117326720D01*
X138584667Y-117415195D01*
X138414352Y-117552824D01*
X138025060Y-117942116D01*
X137952068Y-118021744D01*
X137914466Y-118096948D01*
X137025818Y-118096948D01*
X135705322Y-116776452D01*
X136593970Y-116776452D01*
X136612494Y-116884558D01*
X136721154Y-117023078D01*
X136867968Y-117115700D01*
X137000958Y-117086116D01*
X137032477Y-117276892D01*
X137153577Y-117451078D01*
X137301651Y-117560566D01*
X137480445Y-117623605D01*
X137689960Y-117640194D01*
X137903038Y-117608982D01*
X138092523Y-117528617D01*
X138258415Y-117399098D01*
X138387933Y-117232961D01*
X138468298Y-117042738D01*
X138499510Y-116828432D01*
X138487683Y-116676096D01*
X142148824Y-116676096D01*
X142176046Y-116828199D01*
X142288018Y-117015101D01*
X142484742Y-117236801D01*
X142655927Y-117379363D01*
X142837217Y-117474778D01*
X143018506Y-117523046D01*
X143189692Y-117524169D01*
X143394242Y-117476773D01*
X143576841Y-117388468D01*
X143737488Y-117259252D01*
X143893146Y-117062933D01*
X143982948Y-116851149D01*
X144006895Y-116623899D01*
X143968979Y-116397646D01*
X143873189Y-116188855D01*
X143719527Y-115997526D01*
X143560127Y-115865628D01*
X143393993Y-115782000D01*
X143221123Y-115746640D01*
X143041518Y-115759549D01*
X142862193Y-115824376D01*
X142710370Y-115938032D01*
X142607378Y-116075261D01*
X142574544Y-116210807D01*
X142659857Y-116428578D01*
X143191937Y-116960658D01*
X143012332Y-116992089D01*
X142821501Y-116886571D01*
X142712055Y-116763654D01*
X142644141Y-116655329D01*
X142628426Y-116621653D01*
X142563319Y-116507155D01*
X142338813Y-116484704D01*
X142206354Y-116558792D01*
X142148824Y-116676096D01*
X138487683Y-116676096D01*
X138483167Y-116617934D01*
X138420865Y-116439140D01*
X138312605Y-116292050D01*
X138139525Y-116174267D01*
X137947644Y-116148277D01*
X138412140Y-115683781D01*
X138485133Y-115604153D01*
X138522735Y-115526737D01*
X138509463Y-115422779D01*
X138434322Y-115327374D01*
X140995141Y-115327374D01*
X141010732Y-115538784D01*
X141070975Y-115716518D01*
X141175869Y-115860577D01*
X141366138Y-115996964D01*
X141555285Y-116024466D01*
X141530029Y-116164222D01*
X141638353Y-116327550D01*
X141767443Y-116426333D01*
X141871839Y-116439803D01*
X141950417Y-116399393D01*
X142031239Y-116325305D01*
X143371542Y-114985002D01*
X143445629Y-114904180D01*
X143483795Y-114827847D01*
X143469764Y-114722891D01*
X143369297Y-114592115D01*
X143240768Y-114493894D01*
X143138055Y-114482107D01*
X143057233Y-114520274D01*
X142976411Y-114594361D01*
X142509438Y-115061334D01*
X142483058Y-114869943D01*
X142363508Y-114695388D01*
X142214211Y-114585505D01*
X142032736Y-114522270D01*
X141819081Y-114505681D01*
X141601558Y-114537361D01*
X141408483Y-114618932D01*
X141239853Y-114750393D01*
X141108393Y-114918773D01*
X141026822Y-115111099D01*
X140995141Y-115327374D01*
X138434322Y-115327374D01*
X138411035Y-115297807D01*
X138286063Y-115199378D01*
X138180999Y-115187212D01*
X138102477Y-115225920D01*
X138022849Y-115298913D01*
X136702353Y-116619408D01*
X136629360Y-116699036D01*
X136593970Y-116776452D01*
X135705322Y-116776452D01*
X134449248Y-115520378D01*
X135481669Y-115520378D01*
X135521206Y-115732442D01*
X135609128Y-115921558D01*
X135735758Y-116081920D01*
X135897503Y-116207721D01*
X136090766Y-116293155D01*
X136306149Y-116330481D01*
X136534249Y-116311957D01*
X136754332Y-116232881D01*
X136945660Y-116088556D01*
X137091645Y-115901283D01*
X137175696Y-115693366D01*
X137197815Y-115464804D01*
X137163899Y-115239192D01*
X137079847Y-115040122D01*
X136945660Y-114867595D01*
X136816777Y-114767230D01*
X140190286Y-114767230D01*
X140207124Y-114871626D01*
X140307030Y-115000717D01*
X140500105Y-115117460D01*
X140637054Y-115061334D01*
X141490178Y-114208210D01*
X141564266Y-114127388D01*
X141602432Y-114051055D01*
X141588401Y-113946098D01*
X141487933Y-113815323D01*
X141365578Y-113718786D01*
X141267917Y-113698580D01*
X141169134Y-113747971D01*
X141174747Y-113677252D01*
X141144439Y-113525710D01*
X141060249Y-113365188D01*
X140965956Y-113282121D01*
X140868296Y-113222626D01*
X140751552Y-113197931D01*
X140619094Y-113274263D01*
X140504595Y-113474074D01*
X140542761Y-113682865D01*
X140638177Y-113742359D01*
X140753797Y-113822058D01*
X140824517Y-113978091D01*
X140774003Y-114134122D01*
X140302540Y-114605586D01*
X140228452Y-114686409D01*
X140190286Y-114767230D01*
X136816777Y-114767230D01*
X136773502Y-114733530D01*
X136575537Y-114649847D01*
X136351769Y-114616546D01*
X136125050Y-114639279D01*
X135918239Y-114723700D01*
X135731335Y-114869807D01*
X135581755Y-115066941D01*
X135500193Y-115291171D01*
X135481669Y-115520378D01*
X134449248Y-115520378D01*
X133035576Y-114106706D01*
X133924224Y-114106706D01*
X133938048Y-114210112D01*
X134037030Y-114338954D01*
X134181356Y-114442359D01*
X134300245Y-114438489D01*
X134426322Y-114338954D01*
X134815614Y-113949662D01*
X135009154Y-113860081D01*
X135199377Y-113948556D01*
X135287852Y-114143202D01*
X135202695Y-114336742D01*
X134811191Y-114728246D01*
X134738198Y-114807874D01*
X134702808Y-114885290D01*
X134714973Y-114987037D01*
X134813403Y-115115326D01*
X134940586Y-115212650D01*
X135043439Y-115225921D01*
X135120854Y-115186106D01*
X135200482Y-115113114D01*
X135983490Y-114330106D01*
X136054270Y-114252691D01*
X136089660Y-114175275D01*
X136073071Y-114075739D01*
X135974642Y-113949662D01*
X135852989Y-113853446D01*
X135757878Y-113834644D01*
X135645071Y-113903213D01*
X135649495Y-113819161D01*
X135636224Y-113712990D01*
X135521205Y-113496226D01*
X135363179Y-113375801D01*
X135184016Y-113309444D01*
X134983717Y-113297156D01*
X134780961Y-113336478D01*
X134594426Y-113424954D01*
X134424111Y-113562582D01*
X134034819Y-113951874D01*
X133961826Y-114031502D01*
X133924224Y-114106706D01*
X133035576Y-114106706D01*
X131900049Y-112971179D01*
X138403215Y-112971179D01*
X138413599Y-113069121D01*
X138498631Y-113183338D01*
X138692829Y-113316920D01*
X138829778Y-113276508D01*
X138851387Y-113476599D01*
X138988055Y-113672762D01*
X139134109Y-113779403D01*
X139313340Y-113840393D01*
X139525747Y-113855734D01*
X139742645Y-113823431D01*
X139935348Y-113741486D01*
X140103851Y-113609900D01*
X140235188Y-113441395D01*
X140316384Y-113248694D01*
X140347441Y-113031797D01*
X140330229Y-112818764D01*
X140266619Y-112637662D01*
X140156610Y-112488490D01*
X139990476Y-112376237D01*
X139852404Y-112339194D01*
X139765969Y-112344806D01*
X139809187Y-112199439D01*
X139714333Y-112041723D01*
X139570649Y-111924979D01*
X139464009Y-111912632D01*
X139384308Y-111951921D01*
X139303486Y-112026007D01*
X138517714Y-112811780D01*
X138443627Y-112892603D01*
X138403215Y-112971179D01*
X131900049Y-112971179D01*
X130977328Y-112048458D01*
X137399672Y-112048458D01*
X137440083Y-112127036D01*
X137511925Y-112205612D01*
X137666834Y-112337074D01*
X137820247Y-112420141D01*
X137972163Y-112454814D01*
X138126075Y-112435607D01*
X138285474Y-112357029D01*
X138450362Y-112219083D01*
X138782631Y-111886813D01*
X138867944Y-111985596D01*
X138988055Y-112029375D01*
X139150822Y-111931715D01*
X139273177Y-111786908D01*
X139301241Y-111695983D01*
X139240624Y-111576994D01*
X139157557Y-111511888D01*
X139388799Y-111280646D01*
X139461763Y-111200947D01*
X139494317Y-111125737D01*
X139478601Y-111025832D01*
X139377573Y-110896740D01*
X139235011Y-110795712D01*
X139112656Y-110797957D01*
X138986932Y-110901230D01*
X138766916Y-111121246D01*
X138626600Y-110962970D01*
X138546899Y-110890006D01*
X138466077Y-110851839D01*
X138364489Y-110865871D01*
X138234836Y-110966337D01*
X138136053Y-111095428D01*
X138122582Y-111199824D01*
X138162994Y-111278402D01*
X138237081Y-111359223D01*
X138391990Y-111496172D01*
X138082171Y-111805991D01*
X137975531Y-111874466D01*
X137876748Y-111829565D01*
X137792558Y-111752110D01*
X137711736Y-111713943D01*
X137509680Y-111812726D01*
X137411459Y-111942378D01*
X137399672Y-112048458D01*
X130977328Y-112048458D01*
X130478625Y-111549755D01*
X130352000Y-111416756D01*
X130335294Y-111397389D01*
X136820445Y-111397389D01*
X136834476Y-111498979D01*
X136934944Y-111628631D01*
X137064034Y-111727414D01*
X137168430Y-111740884D01*
X137245885Y-111701596D01*
X137327830Y-111626386D01*
X138115847Y-110838368D01*
X138189934Y-110757547D01*
X138230345Y-110678969D01*
X138214630Y-110575697D01*
X138113602Y-110445482D01*
X137922772Y-110330984D01*
X137785823Y-110387111D01*
X137718471Y-110449972D01*
X136932698Y-111235745D01*
X136858611Y-111316568D01*
X136820445Y-111397389D01*
X130335294Y-111397389D01*
X130232053Y-111277705D01*
X130119074Y-111132936D01*
X130013335Y-110982797D01*
X129915089Y-110827651D01*
X129824575Y-110667872D01*
X129742010Y-110503842D01*
X129667593Y-110335959D01*
X129601503Y-110164628D01*
X129586094Y-110117984D01*
X135695948Y-110117984D01*
X135736079Y-110333230D01*
X135825320Y-110525182D01*
X135953851Y-110687949D01*
X136118021Y-110815637D01*
X136314183Y-110902353D01*
X136532796Y-110940238D01*
X136764319Y-110921436D01*
X136987703Y-110841175D01*
X137181901Y-110694684D01*
X137330075Y-110504603D01*
X137415387Y-110293567D01*
X137437838Y-110061576D01*
X137436488Y-110052597D01*
X138162994Y-110052597D01*
X138176464Y-110158114D01*
X138276370Y-110284960D01*
X138403215Y-110384865D01*
X138509856Y-110397214D01*
X138589556Y-110357925D01*
X138670378Y-110283838D01*
X138744465Y-110203016D01*
X138782631Y-110126683D01*
X138768600Y-110021727D01*
X138668133Y-109890951D01*
X138539604Y-109792730D01*
X138436891Y-109780943D01*
X138356069Y-109819110D01*
X138275247Y-109893196D01*
X138201160Y-109974019D01*
X138162994Y-110052597D01*
X137436488Y-110052597D01*
X137403413Y-109832580D01*
X137318101Y-109630524D01*
X137181901Y-109455409D01*
X137007160Y-109319333D01*
X136806227Y-109234395D01*
X136579101Y-109200595D01*
X136348982Y-109223668D01*
X136139069Y-109309355D01*
X135949360Y-109457654D01*
X135797538Y-109657745D01*
X135714751Y-109885339D01*
X135695948Y-110117984D01*
X129586094Y-110117984D01*
X129543899Y-109990260D01*
X129494921Y-109813275D01*
X129454686Y-109634100D01*
X129423291Y-109453167D01*
X129400812Y-109270911D01*
X129387303Y-109087771D01*
X129382796Y-108904190D01*
X129387303Y-108720609D01*
X129390069Y-108683107D01*
X134115143Y-108683107D01*
X134129175Y-108788064D01*
X134229641Y-108918839D01*
X134376132Y-109023795D01*
X134496804Y-109019867D01*
X134624773Y-108918839D01*
X135019904Y-108523707D01*
X135216347Y-108432783D01*
X135409423Y-108522585D01*
X135499225Y-108720151D01*
X135412790Y-108916594D01*
X135015414Y-109313970D01*
X134941327Y-109394793D01*
X134905406Y-109473369D01*
X134917753Y-109576642D01*
X135017659Y-109706856D01*
X135146750Y-109805639D01*
X135251145Y-109819109D01*
X135329723Y-109778699D01*
X135410545Y-109704611D01*
X136205298Y-108909858D01*
X136277140Y-108831282D01*
X136313061Y-108752704D01*
X136296222Y-108651676D01*
X136196317Y-108523707D01*
X136072839Y-108426047D01*
X135976301Y-108406964D01*
X135861803Y-108476561D01*
X135866293Y-108391249D01*
X135852823Y-108283486D01*
X135736079Y-108063469D01*
X135575681Y-107941238D01*
X135393832Y-107873886D01*
X135190529Y-107861414D01*
X134984731Y-107901326D01*
X134795398Y-107991129D01*
X134622528Y-108130821D01*
X134227396Y-108525952D01*
X134153309Y-108606775D01*
X134115143Y-108683107D01*
X129390069Y-108683107D01*
X129400812Y-108537469D01*
X129423291Y-108355214D01*
X129454686Y-108174280D01*
X129494921Y-107995105D01*
X129543899Y-107818121D01*
X129601503Y-107643753D01*
X129667592Y-107472421D01*
X129742010Y-107304539D01*
X129824575Y-107140509D01*
X129915089Y-106980730D01*
X130013335Y-106825583D01*
X130119074Y-106675445D01*
X130232053Y-106530675D01*
X130351999Y-106391623D01*
X130478625Y-106258625D01*
X130611623Y-106131999D01*
X130750675Y-106012053D01*
X130895445Y-105899074D01*
X131045583Y-105793335D01*
X131200730Y-105695089D01*
X131360509Y-105604575D01*
X131524539Y-105522010D01*
X131692421Y-105447592D01*
X131863753Y-105381503D01*
X132038121Y-105323899D01*
X132215105Y-105274921D01*
X132394280Y-105234686D01*
X132575214Y-105203291D01*
X132757469Y-105180812D01*
X132940609Y-105167303D01*
X133124190Y-105162796D01*
X133307771Y-105167303D01*
X133490911Y-105180812D01*
X133673167Y-105203291D01*
X133854100Y-105234686D01*
X134033275Y-105274921D01*
X134210260Y-105323899D01*
X134384628Y-105381503D01*
X134555959Y-105447593D01*
X134723842Y-105522010D01*
X134887872Y-105604575D01*
X135047651Y-105695089D01*
X135202797Y-105793335D01*
X135352936Y-105899074D01*
X135497705Y-106012053D01*
X135636756Y-106132000D01*
X135769755Y-106258625D01*
X149161375Y-119650245D01*
X149288000Y-119783244D01*
G37*
%TO.C,BT1*%
X139970000Y-96945000D02*
X141577090Y-96945000D01*
X160910000Y-87175000D02*
X159302910Y-87175000D01*
X160910000Y-95060000D02*
X160910000Y-96945000D01*
X139970000Y-95060000D02*
X139970000Y-96945000D01*
X139970000Y-87175000D02*
X141577090Y-87175000D01*
X160910000Y-89060000D02*
X160910000Y-87175000D01*
X160910000Y-96945000D02*
X159302910Y-96945000D01*
X139970000Y-89060000D02*
X139970000Y-87175000D01*
X159305021Y-87178832D02*
G75*
G03*
X141577090Y-87175000I-8865021J-4881167D01*
G01*
X141577090Y-96945000D02*
G75*
G03*
X159302910Y-96945000I8862910J4885000D01*
G01*
%TO.C,ON/OFF*%
X164255397Y-120353397D02*
X164537262Y-120285192D01*
X160488538Y-122277788D02*
X159804378Y-121882788D01*
X161420052Y-116984359D02*
X160570052Y-118456603D01*
X164905397Y-119227564D02*
X164987262Y-119505770D01*
X164255397Y-120353397D02*
X163138224Y-119708397D01*
X159920052Y-119582436D02*
X159820052Y-119755641D01*
X164513224Y-117326828D02*
X161663224Y-122263172D01*
X163788224Y-118582564D02*
X164905397Y-119227564D01*
X164987262Y-119505770D02*
X164537262Y-120285192D01*
X163254378Y-115907212D02*
X163938538Y-116302212D01*
%TD*%
M02*
