%TF.GenerationSoftware,KiCad,Pcbnew,(6.0.7)*%
%TF.CreationDate,2022-12-12T17:27:47-06:00*%
%TF.ProjectId,LLK,4c4c4b2e-6b69-4636-9164-5f7063625858,rev?*%
%TF.SameCoordinates,Original*%
%TF.FileFunction,Profile,NP*%
%FSLAX46Y46*%
G04 Gerber Fmt 4.6, Leading zero omitted, Abs format (unit mm)*
G04 Created by KiCad (PCBNEW (6.0.7)) date 2022-12-12 17:27:47*
%MOMM*%
%LPD*%
G01*
G04 APERTURE LIST*
%TA.AperFunction,Profile*%
%ADD10C,0.100000*%
%TD*%
G04 APERTURE END LIST*
D10*
X171620000Y-112020000D02*
X171810000Y-111780000D01*
X171430000Y-88290000D02*
X171560000Y-88790000D01*
X170940000Y-87230000D02*
X171190000Y-87720000D01*
X154040000Y-127890000D02*
X154230000Y-127730000D01*
X171580000Y-98610000D02*
X171590000Y-89290000D01*
X155150000Y-126190000D02*
X157210000Y-126180000D01*
X158510000Y-124470000D02*
X160770000Y-124370000D01*
X140260000Y-124540000D02*
X140490000Y-124620000D01*
X172130000Y-109950000D02*
X172200000Y-109840000D01*
X158230000Y-125710000D02*
X158390000Y-125440000D01*
X128690000Y-109680000D02*
X129300000Y-110010000D01*
X146770000Y-126610000D02*
X147410000Y-127920000D01*
X171900000Y-111510000D02*
X172020000Y-111170000D01*
X133070000Y-118430000D02*
X133280000Y-118630000D01*
X130400000Y-87550000D02*
X130170000Y-88060000D01*
X172390000Y-109710000D02*
X173110000Y-109100000D01*
X143130000Y-124830000D02*
X143260000Y-125600000D01*
X165240000Y-118610000D02*
X167360000Y-118540000D01*
X153770000Y-127970000D02*
X154040000Y-127890000D01*
X173040000Y-99870000D02*
X171580000Y-98610000D01*
X133620000Y-118850000D02*
X133920000Y-118980000D01*
X171190000Y-87720000D02*
X171430000Y-88290000D01*
X140490000Y-124620000D02*
X140740000Y-124680000D01*
X171360000Y-112140000D02*
X171620000Y-112020000D01*
X170660000Y-86770000D02*
X170940000Y-87230000D01*
X128330000Y-109320000D02*
X128690000Y-109680000D01*
X168520000Y-117830000D02*
X171210000Y-112260000D01*
X144200000Y-126400000D02*
X146770000Y-126610000D01*
X161840000Y-123950000D02*
X161950000Y-123770000D01*
X153540000Y-128020000D02*
X153770000Y-127970000D01*
X173110000Y-109100000D02*
X173040000Y-99870000D01*
X171810000Y-111780000D02*
X171900000Y-111510000D01*
X143430000Y-125850000D02*
X143660000Y-126090000D01*
X167710000Y-118490000D02*
X168070000Y-118370000D01*
X161950000Y-123770000D02*
X165240000Y-118610000D01*
X129550000Y-111550000D02*
X129710000Y-111960000D01*
X128340000Y-99130000D02*
X128330000Y-109320000D01*
X139880000Y-124270000D02*
X140050000Y-124410000D01*
X168350000Y-118110000D02*
X168520000Y-117830000D01*
X143660000Y-126090000D02*
X143870000Y-126260000D01*
X168070000Y-118370000D02*
X168350000Y-118110000D01*
X129980000Y-88890000D02*
X129800000Y-89800000D01*
X148180000Y-128020000D02*
X153540000Y-128020000D01*
X154480000Y-127490000D02*
X155150000Y-126190000D01*
X171560000Y-88790000D02*
X171590000Y-89290000D01*
X161570000Y-124150000D02*
X161840000Y-123950000D01*
X158390000Y-125440000D02*
X158510000Y-124470000D01*
X147410000Y-127920000D02*
X148180000Y-128020000D01*
X170660001Y-86769999D02*
G75*
G03*
X130400000Y-87550000I-19866621J-13984411D01*
G01*
X157650000Y-126050000D02*
X158040000Y-125910000D01*
X172200000Y-109840000D02*
X172390000Y-109710000D01*
X139690000Y-123970000D02*
X139880000Y-124270000D01*
X140740000Y-124680000D02*
X143130000Y-124830000D01*
X134240000Y-119060000D02*
X136370000Y-119050000D01*
X154230000Y-127730000D02*
X154480000Y-127490000D01*
X129710000Y-111960000D02*
X130090000Y-112320000D01*
X157210000Y-126180000D02*
X157650000Y-126050000D01*
X133920000Y-118980000D02*
X134240000Y-119060000D01*
X158040000Y-125910000D02*
X158230000Y-125710000D01*
X143870000Y-126260000D02*
X144200000Y-126400000D01*
X136370000Y-119050000D02*
X139690000Y-123970000D01*
X133280000Y-118630000D02*
X133620000Y-118850000D01*
X129300000Y-110010000D02*
X129460000Y-110540000D01*
X171210000Y-112260000D02*
X171360000Y-112140000D01*
X161180000Y-124310000D02*
X161570000Y-124150000D01*
X130090000Y-112320000D02*
X130280000Y-112530000D01*
X143310000Y-125730000D02*
X143430000Y-125850000D01*
X143260000Y-125600000D02*
X143310000Y-125730000D01*
X160770000Y-124370000D02*
X161180000Y-124310000D01*
X129460000Y-110540000D02*
X129550000Y-111550000D01*
X129780000Y-97900000D02*
X128340000Y-99130000D01*
X130170000Y-88060000D02*
X129980000Y-88890000D01*
X130280000Y-112530000D02*
X133070000Y-118430000D01*
X172020000Y-111170000D02*
X172130000Y-109950000D01*
X167360000Y-118540000D02*
X167710000Y-118490000D01*
X140050000Y-124410000D02*
X140260000Y-124540000D01*
X129800000Y-89800000D02*
X129780000Y-97900000D01*
M02*
