%TF.GenerationSoftware,KiCad,Pcbnew,(6.0.7)*%
%TF.CreationDate,2022-12-12T17:27:47-06:00*%
%TF.ProjectId,LLK,4c4c4b2e-6b69-4636-9164-5f7063625858,rev?*%
%TF.SameCoordinates,Original*%
%TF.FileFunction,Legend,Bot*%
%TF.FilePolarity,Positive*%
%FSLAX46Y46*%
G04 Gerber Fmt 4.6, Leading zero omitted, Abs format (unit mm)*
G04 Created by KiCad (PCBNEW (6.0.7)) date 2022-12-12 17:27:47*
%MOMM*%
%LPD*%
G01*
G04 APERTURE LIST*
%ADD10C,0.150000*%
%ADD11C,0.010000*%
%ADD12C,0.120000*%
G04 APERTURE END LIST*
D10*
%TO.C,BT1*%
X162885952Y-88118228D02*
X162124047Y-88118228D01*
X162505000Y-88499180D02*
X162505000Y-87737276D01*
X138578152Y-88118228D02*
X137816247Y-88118228D01*
X138197200Y-88499180D02*
X138197200Y-87737276D01*
X153056190Y-103627142D02*
X153103809Y-103674761D01*
X153246666Y-103722380D01*
X153341904Y-103722380D01*
X153484761Y-103674761D01*
X153580000Y-103579523D01*
X153627619Y-103484285D01*
X153675238Y-103293809D01*
X153675238Y-103150952D01*
X153627619Y-102960476D01*
X153580000Y-102865238D01*
X153484761Y-102770000D01*
X153341904Y-102722380D01*
X153246666Y-102722380D01*
X153103809Y-102770000D01*
X153056190Y-102817619D01*
X152056190Y-103722380D02*
X152389523Y-103246190D01*
X152627619Y-103722380D02*
X152627619Y-102722380D01*
X152246666Y-102722380D01*
X152151428Y-102770000D01*
X152103809Y-102817619D01*
X152056190Y-102912857D01*
X152056190Y-103055714D01*
X152103809Y-103150952D01*
X152151428Y-103198571D01*
X152246666Y-103246190D01*
X152627619Y-103246190D01*
X151865714Y-103817619D02*
X151103809Y-103817619D01*
X150913333Y-102817619D02*
X150865714Y-102770000D01*
X150770476Y-102722380D01*
X150532380Y-102722380D01*
X150437142Y-102770000D01*
X150389523Y-102817619D01*
X150341904Y-102912857D01*
X150341904Y-103008095D01*
X150389523Y-103150952D01*
X150960952Y-103722380D01*
X150341904Y-103722380D01*
X149722857Y-102722380D02*
X149627619Y-102722380D01*
X149532380Y-102770000D01*
X149484761Y-102817619D01*
X149437142Y-102912857D01*
X149389523Y-103103333D01*
X149389523Y-103341428D01*
X149437142Y-103531904D01*
X149484761Y-103627142D01*
X149532380Y-103674761D01*
X149627619Y-103722380D01*
X149722857Y-103722380D01*
X149818095Y-103674761D01*
X149865714Y-103627142D01*
X149913333Y-103531904D01*
X149960952Y-103341428D01*
X149960952Y-103103333D01*
X149913333Y-102912857D01*
X149865714Y-102817619D01*
X149818095Y-102770000D01*
X149722857Y-102722380D01*
X149056190Y-102722380D02*
X148437142Y-102722380D01*
X148770476Y-103103333D01*
X148627619Y-103103333D01*
X148532380Y-103150952D01*
X148484761Y-103198571D01*
X148437142Y-103293809D01*
X148437142Y-103531904D01*
X148484761Y-103627142D01*
X148532380Y-103674761D01*
X148627619Y-103722380D01*
X148913333Y-103722380D01*
X149008571Y-103674761D01*
X149056190Y-103627142D01*
X148056190Y-102817619D02*
X148008571Y-102770000D01*
X147913333Y-102722380D01*
X147675238Y-102722380D01*
X147580000Y-102770000D01*
X147532380Y-102817619D01*
X147484761Y-102912857D01*
X147484761Y-103008095D01*
X147532380Y-103150952D01*
X148103809Y-103722380D01*
X147484761Y-103722380D01*
%TO.C,ON/OFF*%
X159606371Y-114870507D02*
X159511133Y-115035464D01*
X159504753Y-115141752D01*
X159539613Y-115271850D01*
X159680761Y-115408327D01*
X159969436Y-115574994D01*
X160158203Y-115628993D01*
X160288300Y-115594133D01*
X160377159Y-115535464D01*
X160472397Y-115370507D01*
X160478776Y-115264219D01*
X160443917Y-115134121D01*
X160302769Y-114997644D01*
X160014094Y-114830977D01*
X159825327Y-114776978D01*
X159695230Y-114811838D01*
X159606371Y-114870507D01*
X160043825Y-116112814D02*
X159177800Y-115612814D01*
X159758111Y-116607686D01*
X158892086Y-116107686D01*
X158255608Y-117114859D02*
X159797641Y-117015409D01*
X158034943Y-117592301D02*
X157939705Y-117757258D01*
X157933325Y-117863546D01*
X157968184Y-117993644D01*
X158109332Y-118130121D01*
X158398007Y-118296788D01*
X158586774Y-118350787D01*
X158716872Y-118315927D01*
X158805730Y-118257258D01*
X158900968Y-118092301D01*
X158907348Y-117986013D01*
X158872488Y-117855915D01*
X158731341Y-117719438D01*
X158442665Y-117552771D01*
X158253899Y-117498772D01*
X158123801Y-117533632D01*
X158034943Y-117592301D01*
X157852098Y-118861379D02*
X158018764Y-118572704D01*
X158472397Y-118834608D02*
X157606371Y-118334608D01*
X157368276Y-118747001D01*
X157423526Y-119603686D02*
X157590193Y-119315011D01*
X158043825Y-119576916D02*
X157177800Y-119076916D01*
X156939705Y-119489309D01*
%TO.C,G\u002A\u002A\u002A*%
G36*
X167556240Y-105694745D02*
G01*
X167464127Y-105822896D01*
X167420429Y-105883692D01*
X167373997Y-105948291D01*
X167317870Y-106024142D01*
X167205708Y-106175720D01*
X167178802Y-106212082D01*
X167147497Y-106253205D01*
X167015135Y-106427085D01*
X166976493Y-106477848D01*
X166860128Y-106626154D01*
X166829306Y-106665437D01*
X166772905Y-106737320D01*
X166736220Y-106782462D01*
X166625074Y-106919231D01*
X166573877Y-106982231D01*
X166541574Y-107020522D01*
X166508403Y-107059843D01*
X166477909Y-107094736D01*
X166370073Y-107218133D01*
X166212778Y-107392646D01*
X166045406Y-107574077D01*
X165876849Y-107753124D01*
X165715993Y-107920480D01*
X165571730Y-108066843D01*
X165452948Y-108182907D01*
X165368536Y-108259368D01*
X165327383Y-108286923D01*
X165319411Y-108284246D01*
X165264649Y-108242223D01*
X165177258Y-108159790D01*
X165072070Y-108050670D01*
X165060415Y-108038201D01*
X164928077Y-107908775D01*
X164789761Y-107790912D01*
X164673594Y-107708747D01*
X164598683Y-107667317D01*
X164514379Y-107633055D01*
X164418452Y-107613664D01*
X164288739Y-107605040D01*
X164103077Y-107603077D01*
X163931043Y-107604597D01*
X163796975Y-107612515D01*
X163696041Y-107631400D01*
X163604765Y-107665810D01*
X163499675Y-107720308D01*
X163403294Y-107779780D01*
X163243504Y-107897289D01*
X163147907Y-107981360D01*
X163105472Y-108018679D01*
X163070863Y-108057789D01*
X162958119Y-108185197D01*
X162761168Y-108492052D01*
X162643574Y-108775385D01*
X162620607Y-108830724D01*
X162540618Y-109186357D01*
X162525380Y-109544093D01*
X162548666Y-109693692D01*
X162579077Y-109889077D01*
X162596176Y-109953236D01*
X162626215Y-110088091D01*
X162624580Y-110180039D01*
X162581792Y-110248702D01*
X162488374Y-110313699D01*
X162334846Y-110394651D01*
X162139029Y-110488658D01*
X162001404Y-110539921D01*
X161921229Y-110548032D01*
X161895231Y-110513880D01*
X161880208Y-110485376D01*
X161820822Y-110408650D01*
X161726784Y-110299684D01*
X161609361Y-110171956D01*
X161526328Y-110082810D01*
X161402857Y-109945545D01*
X161301480Y-109827297D01*
X161238363Y-109746602D01*
X161208489Y-109693692D01*
X161387231Y-109693692D01*
X161388366Y-109703033D01*
X161426308Y-109732769D01*
X161435648Y-109731634D01*
X161465384Y-109693692D01*
X161464249Y-109684352D01*
X161426308Y-109654616D01*
X161416967Y-109655751D01*
X161387231Y-109693692D01*
X161208489Y-109693692D01*
X161171315Y-109627852D01*
X161090473Y-109383632D01*
X161048132Y-109088918D01*
X161046729Y-108775385D01*
X161191846Y-108775385D01*
X161211384Y-108794923D01*
X161230923Y-108775385D01*
X161211384Y-108755846D01*
X161191846Y-108775385D01*
X161046729Y-108775385D01*
X161046642Y-108755846D01*
X161052182Y-108675005D01*
X161065475Y-108546164D01*
X161315989Y-108546164D01*
X161348154Y-108560462D01*
X161368841Y-108557642D01*
X161374205Y-108534410D01*
X161368478Y-108529734D01*
X161322102Y-108534410D01*
X161315989Y-108546164D01*
X161065475Y-108546164D01*
X161072425Y-108478802D01*
X161465384Y-108478802D01*
X161471285Y-108525783D01*
X161480287Y-108534410D01*
X161511062Y-108563907D01*
X161582915Y-108540666D01*
X161680473Y-108459066D01*
X161797368Y-108322112D01*
X161805326Y-108311602D01*
X161895656Y-108183199D01*
X161943523Y-108096812D01*
X161948123Y-108057789D01*
X161908651Y-108071480D01*
X161824300Y-108143234D01*
X161804888Y-108161319D01*
X161728009Y-108223411D01*
X161678169Y-108249146D01*
X161643735Y-108258060D01*
X161563487Y-108315061D01*
X161494619Y-108398806D01*
X161465384Y-108478802D01*
X161072425Y-108478802D01*
X161072705Y-108476089D01*
X161101170Y-108279463D01*
X161134556Y-108100234D01*
X161155444Y-108013385D01*
X161699846Y-108013385D01*
X161701074Y-108037358D01*
X161719199Y-108047506D01*
X161778000Y-108013385D01*
X161785485Y-108008489D01*
X161813482Y-107981360D01*
X161768231Y-107974906D01*
X161732066Y-107980541D01*
X161699846Y-108013385D01*
X161155444Y-108013385D01*
X161169845Y-107953509D01*
X161204017Y-107854395D01*
X161234055Y-107818000D01*
X161257054Y-107796462D01*
X161270000Y-107725558D01*
X161270696Y-107714962D01*
X161293943Y-107626219D01*
X161343513Y-107497404D01*
X161410371Y-107352531D01*
X161456353Y-107263275D01*
X161519697Y-107156539D01*
X161565178Y-107109144D01*
X161599581Y-107112481D01*
X161651359Y-107136000D01*
X161656345Y-107130555D01*
X163969222Y-107130555D01*
X163997399Y-107128477D01*
X164019876Y-107115729D01*
X165478102Y-107115729D01*
X165479789Y-107156109D01*
X165542528Y-107204524D01*
X165600263Y-107238746D01*
X165642177Y-107236905D01*
X165676559Y-107177670D01*
X165681918Y-107165479D01*
X165693927Y-107094736D01*
X165646690Y-107045577D01*
X165641787Y-107042577D01*
X165576027Y-107025390D01*
X165512658Y-107072431D01*
X165478102Y-107115729D01*
X164019876Y-107115729D01*
X164061209Y-107092286D01*
X164105742Y-107052850D01*
X164119701Y-107020522D01*
X164091523Y-107022600D01*
X164027714Y-107058791D01*
X163983181Y-107098228D01*
X163969222Y-107130555D01*
X161656345Y-107130555D01*
X161682522Y-107101971D01*
X161675840Y-107013035D01*
X161675088Y-107009728D01*
X161691849Y-106914083D01*
X161700520Y-106898907D01*
X162138041Y-106898907D01*
X162142718Y-106945282D01*
X162154471Y-106951396D01*
X162168769Y-106919231D01*
X162165949Y-106898544D01*
X162142718Y-106893180D01*
X162138041Y-106898907D01*
X161700520Y-106898907D01*
X161771404Y-106774851D01*
X161811963Y-106722763D01*
X164167506Y-106722763D01*
X164197260Y-106778233D01*
X164246111Y-106825771D01*
X164299346Y-106830192D01*
X164325785Y-106782462D01*
X166428154Y-106782462D01*
X166447692Y-106802000D01*
X166467231Y-106782462D01*
X166447692Y-106762923D01*
X166428154Y-106782462D01*
X164325785Y-106782462D01*
X164338787Y-106758990D01*
X164341033Y-106751545D01*
X164343243Y-106665437D01*
X164297910Y-106631184D01*
X164219682Y-106660856D01*
X164200189Y-106675795D01*
X164167506Y-106722763D01*
X161811963Y-106722763D01*
X161887190Y-106626154D01*
X161934308Y-106626154D01*
X161953846Y-106645692D01*
X161973384Y-106626154D01*
X161953846Y-106606616D01*
X161934308Y-106626154D01*
X161887190Y-106626154D01*
X161912703Y-106593389D01*
X162020181Y-106475087D01*
X163660604Y-106475087D01*
X163692769Y-106489385D01*
X163713456Y-106486565D01*
X163716769Y-106472217D01*
X164520879Y-106472217D01*
X164529186Y-106485454D01*
X164591538Y-106450308D01*
X164619023Y-106427085D01*
X164603614Y-106411829D01*
X164589992Y-106413155D01*
X164532923Y-106450308D01*
X164525762Y-106463333D01*
X164520879Y-106472217D01*
X163716769Y-106472217D01*
X163718820Y-106463333D01*
X163713093Y-106458657D01*
X163666718Y-106463333D01*
X163660604Y-106475087D01*
X162020181Y-106475087D01*
X162114694Y-106371055D01*
X162217326Y-106268336D01*
X165975756Y-106268336D01*
X165992203Y-106309765D01*
X166009368Y-106315927D01*
X166058136Y-106292038D01*
X166070891Y-106253205D01*
X166046787Y-106220966D01*
X165994251Y-106243349D01*
X165975756Y-106268336D01*
X162217326Y-106268336D01*
X162265657Y-106219964D01*
X164716184Y-106219964D01*
X164742653Y-106258821D01*
X164807644Y-106263928D01*
X164884152Y-106230891D01*
X164891813Y-106225178D01*
X164934071Y-106175720D01*
X164910747Y-106128655D01*
X164846470Y-106107416D01*
X164770509Y-106136421D01*
X164719213Y-106204054D01*
X164716184Y-106219964D01*
X162265657Y-106219964D01*
X162376324Y-106109204D01*
X162415078Y-106073373D01*
X166525968Y-106073373D01*
X166543763Y-106117152D01*
X166569602Y-106120983D01*
X166609103Y-106079869D01*
X166621643Y-106024142D01*
X166600742Y-105996938D01*
X166549055Y-106035577D01*
X166525968Y-106073373D01*
X162415078Y-106073373D01*
X162543573Y-105954568D01*
X162632779Y-105883692D01*
X166623538Y-105883692D01*
X166643077Y-105903231D01*
X166662615Y-105883692D01*
X166643077Y-105864154D01*
X166623538Y-105883692D01*
X162632779Y-105883692D01*
X162731145Y-105805539D01*
X163419231Y-105805539D01*
X163420365Y-105821111D01*
X163452623Y-105862937D01*
X163509348Y-105839165D01*
X163519249Y-105822896D01*
X163507029Y-105772779D01*
X163456001Y-105746923D01*
X163439108Y-105753518D01*
X163419231Y-105805539D01*
X162731145Y-105805539D01*
X162853625Y-105708227D01*
X166127732Y-105708227D01*
X166160350Y-105751294D01*
X166220178Y-105777780D01*
X166309155Y-105777495D01*
X166364131Y-105727385D01*
X166376020Y-105674890D01*
X166354367Y-105596566D01*
X166349356Y-105593269D01*
X166916250Y-105593269D01*
X166933429Y-105632815D01*
X166990659Y-105642289D01*
X167060686Y-105614270D01*
X167066072Y-105610259D01*
X167102151Y-105562524D01*
X167073962Y-105500953D01*
X167068929Y-105494253D01*
X167026179Y-105460822D01*
X166982140Y-105485998D01*
X166922924Y-105576752D01*
X166916250Y-105593269D01*
X166349356Y-105593269D01*
X166294001Y-105556847D01*
X166218628Y-105566092D01*
X166151956Y-105634662D01*
X166150535Y-105637333D01*
X166127732Y-105708227D01*
X162853625Y-105708227D01*
X163004634Y-105588248D01*
X163350322Y-105367956D01*
X163934950Y-105367956D01*
X163961068Y-105438660D01*
X164017714Y-105451707D01*
X164100647Y-105392269D01*
X164121544Y-105368559D01*
X164140310Y-105317077D01*
X167287846Y-105317077D01*
X167288294Y-105325920D01*
X167305078Y-105356154D01*
X167311347Y-105354356D01*
X167346461Y-105317077D01*
X167352567Y-105301940D01*
X167329229Y-105278000D01*
X167317887Y-105279502D01*
X167301897Y-105299502D01*
X167287846Y-105317077D01*
X164140310Y-105317077D01*
X164146717Y-105299502D01*
X164107121Y-105260269D01*
X164012429Y-105264835D01*
X163952122Y-105295851D01*
X163934950Y-105367956D01*
X163350322Y-105367956D01*
X163499915Y-105272627D01*
X164014416Y-105016609D01*
X164533138Y-104829096D01*
X164785592Y-104757380D01*
X165005870Y-104700845D01*
X165203845Y-104659506D01*
X165399607Y-104630395D01*
X165613247Y-104610547D01*
X165864858Y-104596996D01*
X166174530Y-104586775D01*
X166210834Y-104585778D01*
X166476879Y-104579309D01*
X166684834Y-104577071D01*
X166852583Y-104580184D01*
X166998009Y-104589771D01*
X167138996Y-104606951D01*
X167293426Y-104632848D01*
X167479182Y-104668581D01*
X167599240Y-104692421D01*
X167789831Y-104731401D01*
X167920509Y-104761238D01*
X168002539Y-104785655D01*
X168047185Y-104808372D01*
X168065712Y-104833113D01*
X168069385Y-104863599D01*
X168068889Y-104870094D01*
X168038957Y-104948384D01*
X167966890Y-105078263D01*
X167858523Y-105251463D01*
X167824872Y-105301940D01*
X167719694Y-105459713D01*
X167648193Y-105562524D01*
X167570048Y-105674890D01*
X167556240Y-105694745D01*
G37*
D11*
X167556240Y-105694745D02*
X167464127Y-105822896D01*
X167420429Y-105883692D01*
X167373997Y-105948291D01*
X167317870Y-106024142D01*
X167205708Y-106175720D01*
X167178802Y-106212082D01*
X167147497Y-106253205D01*
X167015135Y-106427085D01*
X166976493Y-106477848D01*
X166860128Y-106626154D01*
X166829306Y-106665437D01*
X166772905Y-106737320D01*
X166736220Y-106782462D01*
X166625074Y-106919231D01*
X166573877Y-106982231D01*
X166541574Y-107020522D01*
X166508403Y-107059843D01*
X166477909Y-107094736D01*
X166370073Y-107218133D01*
X166212778Y-107392646D01*
X166045406Y-107574077D01*
X165876849Y-107753124D01*
X165715993Y-107920480D01*
X165571730Y-108066843D01*
X165452948Y-108182907D01*
X165368536Y-108259368D01*
X165327383Y-108286923D01*
X165319411Y-108284246D01*
X165264649Y-108242223D01*
X165177258Y-108159790D01*
X165072070Y-108050670D01*
X165060415Y-108038201D01*
X164928077Y-107908775D01*
X164789761Y-107790912D01*
X164673594Y-107708747D01*
X164598683Y-107667317D01*
X164514379Y-107633055D01*
X164418452Y-107613664D01*
X164288739Y-107605040D01*
X164103077Y-107603077D01*
X163931043Y-107604597D01*
X163796975Y-107612515D01*
X163696041Y-107631400D01*
X163604765Y-107665810D01*
X163499675Y-107720308D01*
X163403294Y-107779780D01*
X163243504Y-107897289D01*
X163147907Y-107981360D01*
X163105472Y-108018679D01*
X163070863Y-108057789D01*
X162958119Y-108185197D01*
X162761168Y-108492052D01*
X162643574Y-108775385D01*
X162620607Y-108830724D01*
X162540618Y-109186357D01*
X162525380Y-109544093D01*
X162548666Y-109693692D01*
X162579077Y-109889077D01*
X162596176Y-109953236D01*
X162626215Y-110088091D01*
X162624580Y-110180039D01*
X162581792Y-110248702D01*
X162488374Y-110313699D01*
X162334846Y-110394651D01*
X162139029Y-110488658D01*
X162001404Y-110539921D01*
X161921229Y-110548032D01*
X161895231Y-110513880D01*
X161880208Y-110485376D01*
X161820822Y-110408650D01*
X161726784Y-110299684D01*
X161609361Y-110171956D01*
X161526328Y-110082810D01*
X161402857Y-109945545D01*
X161301480Y-109827297D01*
X161238363Y-109746602D01*
X161208489Y-109693692D01*
X161387231Y-109693692D01*
X161388366Y-109703033D01*
X161426308Y-109732769D01*
X161435648Y-109731634D01*
X161465384Y-109693692D01*
X161464249Y-109684352D01*
X161426308Y-109654616D01*
X161416967Y-109655751D01*
X161387231Y-109693692D01*
X161208489Y-109693692D01*
X161171315Y-109627852D01*
X161090473Y-109383632D01*
X161048132Y-109088918D01*
X161046729Y-108775385D01*
X161191846Y-108775385D01*
X161211384Y-108794923D01*
X161230923Y-108775385D01*
X161211384Y-108755846D01*
X161191846Y-108775385D01*
X161046729Y-108775385D01*
X161046642Y-108755846D01*
X161052182Y-108675005D01*
X161065475Y-108546164D01*
X161315989Y-108546164D01*
X161348154Y-108560462D01*
X161368841Y-108557642D01*
X161374205Y-108534410D01*
X161368478Y-108529734D01*
X161322102Y-108534410D01*
X161315989Y-108546164D01*
X161065475Y-108546164D01*
X161072425Y-108478802D01*
X161465384Y-108478802D01*
X161471285Y-108525783D01*
X161480287Y-108534410D01*
X161511062Y-108563907D01*
X161582915Y-108540666D01*
X161680473Y-108459066D01*
X161797368Y-108322112D01*
X161805326Y-108311602D01*
X161895656Y-108183199D01*
X161943523Y-108096812D01*
X161948123Y-108057789D01*
X161908651Y-108071480D01*
X161824300Y-108143234D01*
X161804888Y-108161319D01*
X161728009Y-108223411D01*
X161678169Y-108249146D01*
X161643735Y-108258060D01*
X161563487Y-108315061D01*
X161494619Y-108398806D01*
X161465384Y-108478802D01*
X161072425Y-108478802D01*
X161072705Y-108476089D01*
X161101170Y-108279463D01*
X161134556Y-108100234D01*
X161155444Y-108013385D01*
X161699846Y-108013385D01*
X161701074Y-108037358D01*
X161719199Y-108047506D01*
X161778000Y-108013385D01*
X161785485Y-108008489D01*
X161813482Y-107981360D01*
X161768231Y-107974906D01*
X161732066Y-107980541D01*
X161699846Y-108013385D01*
X161155444Y-108013385D01*
X161169845Y-107953509D01*
X161204017Y-107854395D01*
X161234055Y-107818000D01*
X161257054Y-107796462D01*
X161270000Y-107725558D01*
X161270696Y-107714962D01*
X161293943Y-107626219D01*
X161343513Y-107497404D01*
X161410371Y-107352531D01*
X161456353Y-107263275D01*
X161519697Y-107156539D01*
X161565178Y-107109144D01*
X161599581Y-107112481D01*
X161651359Y-107136000D01*
X161656345Y-107130555D01*
X163969222Y-107130555D01*
X163997399Y-107128477D01*
X164019876Y-107115729D01*
X165478102Y-107115729D01*
X165479789Y-107156109D01*
X165542528Y-107204524D01*
X165600263Y-107238746D01*
X165642177Y-107236905D01*
X165676559Y-107177670D01*
X165681918Y-107165479D01*
X165693927Y-107094736D01*
X165646690Y-107045577D01*
X165641787Y-107042577D01*
X165576027Y-107025390D01*
X165512658Y-107072431D01*
X165478102Y-107115729D01*
X164019876Y-107115729D01*
X164061209Y-107092286D01*
X164105742Y-107052850D01*
X164119701Y-107020522D01*
X164091523Y-107022600D01*
X164027714Y-107058791D01*
X163983181Y-107098228D01*
X163969222Y-107130555D01*
X161656345Y-107130555D01*
X161682522Y-107101971D01*
X161675840Y-107013035D01*
X161675088Y-107009728D01*
X161691849Y-106914083D01*
X161700520Y-106898907D01*
X162138041Y-106898907D01*
X162142718Y-106945282D01*
X162154471Y-106951396D01*
X162168769Y-106919231D01*
X162165949Y-106898544D01*
X162142718Y-106893180D01*
X162138041Y-106898907D01*
X161700520Y-106898907D01*
X161771404Y-106774851D01*
X161811963Y-106722763D01*
X164167506Y-106722763D01*
X164197260Y-106778233D01*
X164246111Y-106825771D01*
X164299346Y-106830192D01*
X164325785Y-106782462D01*
X166428154Y-106782462D01*
X166447692Y-106802000D01*
X166467231Y-106782462D01*
X166447692Y-106762923D01*
X166428154Y-106782462D01*
X164325785Y-106782462D01*
X164338787Y-106758990D01*
X164341033Y-106751545D01*
X164343243Y-106665437D01*
X164297910Y-106631184D01*
X164219682Y-106660856D01*
X164200189Y-106675795D01*
X164167506Y-106722763D01*
X161811963Y-106722763D01*
X161887190Y-106626154D01*
X161934308Y-106626154D01*
X161953846Y-106645692D01*
X161973384Y-106626154D01*
X161953846Y-106606616D01*
X161934308Y-106626154D01*
X161887190Y-106626154D01*
X161912703Y-106593389D01*
X162020181Y-106475087D01*
X163660604Y-106475087D01*
X163692769Y-106489385D01*
X163713456Y-106486565D01*
X163716769Y-106472217D01*
X164520879Y-106472217D01*
X164529186Y-106485454D01*
X164591538Y-106450308D01*
X164619023Y-106427085D01*
X164603614Y-106411829D01*
X164589992Y-106413155D01*
X164532923Y-106450308D01*
X164525762Y-106463333D01*
X164520879Y-106472217D01*
X163716769Y-106472217D01*
X163718820Y-106463333D01*
X163713093Y-106458657D01*
X163666718Y-106463333D01*
X163660604Y-106475087D01*
X162020181Y-106475087D01*
X162114694Y-106371055D01*
X162217326Y-106268336D01*
X165975756Y-106268336D01*
X165992203Y-106309765D01*
X166009368Y-106315927D01*
X166058136Y-106292038D01*
X166070891Y-106253205D01*
X166046787Y-106220966D01*
X165994251Y-106243349D01*
X165975756Y-106268336D01*
X162217326Y-106268336D01*
X162265657Y-106219964D01*
X164716184Y-106219964D01*
X164742653Y-106258821D01*
X164807644Y-106263928D01*
X164884152Y-106230891D01*
X164891813Y-106225178D01*
X164934071Y-106175720D01*
X164910747Y-106128655D01*
X164846470Y-106107416D01*
X164770509Y-106136421D01*
X164719213Y-106204054D01*
X164716184Y-106219964D01*
X162265657Y-106219964D01*
X162376324Y-106109204D01*
X162415078Y-106073373D01*
X166525968Y-106073373D01*
X166543763Y-106117152D01*
X166569602Y-106120983D01*
X166609103Y-106079869D01*
X166621643Y-106024142D01*
X166600742Y-105996938D01*
X166549055Y-106035577D01*
X166525968Y-106073373D01*
X162415078Y-106073373D01*
X162543573Y-105954568D01*
X162632779Y-105883692D01*
X166623538Y-105883692D01*
X166643077Y-105903231D01*
X166662615Y-105883692D01*
X166643077Y-105864154D01*
X166623538Y-105883692D01*
X162632779Y-105883692D01*
X162731145Y-105805539D01*
X163419231Y-105805539D01*
X163420365Y-105821111D01*
X163452623Y-105862937D01*
X163509348Y-105839165D01*
X163519249Y-105822896D01*
X163507029Y-105772779D01*
X163456001Y-105746923D01*
X163439108Y-105753518D01*
X163419231Y-105805539D01*
X162731145Y-105805539D01*
X162853625Y-105708227D01*
X166127732Y-105708227D01*
X166160350Y-105751294D01*
X166220178Y-105777780D01*
X166309155Y-105777495D01*
X166364131Y-105727385D01*
X166376020Y-105674890D01*
X166354367Y-105596566D01*
X166349356Y-105593269D01*
X166916250Y-105593269D01*
X166933429Y-105632815D01*
X166990659Y-105642289D01*
X167060686Y-105614270D01*
X167066072Y-105610259D01*
X167102151Y-105562524D01*
X167073962Y-105500953D01*
X167068929Y-105494253D01*
X167026179Y-105460822D01*
X166982140Y-105485998D01*
X166922924Y-105576752D01*
X166916250Y-105593269D01*
X166349356Y-105593269D01*
X166294001Y-105556847D01*
X166218628Y-105566092D01*
X166151956Y-105634662D01*
X166150535Y-105637333D01*
X166127732Y-105708227D01*
X162853625Y-105708227D01*
X163004634Y-105588248D01*
X163350322Y-105367956D01*
X163934950Y-105367956D01*
X163961068Y-105438660D01*
X164017714Y-105451707D01*
X164100647Y-105392269D01*
X164121544Y-105368559D01*
X164140310Y-105317077D01*
X167287846Y-105317077D01*
X167288294Y-105325920D01*
X167305078Y-105356154D01*
X167311347Y-105354356D01*
X167346461Y-105317077D01*
X167352567Y-105301940D01*
X167329229Y-105278000D01*
X167317887Y-105279502D01*
X167301897Y-105299502D01*
X167287846Y-105317077D01*
X164140310Y-105317077D01*
X164146717Y-105299502D01*
X164107121Y-105260269D01*
X164012429Y-105264835D01*
X163952122Y-105295851D01*
X163934950Y-105367956D01*
X163350322Y-105367956D01*
X163499915Y-105272627D01*
X164014416Y-105016609D01*
X164533138Y-104829096D01*
X164785592Y-104757380D01*
X165005870Y-104700845D01*
X165203845Y-104659506D01*
X165399607Y-104630395D01*
X165613247Y-104610547D01*
X165864858Y-104596996D01*
X166174530Y-104586775D01*
X166210834Y-104585778D01*
X166476879Y-104579309D01*
X166684834Y-104577071D01*
X166852583Y-104580184D01*
X166998009Y-104589771D01*
X167138996Y-104606951D01*
X167293426Y-104632848D01*
X167479182Y-104668581D01*
X167599240Y-104692421D01*
X167789831Y-104731401D01*
X167920509Y-104761238D01*
X168002539Y-104785655D01*
X168047185Y-104808372D01*
X168065712Y-104833113D01*
X168069385Y-104863599D01*
X168068889Y-104870094D01*
X168038957Y-104948384D01*
X167966890Y-105078263D01*
X167858523Y-105251463D01*
X167824872Y-105301940D01*
X167719694Y-105459713D01*
X167648193Y-105562524D01*
X167570048Y-105674890D01*
X167556240Y-105694745D01*
G36*
X170796372Y-106659540D02*
G01*
X170882560Y-106778494D01*
X171022394Y-106971489D01*
X171128854Y-107153692D01*
X171193435Y-107264222D01*
X171232592Y-107347621D01*
X171238740Y-107362103D01*
X171307540Y-107524166D01*
X171387082Y-107727583D01*
X171456982Y-107921623D01*
X171459470Y-107928530D01*
X171466231Y-107948340D01*
X171521462Y-108114945D01*
X171559320Y-108248099D01*
X171583149Y-108370123D01*
X171594218Y-108482308D01*
X171596292Y-108503336D01*
X171598960Y-108580000D01*
X171602094Y-108670061D01*
X171603897Y-108892616D01*
X171604175Y-108972551D01*
X171603148Y-109138718D01*
X171600946Y-109183148D01*
X171596077Y-109281445D01*
X171579304Y-109402436D01*
X171578402Y-109408943D01*
X171545566Y-109529423D01*
X171493009Y-109651096D01*
X171416172Y-109782173D01*
X171354081Y-109869539D01*
X171310498Y-109930865D01*
X171271137Y-109980257D01*
X171171426Y-110105383D01*
X171022262Y-110281109D01*
X170994397Y-110313937D01*
X170774854Y-110564740D01*
X170508237Y-110866000D01*
X170470074Y-110909310D01*
X170289896Y-111124460D01*
X170258953Y-111161409D01*
X170189300Y-111256769D01*
X170102917Y-111375034D01*
X170094467Y-111386603D01*
X169964720Y-111604509D01*
X169935934Y-111666504D01*
X169857819Y-111834744D01*
X169761868Y-112096923D01*
X169755391Y-112116462D01*
X169755169Y-112117134D01*
X169723726Y-112214154D01*
X169705814Y-112269426D01*
X169699238Y-112292308D01*
X169669798Y-112394760D01*
X169644694Y-112510653D01*
X169628073Y-112634621D01*
X169624650Y-112683077D01*
X169618576Y-112769080D01*
X169617510Y-112784183D01*
X169611833Y-112941924D01*
X169610577Y-112976855D01*
X169604846Y-113230154D01*
X169604742Y-113234555D01*
X169604547Y-113242816D01*
X169600086Y-113432134D01*
X169593641Y-113644708D01*
X169586715Y-113821919D01*
X169579875Y-113949506D01*
X169573689Y-114013209D01*
X169571180Y-114019908D01*
X169520952Y-114073960D01*
X169419683Y-114152587D01*
X169282720Y-114246092D01*
X169125408Y-114344777D01*
X168963095Y-114438944D01*
X168811125Y-114518894D01*
X168684846Y-114574929D01*
X168577384Y-114615450D01*
X168577384Y-114143631D01*
X168576798Y-114053900D01*
X168564645Y-113792165D01*
X168533583Y-113597483D01*
X168479414Y-113462162D01*
X168397939Y-113378509D01*
X168284959Y-113338833D01*
X168136276Y-113335442D01*
X168116017Y-113337022D01*
X168015554Y-113355138D01*
X167953231Y-113402308D01*
X167896806Y-113500796D01*
X167885086Y-113526412D01*
X167857995Y-113606294D01*
X167837516Y-113709947D01*
X167821984Y-113850966D01*
X167809738Y-114042948D01*
X167799113Y-114299487D01*
X167776308Y-114944767D01*
X167639538Y-114980513D01*
X167566205Y-114998874D01*
X167421540Y-115033117D01*
X167268308Y-115067715D01*
X167165303Y-115087794D01*
X167002693Y-115111679D01*
X166871516Y-115122278D01*
X166709187Y-115125385D01*
X166695670Y-114586259D01*
X166689280Y-114385201D01*
X166679030Y-114209655D01*
X166664130Y-114086548D01*
X166642803Y-114001996D01*
X166613275Y-113942111D01*
X166554326Y-113873486D01*
X166431678Y-113808460D01*
X166296485Y-113807448D01*
X166166678Y-113868862D01*
X166060188Y-113991112D01*
X166058856Y-113993403D01*
X166025213Y-114062244D01*
X166002653Y-114142184D01*
X165989026Y-114249974D01*
X165982182Y-114402371D01*
X165979970Y-114616128D01*
X165978769Y-115105846D01*
X165822461Y-115115813D01*
X165770532Y-115115478D01*
X165633060Y-115101877D01*
X165459539Y-115074727D01*
X165275384Y-115037659D01*
X164884615Y-114949539D01*
X164883746Y-114304769D01*
X164882984Y-114128940D01*
X164879432Y-113924153D01*
X164871913Y-113775281D01*
X164859221Y-113669039D01*
X164840149Y-113592147D01*
X164813490Y-113531321D01*
X164787393Y-113496698D01*
X167366000Y-113496698D01*
X167366001Y-113497137D01*
X167388500Y-113523136D01*
X167452635Y-113487915D01*
X167554406Y-113393662D01*
X167592725Y-113351935D01*
X167646901Y-113280517D01*
X167658713Y-113242816D01*
X167654324Y-113241213D01*
X167608303Y-113263212D01*
X167534795Y-113318552D01*
X167455464Y-113388441D01*
X167391977Y-113454087D01*
X167366000Y-113496698D01*
X164787393Y-113496698D01*
X164742703Y-113437409D01*
X164616451Y-113356154D01*
X164474291Y-113330735D01*
X164370757Y-113355550D01*
X164336704Y-113363712D01*
X164224171Y-113457648D01*
X164209166Y-113478993D01*
X164179361Y-113536174D01*
X164158674Y-113611003D01*
X164144829Y-113718608D01*
X164135547Y-113874114D01*
X164128550Y-114092648D01*
X164120487Y-114314096D01*
X164107999Y-114485032D01*
X164091285Y-114584905D01*
X164069935Y-114617379D01*
X164068706Y-114617308D01*
X164015375Y-114596936D01*
X163909902Y-114545491D01*
X163766985Y-114470443D01*
X163601324Y-114379261D01*
X163506294Y-114325183D01*
X163342871Y-114226392D01*
X163232893Y-114148199D01*
X163164595Y-114081654D01*
X163126210Y-114017805D01*
X163125519Y-114016126D01*
X163102771Y-113922139D01*
X163087075Y-113766741D01*
X163078065Y-113544427D01*
X163076157Y-113335173D01*
X163701724Y-113335173D01*
X163710548Y-113354457D01*
X163764049Y-113395633D01*
X163822211Y-113380763D01*
X163841895Y-113355550D01*
X163837962Y-113307674D01*
X163767667Y-113288769D01*
X163720986Y-113298302D01*
X163701724Y-113335173D01*
X163076157Y-113335173D01*
X163075377Y-113249692D01*
X164630615Y-113249692D01*
X164631063Y-113258536D01*
X164647848Y-113288769D01*
X164654116Y-113286971D01*
X164689231Y-113249692D01*
X164695337Y-113234555D01*
X164671998Y-113210616D01*
X164660656Y-113212117D01*
X164630615Y-113249692D01*
X163075377Y-113249692D01*
X163073884Y-113079692D01*
X167447339Y-113079692D01*
X167462085Y-113129862D01*
X167482353Y-113149541D01*
X167553921Y-113170296D01*
X167579692Y-113168879D01*
X167593604Y-113154442D01*
X167544699Y-113112084D01*
X167532295Y-113104788D01*
X167787260Y-113104788D01*
X167829347Y-113154442D01*
X167851611Y-113180709D01*
X167882435Y-113199378D01*
X167920436Y-113202140D01*
X167972309Y-113169648D01*
X168059615Y-113092790D01*
X168145988Y-113005720D01*
X168179308Y-112941924D01*
X168145197Y-112907993D01*
X168043154Y-112898000D01*
X167951994Y-112908064D01*
X167847191Y-112954090D01*
X167812806Y-112995692D01*
X167789033Y-113024456D01*
X167787260Y-113104788D01*
X167532295Y-113104788D01*
X167483785Y-113076255D01*
X167447339Y-113079692D01*
X163073884Y-113079692D01*
X163073306Y-113013887D01*
X163072472Y-112995692D01*
X164591538Y-112995692D01*
X164611077Y-113015231D01*
X164630615Y-112995692D01*
X164611077Y-112976154D01*
X164591538Y-112995692D01*
X163072472Y-112995692D01*
X163057287Y-112664453D01*
X163052447Y-112623484D01*
X163815337Y-112623484D01*
X163824512Y-112678568D01*
X163888154Y-112702616D01*
X163933579Y-112709943D01*
X163966308Y-112741692D01*
X163967443Y-112751033D01*
X164005384Y-112780769D01*
X164022640Y-112780351D01*
X164040631Y-112769080D01*
X164033841Y-112726292D01*
X164019313Y-112683077D01*
X168499231Y-112683077D01*
X168518769Y-112702616D01*
X168538308Y-112683077D01*
X168518769Y-112663539D01*
X168499231Y-112683077D01*
X164019313Y-112683077D01*
X164001759Y-112630858D01*
X163976412Y-112567913D01*
X163939575Y-112531830D01*
X163884528Y-112548248D01*
X163861230Y-112562955D01*
X163815337Y-112623484D01*
X163052447Y-112623484D01*
X163021848Y-112364454D01*
X163005931Y-112292308D01*
X164005384Y-112292308D01*
X164024923Y-112311846D01*
X164044461Y-112292308D01*
X169007231Y-112292308D01*
X169026769Y-112311846D01*
X169046308Y-112292308D01*
X169026769Y-112272769D01*
X169007231Y-112292308D01*
X164044461Y-112292308D01*
X164024923Y-112272769D01*
X164005384Y-112292308D01*
X163005931Y-112292308D01*
X162997818Y-112255537D01*
X167483231Y-112255537D01*
X167484247Y-112259437D01*
X167522308Y-112272769D01*
X167533018Y-112271179D01*
X167561384Y-112231386D01*
X167558316Y-112217252D01*
X167522308Y-112214154D01*
X167510613Y-112222174D01*
X167483231Y-112255537D01*
X162997818Y-112255537D01*
X162979306Y-112171628D01*
X168077087Y-112171628D01*
X168106256Y-112215929D01*
X168169157Y-112227074D01*
X168209544Y-112214154D01*
X168890000Y-112214154D01*
X168909538Y-112233692D01*
X168929077Y-112214154D01*
X168909538Y-112194616D01*
X168890000Y-112214154D01*
X168209544Y-112214154D01*
X168235977Y-112205698D01*
X168276902Y-112152440D01*
X168283196Y-112121216D01*
X168271887Y-112096138D01*
X169054656Y-112096138D01*
X169057186Y-112121216D01*
X169059333Y-112142513D01*
X169071087Y-112148626D01*
X169085384Y-112116462D01*
X169082564Y-112095774D01*
X169059333Y-112090410D01*
X169054656Y-112096138D01*
X168271887Y-112096138D01*
X168266960Y-112085213D01*
X168193662Y-112084853D01*
X168121174Y-112108334D01*
X168078283Y-112156685D01*
X168077087Y-112171628D01*
X162979306Y-112171628D01*
X162962722Y-112096462D01*
X162875642Y-111843046D01*
X162806190Y-111693858D01*
X163838952Y-111693858D01*
X163917962Y-111772869D01*
X163930744Y-111784362D01*
X164030940Y-111842092D01*
X164153142Y-111880437D01*
X164247937Y-111893843D01*
X164293023Y-111884533D01*
X164297107Y-111846651D01*
X164291926Y-111817388D01*
X164281913Y-111736362D01*
X164254040Y-111686620D01*
X164184208Y-111626358D01*
X164129283Y-111596392D01*
X165811416Y-111596392D01*
X165846841Y-111736990D01*
X165916518Y-111846651D01*
X165928034Y-111864777D01*
X166056287Y-111993430D01*
X166177950Y-112074134D01*
X166347766Y-112117213D01*
X166514559Y-112091053D01*
X166663467Y-111998735D01*
X166779631Y-111843345D01*
X166825022Y-111733557D01*
X166851864Y-111569435D01*
X167699132Y-111569435D01*
X167705027Y-111631820D01*
X167708916Y-111640164D01*
X167754503Y-111678529D01*
X167808714Y-111684509D01*
X167834923Y-111652323D01*
X167834425Y-111646171D01*
X167810074Y-111605174D01*
X168694615Y-111605174D01*
X168713974Y-111652323D01*
X168719517Y-111665824D01*
X168792483Y-111720480D01*
X168880231Y-111734775D01*
X168950822Y-111711406D01*
X168958592Y-111666504D01*
X168895651Y-111594037D01*
X168873099Y-111577487D01*
X168795445Y-111553148D01*
X168725199Y-111562973D01*
X168694615Y-111605174D01*
X167810074Y-111605174D01*
X167803872Y-111594733D01*
X167750098Y-111555321D01*
X167707020Y-111554006D01*
X167704010Y-111559893D01*
X167699132Y-111569435D01*
X166851864Y-111569435D01*
X166853425Y-111559893D01*
X166845887Y-111483550D01*
X167913318Y-111483550D01*
X167940856Y-111491231D01*
X167975746Y-111477710D01*
X168035292Y-111422846D01*
X168061385Y-111388638D01*
X168063913Y-111375034D01*
X168010769Y-111411789D01*
X167957046Y-111450990D01*
X167916333Y-111480173D01*
X167913318Y-111483550D01*
X166845887Y-111483550D01*
X166833713Y-111360243D01*
X166799010Y-111236445D01*
X169875272Y-111236445D01*
X169879949Y-111282821D01*
X169891702Y-111288934D01*
X169906000Y-111256769D01*
X169903180Y-111236082D01*
X169879949Y-111230718D01*
X169875272Y-111236445D01*
X166799010Y-111236445D01*
X166771198Y-111137232D01*
X167405077Y-111137232D01*
X167409111Y-111158875D01*
X167448607Y-111198482D01*
X167497319Y-111190579D01*
X167507928Y-111178412D01*
X167517585Y-111124460D01*
X167463692Y-111100462D01*
X167436762Y-111104599D01*
X167405077Y-111137232D01*
X166771198Y-111137232D01*
X166765548Y-111117075D01*
X166663280Y-110839702D01*
X166613146Y-110729231D01*
X167209692Y-110729231D01*
X167229231Y-110748769D01*
X167248769Y-110729231D01*
X167229231Y-110709692D01*
X167209692Y-110729231D01*
X166613146Y-110729231D01*
X166561364Y-110615127D01*
X166465639Y-110462891D01*
X166374381Y-110380291D01*
X166285866Y-110364621D01*
X166280568Y-110365729D01*
X166243056Y-110381452D01*
X166206702Y-110417549D01*
X166165880Y-110484615D01*
X166114963Y-110593246D01*
X166048324Y-110754037D01*
X165960335Y-110977583D01*
X165872699Y-111222054D01*
X165820466Y-111429305D01*
X165816053Y-111510769D01*
X165811416Y-111596392D01*
X164129283Y-111596392D01*
X164116301Y-111589309D01*
X164054242Y-111588994D01*
X163964223Y-111629078D01*
X163838952Y-111693858D01*
X162806190Y-111693858D01*
X162756340Y-111586776D01*
X162713523Y-111510769D01*
X163966308Y-111510769D01*
X163985846Y-111530308D01*
X164005384Y-111510769D01*
X163985846Y-111491231D01*
X163966308Y-111510769D01*
X162713523Y-111510769D01*
X162600550Y-111310223D01*
X162480253Y-111109676D01*
X162778474Y-110968051D01*
X163076696Y-110826427D01*
X163280175Y-110942846D01*
X163291700Y-110949386D01*
X163573316Y-111073420D01*
X163850732Y-111123252D01*
X164135572Y-111101030D01*
X164337341Y-111048482D01*
X164647653Y-110907321D01*
X164914646Y-110703106D01*
X165136445Y-110438282D01*
X165311178Y-110115293D01*
X165436973Y-109736584D01*
X165511956Y-109304598D01*
X165516401Y-109264093D01*
X165535580Y-109139827D01*
X165539883Y-109128518D01*
X167159526Y-109128518D01*
X167165852Y-109470638D01*
X167225660Y-109791385D01*
X167268753Y-109921002D01*
X167403192Y-110208136D01*
X167579308Y-110475796D01*
X167785043Y-110709380D01*
X167809015Y-110729231D01*
X168008337Y-110894289D01*
X168237128Y-111015920D01*
X168554469Y-111100893D01*
X168860536Y-111111908D01*
X169148733Y-111046881D01*
X169418404Y-110905960D01*
X169464602Y-110866000D01*
X170257692Y-110866000D01*
X170264305Y-110883977D01*
X170316308Y-110905077D01*
X170343272Y-110900668D01*
X170374923Y-110866000D01*
X170368310Y-110848024D01*
X170316308Y-110826923D01*
X170289343Y-110831332D01*
X170257692Y-110866000D01*
X169464602Y-110866000D01*
X169668895Y-110689294D01*
X169704034Y-110651397D01*
X169876082Y-110431096D01*
X169933897Y-110318795D01*
X170395919Y-110318795D01*
X170401238Y-110355409D01*
X170432016Y-110321387D01*
X170432190Y-110321110D01*
X170485391Y-110297943D01*
X170576355Y-110300450D01*
X170637175Y-110304340D01*
X170680018Y-110281109D01*
X170660193Y-110235543D01*
X170577549Y-110182657D01*
X170526053Y-110144319D01*
X170489516Y-110045888D01*
X170483990Y-110016502D01*
X170465080Y-110043804D01*
X170459257Y-110062617D01*
X170434356Y-110143077D01*
X170424361Y-110182154D01*
X170416016Y-110214787D01*
X170395919Y-110318795D01*
X169933897Y-110318795D01*
X169996267Y-110197646D01*
X170001013Y-110182154D01*
X170296769Y-110182154D01*
X170316308Y-110201692D01*
X170335846Y-110182154D01*
X170316308Y-110162616D01*
X170296769Y-110182154D01*
X170001013Y-110182154D01*
X170030232Y-110086768D01*
X170296769Y-110086768D01*
X170297888Y-110095492D01*
X170335846Y-110123539D01*
X170354521Y-110116083D01*
X170374923Y-110062617D01*
X170369300Y-110034705D01*
X170335846Y-110025846D01*
X170325174Y-110033845D01*
X170296769Y-110086768D01*
X170030232Y-110086768D01*
X170059259Y-109992010D01*
X170733527Y-109992010D01*
X170765692Y-110006308D01*
X170786379Y-110003488D01*
X170791743Y-109980257D01*
X170786016Y-109975580D01*
X170739641Y-109980257D01*
X170733527Y-109992010D01*
X170059259Y-109992010D01*
X170081435Y-109919615D01*
X170091708Y-109869539D01*
X170492154Y-109869539D01*
X170511692Y-109889077D01*
X170531231Y-109869539D01*
X170511692Y-109850000D01*
X170492154Y-109869539D01*
X170091708Y-109869539D01*
X170106840Y-109795781D01*
X170138274Y-109402436D01*
X170118416Y-109220765D01*
X170462388Y-109220765D01*
X170463543Y-109307341D01*
X170470449Y-109342000D01*
X170493284Y-109310601D01*
X170509293Y-109234594D01*
X170513456Y-109148447D01*
X170506073Y-109110083D01*
X171205119Y-109110083D01*
X171215077Y-109146616D01*
X171216348Y-109148447D01*
X171223105Y-109158183D01*
X171258766Y-109185692D01*
X171264111Y-109183148D01*
X171254154Y-109146616D01*
X171246125Y-109135048D01*
X171210464Y-109107539D01*
X171205119Y-109110083D01*
X170506073Y-109110083D01*
X170501567Y-109086669D01*
X170492754Y-109074595D01*
X170473445Y-109091743D01*
X170463445Y-109185839D01*
X170462388Y-109220765D01*
X170118416Y-109220765D01*
X170096268Y-109018152D01*
X169983360Y-108652129D01*
X169917578Y-108529266D01*
X170104339Y-108529266D01*
X170124554Y-108599874D01*
X170143800Y-108640489D01*
X170168896Y-108656212D01*
X170207007Y-108603724D01*
X170214618Y-108591158D01*
X170224330Y-108560462D01*
X170843846Y-108560462D01*
X170850459Y-108578438D01*
X170902461Y-108599539D01*
X170929426Y-108595130D01*
X170943239Y-108580000D01*
X171000154Y-108580000D01*
X171019692Y-108599539D01*
X171039231Y-108580000D01*
X171019692Y-108560462D01*
X171000154Y-108580000D01*
X170943239Y-108580000D01*
X170961077Y-108560462D01*
X170954464Y-108542485D01*
X170902461Y-108521385D01*
X170875497Y-108525793D01*
X170866928Y-108535178D01*
X170843846Y-108560462D01*
X170224330Y-108560462D01*
X170232329Y-108535178D01*
X170191645Y-108504402D01*
X170157800Y-108495152D01*
X170109191Y-108500552D01*
X170104339Y-108529266D01*
X169917578Y-108529266D01*
X169892436Y-108482308D01*
X170394461Y-108482308D01*
X170402460Y-108492980D01*
X170455383Y-108521385D01*
X170464107Y-108520266D01*
X170492154Y-108482308D01*
X170484698Y-108463633D01*
X170431232Y-108443231D01*
X170403320Y-108448854D01*
X170394461Y-108482308D01*
X169892436Y-108482308D01*
X169802089Y-108313565D01*
X169554993Y-108011657D01*
X169547706Y-108004378D01*
X169481987Y-107951070D01*
X170861843Y-107951070D01*
X170862327Y-108011673D01*
X170871733Y-108024968D01*
X170931286Y-108049079D01*
X171010008Y-107997948D01*
X171063903Y-107967943D01*
X171169107Y-107963426D01*
X171178977Y-107965221D01*
X171252642Y-107964419D01*
X171273692Y-107921623D01*
X171268338Y-107889224D01*
X171218754Y-107828474D01*
X171143740Y-107807595D01*
X171076758Y-107839845D01*
X171076150Y-107840138D01*
X171039905Y-107870225D01*
X170977212Y-107880717D01*
X170968278Y-107878160D01*
X170906566Y-107895844D01*
X170861843Y-107951070D01*
X169481987Y-107951070D01*
X169343766Y-107838953D01*
X170395138Y-107838953D01*
X170435737Y-107872052D01*
X170485003Y-107889426D01*
X170523813Y-107887398D01*
X170531231Y-107839845D01*
X170522321Y-107792725D01*
X170477572Y-107759842D01*
X170417430Y-107794328D01*
X170395138Y-107838953D01*
X169343766Y-107838953D01*
X169285269Y-107791503D01*
X169003627Y-107648471D01*
X168711955Y-107574431D01*
X168419428Y-107568532D01*
X168135221Y-107629924D01*
X167868508Y-107757754D01*
X167628464Y-107951171D01*
X167424265Y-108209325D01*
X167296250Y-108468402D01*
X167203916Y-108787087D01*
X167159526Y-109128518D01*
X165539883Y-109128518D01*
X165568620Y-109052993D01*
X165630861Y-108974374D01*
X165737644Y-108874752D01*
X165892807Y-108731187D01*
X166127380Y-108501409D01*
X166381927Y-108240699D01*
X166640841Y-107965703D01*
X166888512Y-107693069D01*
X167109332Y-107439447D01*
X167163005Y-107373856D01*
X170030143Y-107373856D01*
X170062308Y-107388154D01*
X170082995Y-107385334D01*
X170088359Y-107362103D01*
X170082631Y-107357426D01*
X170036256Y-107362103D01*
X170030143Y-107373856D01*
X167163005Y-107373856D01*
X167287692Y-107221483D01*
X167303677Y-107201294D01*
X167387352Y-107105474D01*
X167450024Y-107049800D01*
X167479167Y-107045769D01*
X167533637Y-107119207D01*
X167629769Y-107153094D01*
X167656719Y-107133369D01*
X167882349Y-107133369D01*
X167887026Y-107179744D01*
X167898779Y-107185857D01*
X167913077Y-107153692D01*
X167910257Y-107133005D01*
X167887026Y-107127641D01*
X167882349Y-107133369D01*
X167656719Y-107133369D01*
X167667256Y-107125657D01*
X167677277Y-107057535D01*
X167659484Y-106980662D01*
X167615849Y-106927066D01*
X167604590Y-106918309D01*
X167597149Y-106887794D01*
X167616970Y-106833602D01*
X167669352Y-106746322D01*
X167709922Y-106687976D01*
X170023231Y-106687976D01*
X170023298Y-106689337D01*
X170053052Y-106695503D01*
X170120621Y-106661835D01*
X170190094Y-106630133D01*
X170267434Y-106621482D01*
X170316826Y-106641509D01*
X170314832Y-106687157D01*
X170299171Y-106702912D01*
X170237058Y-106709295D01*
X170209037Y-106705482D01*
X170145904Y-106736826D01*
X170134919Y-106758149D01*
X170163967Y-106778422D01*
X170260278Y-106784238D01*
X170292866Y-106784107D01*
X170379320Y-106782118D01*
X170414000Y-106778494D01*
X170411722Y-106770436D01*
X170391405Y-106709883D01*
X170356875Y-106610840D01*
X170343998Y-106570748D01*
X170320156Y-106458640D01*
X170320749Y-106381235D01*
X170328699Y-106354925D01*
X170329827Y-106335323D01*
X170297778Y-106381923D01*
X170246724Y-106425437D01*
X170153501Y-106450308D01*
X170126939Y-106451023D01*
X170073188Y-106470267D01*
X170073620Y-106528423D01*
X170078856Y-106577880D01*
X170058639Y-106628421D01*
X170051468Y-106633635D01*
X170023231Y-106687976D01*
X167709922Y-106687976D01*
X167759592Y-106616544D01*
X167892991Y-106434858D01*
X168035766Y-106237691D01*
X168108461Y-106237691D01*
X168108842Y-106243154D01*
X168131462Y-106251759D01*
X168170808Y-106209809D01*
X168180316Y-106187971D01*
X168153576Y-106192576D01*
X168136217Y-106204639D01*
X168108461Y-106237691D01*
X168035766Y-106237691D01*
X168042730Y-106228074D01*
X168200844Y-106000923D01*
X168264769Y-106000923D01*
X168284308Y-106020462D01*
X168303846Y-106000923D01*
X168284308Y-105981385D01*
X168264769Y-106000923D01*
X168200844Y-106000923D01*
X168209846Y-105987991D01*
X168280978Y-105882162D01*
X169702772Y-105882162D01*
X169708173Y-105916419D01*
X169727179Y-105942958D01*
X169743006Y-106000923D01*
X169749692Y-106025415D01*
X169750330Y-106032596D01*
X169790172Y-106095499D01*
X169872927Y-106154369D01*
X169910494Y-106172495D01*
X169950663Y-106187971D01*
X170007847Y-106210003D01*
X170049391Y-106207617D01*
X170029651Y-106164967D01*
X170009967Y-106125243D01*
X170007199Y-106037967D01*
X170012934Y-106006978D01*
X169992279Y-105909508D01*
X169915260Y-105852675D01*
X169795930Y-105849045D01*
X169768675Y-105855015D01*
X169702772Y-105882162D01*
X168280978Y-105882162D01*
X168369891Y-105749880D01*
X168447125Y-105629692D01*
X169378461Y-105629692D01*
X169386482Y-105641387D01*
X169419845Y-105668769D01*
X169423744Y-105667753D01*
X169437077Y-105629692D01*
X169435487Y-105618982D01*
X169395694Y-105590616D01*
X169381560Y-105593684D01*
X169378461Y-105629692D01*
X168447125Y-105629692D01*
X168502436Y-105543619D01*
X168521505Y-105512929D01*
X168621130Y-105353466D01*
X168704399Y-105221596D01*
X168763077Y-105130288D01*
X168788927Y-105092509D01*
X168801337Y-105090529D01*
X168870298Y-105113420D01*
X168985025Y-105167857D01*
X169131881Y-105246151D01*
X169297225Y-105340618D01*
X169467420Y-105443570D01*
X169628826Y-105547321D01*
X169747012Y-105629692D01*
X169767805Y-105644184D01*
X169933713Y-105773506D01*
X170237502Y-106044038D01*
X170396486Y-106207617D01*
X170529898Y-106344886D01*
X170796372Y-106659540D01*
G37*
X170796372Y-106659540D02*
X170882560Y-106778494D01*
X171022394Y-106971489D01*
X171128854Y-107153692D01*
X171193435Y-107264222D01*
X171232592Y-107347621D01*
X171238740Y-107362103D01*
X171307540Y-107524166D01*
X171387082Y-107727583D01*
X171456982Y-107921623D01*
X171459470Y-107928530D01*
X171466231Y-107948340D01*
X171521462Y-108114945D01*
X171559320Y-108248099D01*
X171583149Y-108370123D01*
X171594218Y-108482308D01*
X171596292Y-108503336D01*
X171598960Y-108580000D01*
X171602094Y-108670061D01*
X171603897Y-108892616D01*
X171604175Y-108972551D01*
X171603148Y-109138718D01*
X171600946Y-109183148D01*
X171596077Y-109281445D01*
X171579304Y-109402436D01*
X171578402Y-109408943D01*
X171545566Y-109529423D01*
X171493009Y-109651096D01*
X171416172Y-109782173D01*
X171354081Y-109869539D01*
X171310498Y-109930865D01*
X171271137Y-109980257D01*
X171171426Y-110105383D01*
X171022262Y-110281109D01*
X170994397Y-110313937D01*
X170774854Y-110564740D01*
X170508237Y-110866000D01*
X170470074Y-110909310D01*
X170289896Y-111124460D01*
X170258953Y-111161409D01*
X170189300Y-111256769D01*
X170102917Y-111375034D01*
X170094467Y-111386603D01*
X169964720Y-111604509D01*
X169935934Y-111666504D01*
X169857819Y-111834744D01*
X169761868Y-112096923D01*
X169755391Y-112116462D01*
X169755169Y-112117134D01*
X169723726Y-112214154D01*
X169705814Y-112269426D01*
X169699238Y-112292308D01*
X169669798Y-112394760D01*
X169644694Y-112510653D01*
X169628073Y-112634621D01*
X169624650Y-112683077D01*
X169618576Y-112769080D01*
X169617510Y-112784183D01*
X169611833Y-112941924D01*
X169610577Y-112976855D01*
X169604846Y-113230154D01*
X169604742Y-113234555D01*
X169604547Y-113242816D01*
X169600086Y-113432134D01*
X169593641Y-113644708D01*
X169586715Y-113821919D01*
X169579875Y-113949506D01*
X169573689Y-114013209D01*
X169571180Y-114019908D01*
X169520952Y-114073960D01*
X169419683Y-114152587D01*
X169282720Y-114246092D01*
X169125408Y-114344777D01*
X168963095Y-114438944D01*
X168811125Y-114518894D01*
X168684846Y-114574929D01*
X168577384Y-114615450D01*
X168577384Y-114143631D01*
X168576798Y-114053900D01*
X168564645Y-113792165D01*
X168533583Y-113597483D01*
X168479414Y-113462162D01*
X168397939Y-113378509D01*
X168284959Y-113338833D01*
X168136276Y-113335442D01*
X168116017Y-113337022D01*
X168015554Y-113355138D01*
X167953231Y-113402308D01*
X167896806Y-113500796D01*
X167885086Y-113526412D01*
X167857995Y-113606294D01*
X167837516Y-113709947D01*
X167821984Y-113850966D01*
X167809738Y-114042948D01*
X167799113Y-114299487D01*
X167776308Y-114944767D01*
X167639538Y-114980513D01*
X167566205Y-114998874D01*
X167421540Y-115033117D01*
X167268308Y-115067715D01*
X167165303Y-115087794D01*
X167002693Y-115111679D01*
X166871516Y-115122278D01*
X166709187Y-115125385D01*
X166695670Y-114586259D01*
X166689280Y-114385201D01*
X166679030Y-114209655D01*
X166664130Y-114086548D01*
X166642803Y-114001996D01*
X166613275Y-113942111D01*
X166554326Y-113873486D01*
X166431678Y-113808460D01*
X166296485Y-113807448D01*
X166166678Y-113868862D01*
X166060188Y-113991112D01*
X166058856Y-113993403D01*
X166025213Y-114062244D01*
X166002653Y-114142184D01*
X165989026Y-114249974D01*
X165982182Y-114402371D01*
X165979970Y-114616128D01*
X165978769Y-115105846D01*
X165822461Y-115115813D01*
X165770532Y-115115478D01*
X165633060Y-115101877D01*
X165459539Y-115074727D01*
X165275384Y-115037659D01*
X164884615Y-114949539D01*
X164883746Y-114304769D01*
X164882984Y-114128940D01*
X164879432Y-113924153D01*
X164871913Y-113775281D01*
X164859221Y-113669039D01*
X164840149Y-113592147D01*
X164813490Y-113531321D01*
X164787393Y-113496698D01*
X167366000Y-113496698D01*
X167366001Y-113497137D01*
X167388500Y-113523136D01*
X167452635Y-113487915D01*
X167554406Y-113393662D01*
X167592725Y-113351935D01*
X167646901Y-113280517D01*
X167658713Y-113242816D01*
X167654324Y-113241213D01*
X167608303Y-113263212D01*
X167534795Y-113318552D01*
X167455464Y-113388441D01*
X167391977Y-113454087D01*
X167366000Y-113496698D01*
X164787393Y-113496698D01*
X164742703Y-113437409D01*
X164616451Y-113356154D01*
X164474291Y-113330735D01*
X164370757Y-113355550D01*
X164336704Y-113363712D01*
X164224171Y-113457648D01*
X164209166Y-113478993D01*
X164179361Y-113536174D01*
X164158674Y-113611003D01*
X164144829Y-113718608D01*
X164135547Y-113874114D01*
X164128550Y-114092648D01*
X164120487Y-114314096D01*
X164107999Y-114485032D01*
X164091285Y-114584905D01*
X164069935Y-114617379D01*
X164068706Y-114617308D01*
X164015375Y-114596936D01*
X163909902Y-114545491D01*
X163766985Y-114470443D01*
X163601324Y-114379261D01*
X163506294Y-114325183D01*
X163342871Y-114226392D01*
X163232893Y-114148199D01*
X163164595Y-114081654D01*
X163126210Y-114017805D01*
X163125519Y-114016126D01*
X163102771Y-113922139D01*
X163087075Y-113766741D01*
X163078065Y-113544427D01*
X163076157Y-113335173D01*
X163701724Y-113335173D01*
X163710548Y-113354457D01*
X163764049Y-113395633D01*
X163822211Y-113380763D01*
X163841895Y-113355550D01*
X163837962Y-113307674D01*
X163767667Y-113288769D01*
X163720986Y-113298302D01*
X163701724Y-113335173D01*
X163076157Y-113335173D01*
X163075377Y-113249692D01*
X164630615Y-113249692D01*
X164631063Y-113258536D01*
X164647848Y-113288769D01*
X164654116Y-113286971D01*
X164689231Y-113249692D01*
X164695337Y-113234555D01*
X164671998Y-113210616D01*
X164660656Y-113212117D01*
X164630615Y-113249692D01*
X163075377Y-113249692D01*
X163073884Y-113079692D01*
X167447339Y-113079692D01*
X167462085Y-113129862D01*
X167482353Y-113149541D01*
X167553921Y-113170296D01*
X167579692Y-113168879D01*
X167593604Y-113154442D01*
X167544699Y-113112084D01*
X167532295Y-113104788D01*
X167787260Y-113104788D01*
X167829347Y-113154442D01*
X167851611Y-113180709D01*
X167882435Y-113199378D01*
X167920436Y-113202140D01*
X167972309Y-113169648D01*
X168059615Y-113092790D01*
X168145988Y-113005720D01*
X168179308Y-112941924D01*
X168145197Y-112907993D01*
X168043154Y-112898000D01*
X167951994Y-112908064D01*
X167847191Y-112954090D01*
X167812806Y-112995692D01*
X167789033Y-113024456D01*
X167787260Y-113104788D01*
X167532295Y-113104788D01*
X167483785Y-113076255D01*
X167447339Y-113079692D01*
X163073884Y-113079692D01*
X163073306Y-113013887D01*
X163072472Y-112995692D01*
X164591538Y-112995692D01*
X164611077Y-113015231D01*
X164630615Y-112995692D01*
X164611077Y-112976154D01*
X164591538Y-112995692D01*
X163072472Y-112995692D01*
X163057287Y-112664453D01*
X163052447Y-112623484D01*
X163815337Y-112623484D01*
X163824512Y-112678568D01*
X163888154Y-112702616D01*
X163933579Y-112709943D01*
X163966308Y-112741692D01*
X163967443Y-112751033D01*
X164005384Y-112780769D01*
X164022640Y-112780351D01*
X164040631Y-112769080D01*
X164033841Y-112726292D01*
X164019313Y-112683077D01*
X168499231Y-112683077D01*
X168518769Y-112702616D01*
X168538308Y-112683077D01*
X168518769Y-112663539D01*
X168499231Y-112683077D01*
X164019313Y-112683077D01*
X164001759Y-112630858D01*
X163976412Y-112567913D01*
X163939575Y-112531830D01*
X163884528Y-112548248D01*
X163861230Y-112562955D01*
X163815337Y-112623484D01*
X163052447Y-112623484D01*
X163021848Y-112364454D01*
X163005931Y-112292308D01*
X164005384Y-112292308D01*
X164024923Y-112311846D01*
X164044461Y-112292308D01*
X169007231Y-112292308D01*
X169026769Y-112311846D01*
X169046308Y-112292308D01*
X169026769Y-112272769D01*
X169007231Y-112292308D01*
X164044461Y-112292308D01*
X164024923Y-112272769D01*
X164005384Y-112292308D01*
X163005931Y-112292308D01*
X162997818Y-112255537D01*
X167483231Y-112255537D01*
X167484247Y-112259437D01*
X167522308Y-112272769D01*
X167533018Y-112271179D01*
X167561384Y-112231386D01*
X167558316Y-112217252D01*
X167522308Y-112214154D01*
X167510613Y-112222174D01*
X167483231Y-112255537D01*
X162997818Y-112255537D01*
X162979306Y-112171628D01*
X168077087Y-112171628D01*
X168106256Y-112215929D01*
X168169157Y-112227074D01*
X168209544Y-112214154D01*
X168890000Y-112214154D01*
X168909538Y-112233692D01*
X168929077Y-112214154D01*
X168909538Y-112194616D01*
X168890000Y-112214154D01*
X168209544Y-112214154D01*
X168235977Y-112205698D01*
X168276902Y-112152440D01*
X168283196Y-112121216D01*
X168271887Y-112096138D01*
X169054656Y-112096138D01*
X169057186Y-112121216D01*
X169059333Y-112142513D01*
X169071087Y-112148626D01*
X169085384Y-112116462D01*
X169082564Y-112095774D01*
X169059333Y-112090410D01*
X169054656Y-112096138D01*
X168271887Y-112096138D01*
X168266960Y-112085213D01*
X168193662Y-112084853D01*
X168121174Y-112108334D01*
X168078283Y-112156685D01*
X168077087Y-112171628D01*
X162979306Y-112171628D01*
X162962722Y-112096462D01*
X162875642Y-111843046D01*
X162806190Y-111693858D01*
X163838952Y-111693858D01*
X163917962Y-111772869D01*
X163930744Y-111784362D01*
X164030940Y-111842092D01*
X164153142Y-111880437D01*
X164247937Y-111893843D01*
X164293023Y-111884533D01*
X164297107Y-111846651D01*
X164291926Y-111817388D01*
X164281913Y-111736362D01*
X164254040Y-111686620D01*
X164184208Y-111626358D01*
X164129283Y-111596392D01*
X165811416Y-111596392D01*
X165846841Y-111736990D01*
X165916518Y-111846651D01*
X165928034Y-111864777D01*
X166056287Y-111993430D01*
X166177950Y-112074134D01*
X166347766Y-112117213D01*
X166514559Y-112091053D01*
X166663467Y-111998735D01*
X166779631Y-111843345D01*
X166825022Y-111733557D01*
X166851864Y-111569435D01*
X167699132Y-111569435D01*
X167705027Y-111631820D01*
X167708916Y-111640164D01*
X167754503Y-111678529D01*
X167808714Y-111684509D01*
X167834923Y-111652323D01*
X167834425Y-111646171D01*
X167810074Y-111605174D01*
X168694615Y-111605174D01*
X168713974Y-111652323D01*
X168719517Y-111665824D01*
X168792483Y-111720480D01*
X168880231Y-111734775D01*
X168950822Y-111711406D01*
X168958592Y-111666504D01*
X168895651Y-111594037D01*
X168873099Y-111577487D01*
X168795445Y-111553148D01*
X168725199Y-111562973D01*
X168694615Y-111605174D01*
X167810074Y-111605174D01*
X167803872Y-111594733D01*
X167750098Y-111555321D01*
X167707020Y-111554006D01*
X167704010Y-111559893D01*
X167699132Y-111569435D01*
X166851864Y-111569435D01*
X166853425Y-111559893D01*
X166845887Y-111483550D01*
X167913318Y-111483550D01*
X167940856Y-111491231D01*
X167975746Y-111477710D01*
X168035292Y-111422846D01*
X168061385Y-111388638D01*
X168063913Y-111375034D01*
X168010769Y-111411789D01*
X167957046Y-111450990D01*
X167916333Y-111480173D01*
X167913318Y-111483550D01*
X166845887Y-111483550D01*
X166833713Y-111360243D01*
X166799010Y-111236445D01*
X169875272Y-111236445D01*
X169879949Y-111282821D01*
X169891702Y-111288934D01*
X169906000Y-111256769D01*
X169903180Y-111236082D01*
X169879949Y-111230718D01*
X169875272Y-111236445D01*
X166799010Y-111236445D01*
X166771198Y-111137232D01*
X167405077Y-111137232D01*
X167409111Y-111158875D01*
X167448607Y-111198482D01*
X167497319Y-111190579D01*
X167507928Y-111178412D01*
X167517585Y-111124460D01*
X167463692Y-111100462D01*
X167436762Y-111104599D01*
X167405077Y-111137232D01*
X166771198Y-111137232D01*
X166765548Y-111117075D01*
X166663280Y-110839702D01*
X166613146Y-110729231D01*
X167209692Y-110729231D01*
X167229231Y-110748769D01*
X167248769Y-110729231D01*
X167229231Y-110709692D01*
X167209692Y-110729231D01*
X166613146Y-110729231D01*
X166561364Y-110615127D01*
X166465639Y-110462891D01*
X166374381Y-110380291D01*
X166285866Y-110364621D01*
X166280568Y-110365729D01*
X166243056Y-110381452D01*
X166206702Y-110417549D01*
X166165880Y-110484615D01*
X166114963Y-110593246D01*
X166048324Y-110754037D01*
X165960335Y-110977583D01*
X165872699Y-111222054D01*
X165820466Y-111429305D01*
X165816053Y-111510769D01*
X165811416Y-111596392D01*
X164129283Y-111596392D01*
X164116301Y-111589309D01*
X164054242Y-111588994D01*
X163964223Y-111629078D01*
X163838952Y-111693858D01*
X162806190Y-111693858D01*
X162756340Y-111586776D01*
X162713523Y-111510769D01*
X163966308Y-111510769D01*
X163985846Y-111530308D01*
X164005384Y-111510769D01*
X163985846Y-111491231D01*
X163966308Y-111510769D01*
X162713523Y-111510769D01*
X162600550Y-111310223D01*
X162480253Y-111109676D01*
X162778474Y-110968051D01*
X163076696Y-110826427D01*
X163280175Y-110942846D01*
X163291700Y-110949386D01*
X163573316Y-111073420D01*
X163850732Y-111123252D01*
X164135572Y-111101030D01*
X164337341Y-111048482D01*
X164647653Y-110907321D01*
X164914646Y-110703106D01*
X165136445Y-110438282D01*
X165311178Y-110115293D01*
X165436973Y-109736584D01*
X165511956Y-109304598D01*
X165516401Y-109264093D01*
X165535580Y-109139827D01*
X165539883Y-109128518D01*
X167159526Y-109128518D01*
X167165852Y-109470638D01*
X167225660Y-109791385D01*
X167268753Y-109921002D01*
X167403192Y-110208136D01*
X167579308Y-110475796D01*
X167785043Y-110709380D01*
X167809015Y-110729231D01*
X168008337Y-110894289D01*
X168237128Y-111015920D01*
X168554469Y-111100893D01*
X168860536Y-111111908D01*
X169148733Y-111046881D01*
X169418404Y-110905960D01*
X169464602Y-110866000D01*
X170257692Y-110866000D01*
X170264305Y-110883977D01*
X170316308Y-110905077D01*
X170343272Y-110900668D01*
X170374923Y-110866000D01*
X170368310Y-110848024D01*
X170316308Y-110826923D01*
X170289343Y-110831332D01*
X170257692Y-110866000D01*
X169464602Y-110866000D01*
X169668895Y-110689294D01*
X169704034Y-110651397D01*
X169876082Y-110431096D01*
X169933897Y-110318795D01*
X170395919Y-110318795D01*
X170401238Y-110355409D01*
X170432016Y-110321387D01*
X170432190Y-110321110D01*
X170485391Y-110297943D01*
X170576355Y-110300450D01*
X170637175Y-110304340D01*
X170680018Y-110281109D01*
X170660193Y-110235543D01*
X170577549Y-110182657D01*
X170526053Y-110144319D01*
X170489516Y-110045888D01*
X170483990Y-110016502D01*
X170465080Y-110043804D01*
X170459257Y-110062617D01*
X170434356Y-110143077D01*
X170424361Y-110182154D01*
X170416016Y-110214787D01*
X170395919Y-110318795D01*
X169933897Y-110318795D01*
X169996267Y-110197646D01*
X170001013Y-110182154D01*
X170296769Y-110182154D01*
X170316308Y-110201692D01*
X170335846Y-110182154D01*
X170316308Y-110162616D01*
X170296769Y-110182154D01*
X170001013Y-110182154D01*
X170030232Y-110086768D01*
X170296769Y-110086768D01*
X170297888Y-110095492D01*
X170335846Y-110123539D01*
X170354521Y-110116083D01*
X170374923Y-110062617D01*
X170369300Y-110034705D01*
X170335846Y-110025846D01*
X170325174Y-110033845D01*
X170296769Y-110086768D01*
X170030232Y-110086768D01*
X170059259Y-109992010D01*
X170733527Y-109992010D01*
X170765692Y-110006308D01*
X170786379Y-110003488D01*
X170791743Y-109980257D01*
X170786016Y-109975580D01*
X170739641Y-109980257D01*
X170733527Y-109992010D01*
X170059259Y-109992010D01*
X170081435Y-109919615D01*
X170091708Y-109869539D01*
X170492154Y-109869539D01*
X170511692Y-109889077D01*
X170531231Y-109869539D01*
X170511692Y-109850000D01*
X170492154Y-109869539D01*
X170091708Y-109869539D01*
X170106840Y-109795781D01*
X170138274Y-109402436D01*
X170118416Y-109220765D01*
X170462388Y-109220765D01*
X170463543Y-109307341D01*
X170470449Y-109342000D01*
X170493284Y-109310601D01*
X170509293Y-109234594D01*
X170513456Y-109148447D01*
X170506073Y-109110083D01*
X171205119Y-109110083D01*
X171215077Y-109146616D01*
X171216348Y-109148447D01*
X171223105Y-109158183D01*
X171258766Y-109185692D01*
X171264111Y-109183148D01*
X171254154Y-109146616D01*
X171246125Y-109135048D01*
X171210464Y-109107539D01*
X171205119Y-109110083D01*
X170506073Y-109110083D01*
X170501567Y-109086669D01*
X170492754Y-109074595D01*
X170473445Y-109091743D01*
X170463445Y-109185839D01*
X170462388Y-109220765D01*
X170118416Y-109220765D01*
X170096268Y-109018152D01*
X169983360Y-108652129D01*
X169917578Y-108529266D01*
X170104339Y-108529266D01*
X170124554Y-108599874D01*
X170143800Y-108640489D01*
X170168896Y-108656212D01*
X170207007Y-108603724D01*
X170214618Y-108591158D01*
X170224330Y-108560462D01*
X170843846Y-108560462D01*
X170850459Y-108578438D01*
X170902461Y-108599539D01*
X170929426Y-108595130D01*
X170943239Y-108580000D01*
X171000154Y-108580000D01*
X171019692Y-108599539D01*
X171039231Y-108580000D01*
X171019692Y-108560462D01*
X171000154Y-108580000D01*
X170943239Y-108580000D01*
X170961077Y-108560462D01*
X170954464Y-108542485D01*
X170902461Y-108521385D01*
X170875497Y-108525793D01*
X170866928Y-108535178D01*
X170843846Y-108560462D01*
X170224330Y-108560462D01*
X170232329Y-108535178D01*
X170191645Y-108504402D01*
X170157800Y-108495152D01*
X170109191Y-108500552D01*
X170104339Y-108529266D01*
X169917578Y-108529266D01*
X169892436Y-108482308D01*
X170394461Y-108482308D01*
X170402460Y-108492980D01*
X170455383Y-108521385D01*
X170464107Y-108520266D01*
X170492154Y-108482308D01*
X170484698Y-108463633D01*
X170431232Y-108443231D01*
X170403320Y-108448854D01*
X170394461Y-108482308D01*
X169892436Y-108482308D01*
X169802089Y-108313565D01*
X169554993Y-108011657D01*
X169547706Y-108004378D01*
X169481987Y-107951070D01*
X170861843Y-107951070D01*
X170862327Y-108011673D01*
X170871733Y-108024968D01*
X170931286Y-108049079D01*
X171010008Y-107997948D01*
X171063903Y-107967943D01*
X171169107Y-107963426D01*
X171178977Y-107965221D01*
X171252642Y-107964419D01*
X171273692Y-107921623D01*
X171268338Y-107889224D01*
X171218754Y-107828474D01*
X171143740Y-107807595D01*
X171076758Y-107839845D01*
X171076150Y-107840138D01*
X171039905Y-107870225D01*
X170977212Y-107880717D01*
X170968278Y-107878160D01*
X170906566Y-107895844D01*
X170861843Y-107951070D01*
X169481987Y-107951070D01*
X169343766Y-107838953D01*
X170395138Y-107838953D01*
X170435737Y-107872052D01*
X170485003Y-107889426D01*
X170523813Y-107887398D01*
X170531231Y-107839845D01*
X170522321Y-107792725D01*
X170477572Y-107759842D01*
X170417430Y-107794328D01*
X170395138Y-107838953D01*
X169343766Y-107838953D01*
X169285269Y-107791503D01*
X169003627Y-107648471D01*
X168711955Y-107574431D01*
X168419428Y-107568532D01*
X168135221Y-107629924D01*
X167868508Y-107757754D01*
X167628464Y-107951171D01*
X167424265Y-108209325D01*
X167296250Y-108468402D01*
X167203916Y-108787087D01*
X167159526Y-109128518D01*
X165539883Y-109128518D01*
X165568620Y-109052993D01*
X165630861Y-108974374D01*
X165737644Y-108874752D01*
X165892807Y-108731187D01*
X166127380Y-108501409D01*
X166381927Y-108240699D01*
X166640841Y-107965703D01*
X166888512Y-107693069D01*
X167109332Y-107439447D01*
X167163005Y-107373856D01*
X170030143Y-107373856D01*
X170062308Y-107388154D01*
X170082995Y-107385334D01*
X170088359Y-107362103D01*
X170082631Y-107357426D01*
X170036256Y-107362103D01*
X170030143Y-107373856D01*
X167163005Y-107373856D01*
X167287692Y-107221483D01*
X167303677Y-107201294D01*
X167387352Y-107105474D01*
X167450024Y-107049800D01*
X167479167Y-107045769D01*
X167533637Y-107119207D01*
X167629769Y-107153094D01*
X167656719Y-107133369D01*
X167882349Y-107133369D01*
X167887026Y-107179744D01*
X167898779Y-107185857D01*
X167913077Y-107153692D01*
X167910257Y-107133005D01*
X167887026Y-107127641D01*
X167882349Y-107133369D01*
X167656719Y-107133369D01*
X167667256Y-107125657D01*
X167677277Y-107057535D01*
X167659484Y-106980662D01*
X167615849Y-106927066D01*
X167604590Y-106918309D01*
X167597149Y-106887794D01*
X167616970Y-106833602D01*
X167669352Y-106746322D01*
X167709922Y-106687976D01*
X170023231Y-106687976D01*
X170023298Y-106689337D01*
X170053052Y-106695503D01*
X170120621Y-106661835D01*
X170190094Y-106630133D01*
X170267434Y-106621482D01*
X170316826Y-106641509D01*
X170314832Y-106687157D01*
X170299171Y-106702912D01*
X170237058Y-106709295D01*
X170209037Y-106705482D01*
X170145904Y-106736826D01*
X170134919Y-106758149D01*
X170163967Y-106778422D01*
X170260278Y-106784238D01*
X170292866Y-106784107D01*
X170379320Y-106782118D01*
X170414000Y-106778494D01*
X170411722Y-106770436D01*
X170391405Y-106709883D01*
X170356875Y-106610840D01*
X170343998Y-106570748D01*
X170320156Y-106458640D01*
X170320749Y-106381235D01*
X170328699Y-106354925D01*
X170329827Y-106335323D01*
X170297778Y-106381923D01*
X170246724Y-106425437D01*
X170153501Y-106450308D01*
X170126939Y-106451023D01*
X170073188Y-106470267D01*
X170073620Y-106528423D01*
X170078856Y-106577880D01*
X170058639Y-106628421D01*
X170051468Y-106633635D01*
X170023231Y-106687976D01*
X167709922Y-106687976D01*
X167759592Y-106616544D01*
X167892991Y-106434858D01*
X168035766Y-106237691D01*
X168108461Y-106237691D01*
X168108842Y-106243154D01*
X168131462Y-106251759D01*
X168170808Y-106209809D01*
X168180316Y-106187971D01*
X168153576Y-106192576D01*
X168136217Y-106204639D01*
X168108461Y-106237691D01*
X168035766Y-106237691D01*
X168042730Y-106228074D01*
X168200844Y-106000923D01*
X168264769Y-106000923D01*
X168284308Y-106020462D01*
X168303846Y-106000923D01*
X168284308Y-105981385D01*
X168264769Y-106000923D01*
X168200844Y-106000923D01*
X168209846Y-105987991D01*
X168280978Y-105882162D01*
X169702772Y-105882162D01*
X169708173Y-105916419D01*
X169727179Y-105942958D01*
X169743006Y-106000923D01*
X169749692Y-106025415D01*
X169750330Y-106032596D01*
X169790172Y-106095499D01*
X169872927Y-106154369D01*
X169910494Y-106172495D01*
X169950663Y-106187971D01*
X170007847Y-106210003D01*
X170049391Y-106207617D01*
X170029651Y-106164967D01*
X170009967Y-106125243D01*
X170007199Y-106037967D01*
X170012934Y-106006978D01*
X169992279Y-105909508D01*
X169915260Y-105852675D01*
X169795930Y-105849045D01*
X169768675Y-105855015D01*
X169702772Y-105882162D01*
X168280978Y-105882162D01*
X168369891Y-105749880D01*
X168447125Y-105629692D01*
X169378461Y-105629692D01*
X169386482Y-105641387D01*
X169419845Y-105668769D01*
X169423744Y-105667753D01*
X169437077Y-105629692D01*
X169435487Y-105618982D01*
X169395694Y-105590616D01*
X169381560Y-105593684D01*
X169378461Y-105629692D01*
X168447125Y-105629692D01*
X168502436Y-105543619D01*
X168521505Y-105512929D01*
X168621130Y-105353466D01*
X168704399Y-105221596D01*
X168763077Y-105130288D01*
X168788927Y-105092509D01*
X168801337Y-105090529D01*
X168870298Y-105113420D01*
X168985025Y-105167857D01*
X169131881Y-105246151D01*
X169297225Y-105340618D01*
X169467420Y-105443570D01*
X169628826Y-105547321D01*
X169747012Y-105629692D01*
X169767805Y-105644184D01*
X169933713Y-105773506D01*
X170237502Y-106044038D01*
X170396486Y-106207617D01*
X170529898Y-106344886D01*
X170796372Y-106659540D01*
G36*
X169667909Y-109456776D02*
G01*
X169649743Y-109487400D01*
X169596975Y-109501555D01*
X169495101Y-109503937D01*
X169329615Y-109499244D01*
X169085384Y-109491191D01*
X169085384Y-109703160D01*
X169083317Y-109787765D01*
X169073860Y-109890395D01*
X169059333Y-109941180D01*
X169043106Y-109954771D01*
X169008922Y-109962274D01*
X168956274Y-109942025D01*
X168870735Y-109887303D01*
X168737881Y-109791385D01*
X168715460Y-109774942D01*
X168602353Y-109694023D01*
X168518117Y-109637069D01*
X168479582Y-109615539D01*
X168477910Y-109616016D01*
X168465315Y-109657188D01*
X168460154Y-109744492D01*
X168460141Y-109747550D01*
X168446292Y-109850428D01*
X168414191Y-109919409D01*
X168364750Y-109946846D01*
X168313100Y-109917865D01*
X168277826Y-109827492D01*
X168264769Y-109684897D01*
X168264769Y-109490286D01*
X168005507Y-109504066D01*
X167933707Y-109507218D01*
X167813440Y-109505472D01*
X167743497Y-109488391D01*
X167704927Y-109452737D01*
X167684698Y-109401981D01*
X167686602Y-109397057D01*
X168529519Y-109397057D01*
X168641375Y-109488691D01*
X168750484Y-109575780D01*
X168829337Y-109623949D01*
X168870956Y-109613491D01*
X168887218Y-109540153D01*
X168890000Y-109399684D01*
X168889415Y-109284622D01*
X168879778Y-109198450D01*
X168847549Y-109176029D01*
X168779129Y-109211342D01*
X168660913Y-109298375D01*
X168529519Y-109397057D01*
X167686602Y-109397057D01*
X167713497Y-109327516D01*
X167722623Y-109317665D01*
X167775058Y-109289686D01*
X167864964Y-109281478D01*
X168011964Y-109290617D01*
X168260544Y-109313830D01*
X168272426Y-109083684D01*
X168278083Y-108995724D01*
X168291994Y-108904859D01*
X168317798Y-108863400D01*
X168362461Y-108853539D01*
X168407084Y-108863427D01*
X168440326Y-108913045D01*
X168460154Y-109021788D01*
X168479692Y-109190038D01*
X168724228Y-109007955D01*
X168750288Y-108988696D01*
X168893448Y-108892247D01*
X168990091Y-108852306D01*
X169048663Y-108870813D01*
X169077612Y-108949710D01*
X169085384Y-109090936D01*
X169085384Y-109311247D01*
X169652000Y-109283385D01*
X169664365Y-109390846D01*
X169665376Y-109399684D01*
X169665981Y-109404985D01*
X169667909Y-109456776D01*
G37*
X169667909Y-109456776D02*
X169649743Y-109487400D01*
X169596975Y-109501555D01*
X169495101Y-109503937D01*
X169329615Y-109499244D01*
X169085384Y-109491191D01*
X169085384Y-109703160D01*
X169083317Y-109787765D01*
X169073860Y-109890395D01*
X169059333Y-109941180D01*
X169043106Y-109954771D01*
X169008922Y-109962274D01*
X168956274Y-109942025D01*
X168870735Y-109887303D01*
X168737881Y-109791385D01*
X168715460Y-109774942D01*
X168602353Y-109694023D01*
X168518117Y-109637069D01*
X168479582Y-109615539D01*
X168477910Y-109616016D01*
X168465315Y-109657188D01*
X168460154Y-109744492D01*
X168460141Y-109747550D01*
X168446292Y-109850428D01*
X168414191Y-109919409D01*
X168364750Y-109946846D01*
X168313100Y-109917865D01*
X168277826Y-109827492D01*
X168264769Y-109684897D01*
X168264769Y-109490286D01*
X168005507Y-109504066D01*
X167933707Y-109507218D01*
X167813440Y-109505472D01*
X167743497Y-109488391D01*
X167704927Y-109452737D01*
X167684698Y-109401981D01*
X167686602Y-109397057D01*
X168529519Y-109397057D01*
X168641375Y-109488691D01*
X168750484Y-109575780D01*
X168829337Y-109623949D01*
X168870956Y-109613491D01*
X168887218Y-109540153D01*
X168890000Y-109399684D01*
X168889415Y-109284622D01*
X168879778Y-109198450D01*
X168847549Y-109176029D01*
X168779129Y-109211342D01*
X168660913Y-109298375D01*
X168529519Y-109397057D01*
X167686602Y-109397057D01*
X167713497Y-109327516D01*
X167722623Y-109317665D01*
X167775058Y-109289686D01*
X167864964Y-109281478D01*
X168011964Y-109290617D01*
X168260544Y-109313830D01*
X168272426Y-109083684D01*
X168278083Y-108995724D01*
X168291994Y-108904859D01*
X168317798Y-108863400D01*
X168362461Y-108853539D01*
X168407084Y-108863427D01*
X168440326Y-108913045D01*
X168460154Y-109021788D01*
X168479692Y-109190038D01*
X168724228Y-109007955D01*
X168750288Y-108988696D01*
X168893448Y-108892247D01*
X168990091Y-108852306D01*
X169048663Y-108870813D01*
X169077612Y-108949710D01*
X169085384Y-109090936D01*
X169085384Y-109311247D01*
X169652000Y-109283385D01*
X169664365Y-109390846D01*
X169665376Y-109399684D01*
X169665981Y-109404985D01*
X169667909Y-109456776D01*
D12*
%TO.C,D1*%
X137973621Y-101931252D02*
X138332831Y-101572042D01*
X136104596Y-99561596D02*
X136445846Y-99902845D01*
X138404673Y-100530332D02*
X137650332Y-101284673D01*
X137650332Y-101284673D02*
X136985793Y-99865793D01*
X141232252Y-102839460D02*
X141333934Y-102941142D01*
X137973621Y-101572042D02*
X138314871Y-101913291D01*
X136554741Y-100260924D02*
X137380924Y-99434741D01*
X136985793Y-99829872D02*
X138404673Y-100530332D01*
X136985793Y-99829872D02*
X136554741Y-99398820D01*
X138045463Y-100925463D02*
X138548358Y-101428358D01*
X142816329Y-104454982D02*
G75*
G03*
X141333934Y-102941142I-1376328J134983D01*
G01*
X140063672Y-104185018D02*
G75*
G03*
X141546066Y-105698858I1376328J-134982D01*
G01*
%TO.C,D2*%
X163592682Y-100760090D02*
X165011562Y-100095551D01*
X162037895Y-104342010D02*
X161936213Y-104443692D01*
X163951892Y-101155221D02*
X163448997Y-101658116D01*
X165047483Y-100095551D02*
X164347023Y-101514431D01*
X165047483Y-100095551D02*
X165478535Y-99664499D01*
X164616431Y-99664499D02*
X165442614Y-100490682D01*
X162946103Y-101083379D02*
X163305313Y-101442589D01*
X163305313Y-101083379D02*
X162964064Y-101424629D01*
X165315759Y-99214354D02*
X164974510Y-99555604D01*
X164347023Y-101514431D02*
X163592682Y-100760090D01*
X160422373Y-105926087D02*
G75*
G03*
X161936213Y-104443692I134983J1376328D01*
G01*
X160692337Y-103173430D02*
G75*
G03*
X159178497Y-104655824I-134982J-1376328D01*
G01*
%TO.C,G\u002A\u002A\u002A*%
G36*
X168366666Y-87783125D02*
G01*
X169005473Y-87776049D01*
X169069624Y-87773239D01*
X169663715Y-87747218D01*
X169918888Y-87703750D01*
X169926449Y-87684927D01*
X170183303Y-87624375D01*
X170194461Y-87624884D01*
X170299690Y-87706353D01*
X170347437Y-87893437D01*
X170342815Y-88137888D01*
X170290935Y-88391458D01*
X170196909Y-88605899D01*
X170065848Y-88732963D01*
X169944513Y-88765427D01*
X169410455Y-88809501D01*
X168786683Y-88802671D01*
X168383041Y-88743076D01*
X168214648Y-88710138D01*
X167711670Y-88708907D01*
X167378567Y-88710315D01*
X166846905Y-88627563D01*
X166756618Y-88588655D01*
X166528404Y-88404780D01*
X166402824Y-88209968D01*
X166814444Y-88209968D01*
X166822458Y-88235929D01*
X167046437Y-88362221D01*
X167426531Y-88448499D01*
X167757633Y-88443894D01*
X167764377Y-88441972D01*
X167967844Y-88300866D01*
X167950936Y-88285833D01*
X168507777Y-88285833D01*
X168565699Y-88445602D01*
X168843905Y-88534464D01*
X169391551Y-88491914D01*
X169698849Y-88433966D01*
X169896608Y-88355801D01*
X169839500Y-88280473D01*
X169514402Y-88142142D01*
X169069624Y-88091159D01*
X168676854Y-88136173D01*
X168507777Y-88285833D01*
X167950936Y-88285833D01*
X167812575Y-88162818D01*
X167378888Y-88100625D01*
X167049655Y-88121291D01*
X166814444Y-88209968D01*
X166402824Y-88209968D01*
X166370130Y-88159250D01*
X166299973Y-87905878D01*
X166336111Y-87698476D01*
X166496722Y-87590858D01*
X166667218Y-87578898D01*
X166814444Y-87659378D01*
X166815015Y-87666165D01*
X166960124Y-87737173D01*
X167378888Y-87768595D01*
X167439519Y-87773144D01*
X168366666Y-87783125D01*
G37*
D11*
X168366666Y-87783125D02*
X169005473Y-87776049D01*
X169069624Y-87773239D01*
X169663715Y-87747218D01*
X169918888Y-87703750D01*
X169926449Y-87684927D01*
X170183303Y-87624375D01*
X170194461Y-87624884D01*
X170299690Y-87706353D01*
X170347437Y-87893437D01*
X170342815Y-88137888D01*
X170290935Y-88391458D01*
X170196909Y-88605899D01*
X170065848Y-88732963D01*
X169944513Y-88765427D01*
X169410455Y-88809501D01*
X168786683Y-88802671D01*
X168383041Y-88743076D01*
X168214648Y-88710138D01*
X167711670Y-88708907D01*
X167378567Y-88710315D01*
X166846905Y-88627563D01*
X166756618Y-88588655D01*
X166528404Y-88404780D01*
X166402824Y-88209968D01*
X166814444Y-88209968D01*
X166822458Y-88235929D01*
X167046437Y-88362221D01*
X167426531Y-88448499D01*
X167757633Y-88443894D01*
X167764377Y-88441972D01*
X167967844Y-88300866D01*
X167950936Y-88285833D01*
X168507777Y-88285833D01*
X168565699Y-88445602D01*
X168843905Y-88534464D01*
X169391551Y-88491914D01*
X169698849Y-88433966D01*
X169896608Y-88355801D01*
X169839500Y-88280473D01*
X169514402Y-88142142D01*
X169069624Y-88091159D01*
X168676854Y-88136173D01*
X168507777Y-88285833D01*
X167950936Y-88285833D01*
X167812575Y-88162818D01*
X167378888Y-88100625D01*
X167049655Y-88121291D01*
X166814444Y-88209968D01*
X166402824Y-88209968D01*
X166370130Y-88159250D01*
X166299973Y-87905878D01*
X166336111Y-87698476D01*
X166496722Y-87590858D01*
X166667218Y-87578898D01*
X166814444Y-87659378D01*
X166815015Y-87666165D01*
X166960124Y-87737173D01*
X167378888Y-87768595D01*
X167439519Y-87773144D01*
X168366666Y-87783125D01*
G36*
X167834142Y-97547573D02*
G01*
X168096251Y-97584621D01*
X167943333Y-97705000D01*
X167893754Y-97731753D01*
X167807702Y-97819812D01*
X168058390Y-97856447D01*
X168759376Y-97863750D01*
X169096613Y-97861245D01*
X169739286Y-97822205D01*
X170006568Y-97724843D01*
X170052007Y-97698948D01*
X170116333Y-97762876D01*
X170146092Y-97943125D01*
X170141371Y-98056701D01*
X170095039Y-98191710D01*
X170014200Y-98201093D01*
X169968764Y-98182392D01*
X169499315Y-98124442D01*
X168710037Y-98101875D01*
X168115444Y-98107523D01*
X167788830Y-98136170D01*
X167886888Y-98197125D01*
X168135591Y-98282946D01*
X168152455Y-98383837D01*
X167661111Y-98419375D01*
X167463088Y-98414718D01*
X167227092Y-98366529D01*
X167121166Y-98235101D01*
X167096666Y-97982812D01*
X167103159Y-97823359D01*
X167166769Y-97644218D01*
X167339491Y-97564444D01*
X167671040Y-97546250D01*
X167834142Y-97547573D01*
G37*
X167834142Y-97547573D02*
X168096251Y-97584621D01*
X167943333Y-97705000D01*
X167893754Y-97731753D01*
X167807702Y-97819812D01*
X168058390Y-97856447D01*
X168759376Y-97863750D01*
X169096613Y-97861245D01*
X169739286Y-97822205D01*
X170006568Y-97724843D01*
X170052007Y-97698948D01*
X170116333Y-97762876D01*
X170146092Y-97943125D01*
X170141371Y-98056701D01*
X170095039Y-98191710D01*
X170014200Y-98201093D01*
X169968764Y-98182392D01*
X169499315Y-98124442D01*
X168710037Y-98101875D01*
X168115444Y-98107523D01*
X167788830Y-98136170D01*
X167886888Y-98197125D01*
X168135591Y-98282946D01*
X168152455Y-98383837D01*
X167661111Y-98419375D01*
X167463088Y-98414718D01*
X167227092Y-98366529D01*
X167121166Y-98235101D01*
X167096666Y-97982812D01*
X167103159Y-97823359D01*
X167166769Y-97644218D01*
X167339491Y-97564444D01*
X167671040Y-97546250D01*
X167834142Y-97547573D01*
G36*
X169668706Y-100911682D02*
G01*
X170185760Y-101018906D01*
X170199477Y-101025703D01*
X170377146Y-101204891D01*
X170411450Y-101434964D01*
X170392730Y-101492467D01*
X170201428Y-101670943D01*
X169777777Y-101741846D01*
X169453403Y-101755531D01*
X169382925Y-101727030D01*
X169714026Y-101615079D01*
X169926235Y-101529895D01*
X170021425Y-101352636D01*
X169701953Y-101210721D01*
X169069452Y-101135372D01*
X168225555Y-101157812D01*
X167948089Y-101207718D01*
X167686107Y-101353203D01*
X167697133Y-101514989D01*
X168013888Y-101621405D01*
X168203349Y-101665487D01*
X167956808Y-101741844D01*
X167715203Y-101777320D01*
X167321808Y-101782890D01*
X167239186Y-101759140D01*
X167102781Y-101610414D01*
X167124933Y-101396138D01*
X167285350Y-101179867D01*
X167563740Y-101025156D01*
X168090626Y-100926865D01*
X168892400Y-100881188D01*
X169668706Y-100911682D01*
G37*
X169668706Y-100911682D02*
X170185760Y-101018906D01*
X170199477Y-101025703D01*
X170377146Y-101204891D01*
X170411450Y-101434964D01*
X170392730Y-101492467D01*
X170201428Y-101670943D01*
X169777777Y-101741846D01*
X169453403Y-101755531D01*
X169382925Y-101727030D01*
X169714026Y-101615079D01*
X169926235Y-101529895D01*
X170021425Y-101352636D01*
X169701953Y-101210721D01*
X169069452Y-101135372D01*
X168225555Y-101157812D01*
X167948089Y-101207718D01*
X167686107Y-101353203D01*
X167697133Y-101514989D01*
X168013888Y-101621405D01*
X168203349Y-101665487D01*
X167956808Y-101741844D01*
X167715203Y-101777320D01*
X167321808Y-101782890D01*
X167239186Y-101759140D01*
X167102781Y-101610414D01*
X167124933Y-101396138D01*
X167285350Y-101179867D01*
X167563740Y-101025156D01*
X168090626Y-100926865D01*
X168892400Y-100881188D01*
X169668706Y-100911682D01*
G36*
X170295827Y-100575789D02*
G01*
X170418657Y-100656757D01*
X170139679Y-100761239D01*
X169801178Y-100775100D01*
X169636666Y-100688177D01*
X169694744Y-100626409D01*
X170083518Y-100562500D01*
X170295827Y-100575789D01*
G37*
X170295827Y-100575789D02*
X170418657Y-100656757D01*
X170139679Y-100761239D01*
X169801178Y-100775100D01*
X169636666Y-100688177D01*
X169694744Y-100626409D01*
X170083518Y-100562500D01*
X170295827Y-100575789D01*
G36*
X170159434Y-94747174D02*
G01*
X170201111Y-94899409D01*
X170198602Y-94960644D01*
X170114375Y-95073821D01*
X169790531Y-95110570D01*
X169066912Y-95099086D01*
X168905472Y-95095731D01*
X168070183Y-95108746D01*
X167514690Y-95166239D01*
X167308543Y-95206341D01*
X167137198Y-95181173D01*
X167096666Y-95023522D01*
X167099413Y-94950854D01*
X167182912Y-94838156D01*
X167504009Y-94805820D01*
X168222855Y-94825714D01*
X169139049Y-94831008D01*
X169775077Y-94768755D01*
X169979838Y-94727803D01*
X170159434Y-94747174D01*
G37*
X170159434Y-94747174D02*
X170201111Y-94899409D01*
X170198602Y-94960644D01*
X170114375Y-95073821D01*
X169790531Y-95110570D01*
X169066912Y-95099086D01*
X168905472Y-95095731D01*
X168070183Y-95108746D01*
X167514690Y-95166239D01*
X167308543Y-95206341D01*
X167137198Y-95181173D01*
X167096666Y-95023522D01*
X167099413Y-94950854D01*
X167182912Y-94838156D01*
X167504009Y-94805820D01*
X168222855Y-94825714D01*
X169139049Y-94831008D01*
X169775077Y-94768755D01*
X169979838Y-94727803D01*
X170159434Y-94747174D01*
G36*
X169242020Y-96640707D02*
G01*
X169819474Y-96519962D01*
X170031777Y-96439249D01*
X169993024Y-96347139D01*
X169841140Y-96227792D01*
X169484398Y-96166966D01*
X169101888Y-96158770D01*
X168479432Y-96218005D01*
X168333204Y-96241731D01*
X167893592Y-96266274D01*
X167502811Y-96161860D01*
X167230066Y-95987388D01*
X167195991Y-95924882D01*
X167661111Y-95924882D01*
X167728823Y-95989908D01*
X168131613Y-96024101D01*
X168310067Y-96010110D01*
X168673495Y-95930331D01*
X168662847Y-95841820D01*
X168249074Y-95800000D01*
X167898511Y-95821835D01*
X167661111Y-95924882D01*
X167195991Y-95924882D01*
X167108880Y-95765089D01*
X167154739Y-95561812D01*
X167378888Y-95442812D01*
X167488211Y-95430409D01*
X167661111Y-95477815D01*
X167846002Y-95529183D01*
X168249074Y-95550488D01*
X168388435Y-95557853D01*
X169075625Y-95555388D01*
X169690053Y-95523189D01*
X170014200Y-95462656D01*
X170113719Y-95441872D01*
X170178830Y-95542031D01*
X170173719Y-95699240D01*
X170040162Y-95806853D01*
X169707222Y-95815825D01*
X169679367Y-95814087D01*
X169387001Y-95819219D01*
X169508969Y-95901177D01*
X170060000Y-96070596D01*
X170509871Y-96238591D01*
X170765555Y-96540114D01*
X170739936Y-96684581D01*
X170564767Y-96784223D01*
X170130555Y-96801691D01*
X170036933Y-96800864D01*
X169608006Y-96840906D01*
X169495555Y-96990625D01*
X169578411Y-97120061D01*
X169918888Y-97189062D01*
X169928434Y-97189089D01*
X170266036Y-97240751D01*
X170328047Y-97336935D01*
X170060000Y-97397273D01*
X169956989Y-97397740D01*
X169389883Y-97362226D01*
X168651995Y-97285478D01*
X167920355Y-97189953D01*
X167371997Y-97098111D01*
X167183950Y-97032411D01*
X167342271Y-96980721D01*
X167527564Y-96942445D01*
X168225555Y-96942445D01*
X168277550Y-96962989D01*
X168648888Y-97019329D01*
X168865351Y-97031807D01*
X169072222Y-96988133D01*
X169024531Y-96952789D01*
X168648888Y-96911250D01*
X168456013Y-96914697D01*
X168225555Y-96942445D01*
X167527564Y-96942445D01*
X167887283Y-96868138D01*
X168648888Y-96740134D01*
X168668104Y-96736905D01*
X169242020Y-96640707D01*
G37*
X169242020Y-96640707D02*
X169819474Y-96519962D01*
X170031777Y-96439249D01*
X169993024Y-96347139D01*
X169841140Y-96227792D01*
X169484398Y-96166966D01*
X169101888Y-96158770D01*
X168479432Y-96218005D01*
X168333204Y-96241731D01*
X167893592Y-96266274D01*
X167502811Y-96161860D01*
X167230066Y-95987388D01*
X167195991Y-95924882D01*
X167661111Y-95924882D01*
X167728823Y-95989908D01*
X168131613Y-96024101D01*
X168310067Y-96010110D01*
X168673495Y-95930331D01*
X168662847Y-95841820D01*
X168249074Y-95800000D01*
X167898511Y-95821835D01*
X167661111Y-95924882D01*
X167195991Y-95924882D01*
X167108880Y-95765089D01*
X167154739Y-95561812D01*
X167378888Y-95442812D01*
X167488211Y-95430409D01*
X167661111Y-95477815D01*
X167846002Y-95529183D01*
X168249074Y-95550488D01*
X168388435Y-95557853D01*
X169075625Y-95555388D01*
X169690053Y-95523189D01*
X170014200Y-95462656D01*
X170113719Y-95441872D01*
X170178830Y-95542031D01*
X170173719Y-95699240D01*
X170040162Y-95806853D01*
X169707222Y-95815825D01*
X169679367Y-95814087D01*
X169387001Y-95819219D01*
X169508969Y-95901177D01*
X170060000Y-96070596D01*
X170509871Y-96238591D01*
X170765555Y-96540114D01*
X170739936Y-96684581D01*
X170564767Y-96784223D01*
X170130555Y-96801691D01*
X170036933Y-96800864D01*
X169608006Y-96840906D01*
X169495555Y-96990625D01*
X169578411Y-97120061D01*
X169918888Y-97189062D01*
X169928434Y-97189089D01*
X170266036Y-97240751D01*
X170328047Y-97336935D01*
X170060000Y-97397273D01*
X169956989Y-97397740D01*
X169389883Y-97362226D01*
X168651995Y-97285478D01*
X167920355Y-97189953D01*
X167371997Y-97098111D01*
X167183950Y-97032411D01*
X167342271Y-96980721D01*
X167527564Y-96942445D01*
X168225555Y-96942445D01*
X168277550Y-96962989D01*
X168648888Y-97019329D01*
X168865351Y-97031807D01*
X169072222Y-96988133D01*
X169024531Y-96952789D01*
X168648888Y-96911250D01*
X168456013Y-96914697D01*
X168225555Y-96942445D01*
X167527564Y-96942445D01*
X167887283Y-96868138D01*
X168648888Y-96740134D01*
X168668104Y-96736905D01*
X169242020Y-96640707D01*
G36*
X169943749Y-98648904D02*
G01*
X170002034Y-98626471D01*
X170148055Y-98636529D01*
X170196789Y-98796693D01*
X170204888Y-98841763D01*
X170401742Y-99096340D01*
X170778264Y-99352318D01*
X171166282Y-99653826D01*
X171123197Y-99980390D01*
X170566108Y-100263129D01*
X170466972Y-100291435D01*
X169786358Y-100383409D01*
X169107020Y-100332186D01*
X168565577Y-100145781D01*
X168285894Y-100015660D01*
X167952320Y-99934586D01*
X167756308Y-99958694D01*
X167812819Y-100095641D01*
X167873957Y-100215350D01*
X167620171Y-100228426D01*
X167394668Y-100182096D01*
X167178797Y-100027283D01*
X167201212Y-99841422D01*
X167481279Y-99698412D01*
X167564945Y-99679190D01*
X167804426Y-99642224D01*
X168049985Y-99667730D01*
X168412848Y-99777140D01*
X169004237Y-99991888D01*
X169433410Y-100107185D01*
X169994351Y-100122039D01*
X170044145Y-100115923D01*
X170490337Y-99982418D01*
X170727305Y-99775528D01*
X170663738Y-99570489D01*
X170466663Y-99505961D01*
X169927772Y-99456426D01*
X169346043Y-99470162D01*
X168996312Y-99550468D01*
X168948350Y-99564560D01*
X168812888Y-99492847D01*
X168665765Y-99312343D01*
X168629114Y-99258484D01*
X168439866Y-99100677D01*
X169072222Y-99100677D01*
X169119472Y-99160388D01*
X169407361Y-99194934D01*
X169778853Y-99116472D01*
X169828135Y-99021268D01*
X169519074Y-98975000D01*
X169299454Y-98991334D01*
X169072222Y-99100677D01*
X168439866Y-99100677D01*
X168379195Y-99050086D01*
X168059637Y-98975000D01*
X167949683Y-98979652D01*
X167697885Y-99066230D01*
X167716846Y-99214980D01*
X168013888Y-99363704D01*
X168070055Y-99380517D01*
X168178048Y-99443030D01*
X167802222Y-99438396D01*
X167473683Y-99398313D01*
X167257583Y-99279298D01*
X167153109Y-99043120D01*
X167068441Y-98676105D01*
X168381736Y-98717738D01*
X168795807Y-98728243D01*
X169519074Y-98718535D01*
X169562092Y-98717958D01*
X169943749Y-98648904D01*
G37*
X169943749Y-98648904D02*
X170002034Y-98626471D01*
X170148055Y-98636529D01*
X170196789Y-98796693D01*
X170204888Y-98841763D01*
X170401742Y-99096340D01*
X170778264Y-99352318D01*
X171166282Y-99653826D01*
X171123197Y-99980390D01*
X170566108Y-100263129D01*
X170466972Y-100291435D01*
X169786358Y-100383409D01*
X169107020Y-100332186D01*
X168565577Y-100145781D01*
X168285894Y-100015660D01*
X167952320Y-99934586D01*
X167756308Y-99958694D01*
X167812819Y-100095641D01*
X167873957Y-100215350D01*
X167620171Y-100228426D01*
X167394668Y-100182096D01*
X167178797Y-100027283D01*
X167201212Y-99841422D01*
X167481279Y-99698412D01*
X167564945Y-99679190D01*
X167804426Y-99642224D01*
X168049985Y-99667730D01*
X168412848Y-99777140D01*
X169004237Y-99991888D01*
X169433410Y-100107185D01*
X169994351Y-100122039D01*
X170044145Y-100115923D01*
X170490337Y-99982418D01*
X170727305Y-99775528D01*
X170663738Y-99570489D01*
X170466663Y-99505961D01*
X169927772Y-99456426D01*
X169346043Y-99470162D01*
X168996312Y-99550468D01*
X168948350Y-99564560D01*
X168812888Y-99492847D01*
X168665765Y-99312343D01*
X168629114Y-99258484D01*
X168439866Y-99100677D01*
X169072222Y-99100677D01*
X169119472Y-99160388D01*
X169407361Y-99194934D01*
X169778853Y-99116472D01*
X169828135Y-99021268D01*
X169519074Y-98975000D01*
X169299454Y-98991334D01*
X169072222Y-99100677D01*
X168439866Y-99100677D01*
X168379195Y-99050086D01*
X168059637Y-98975000D01*
X167949683Y-98979652D01*
X167697885Y-99066230D01*
X167716846Y-99214980D01*
X168013888Y-99363704D01*
X168070055Y-99380517D01*
X168178048Y-99443030D01*
X167802222Y-99438396D01*
X167473683Y-99398313D01*
X167257583Y-99279298D01*
X167153109Y-99043120D01*
X167068441Y-98676105D01*
X168381736Y-98717738D01*
X168795807Y-98728243D01*
X169519074Y-98718535D01*
X169562092Y-98717958D01*
X169943749Y-98648904D01*
G36*
X168707211Y-93574280D02*
G01*
X169481383Y-93538519D01*
X169816829Y-93458437D01*
X169922784Y-93402542D01*
X170231305Y-93339375D01*
X170342474Y-93374288D01*
X170447375Y-93515798D01*
X170481621Y-93708615D01*
X170437831Y-93889959D01*
X170308624Y-93997053D01*
X170124167Y-94003443D01*
X169721427Y-93930178D01*
X169287782Y-93851324D01*
X168934818Y-93906051D01*
X168657464Y-94112087D01*
X168500889Y-94246224D01*
X168041193Y-94448121D01*
X167488592Y-94535826D01*
X166948226Y-94498774D01*
X166525236Y-94326395D01*
X166477433Y-94286474D01*
X166330405Y-94075855D01*
X166323153Y-94049189D01*
X166879561Y-94049189D01*
X167114845Y-94164033D01*
X167589702Y-94197711D01*
X167592862Y-94197539D01*
X167963509Y-94124141D01*
X168170251Y-93994366D01*
X168163184Y-93871002D01*
X167892406Y-93816840D01*
X167696917Y-93824026D01*
X167126097Y-93888204D01*
X166987721Y-93922525D01*
X166879561Y-94049189D01*
X166323153Y-94049189D01*
X166262716Y-93826960D01*
X166274020Y-93588663D01*
X166363970Y-93409843D01*
X166532222Y-93339375D01*
X166662052Y-93352807D01*
X166814444Y-93458437D01*
X166907359Y-93521244D01*
X167343914Y-93564902D01*
X167892406Y-93572662D01*
X168234413Y-93577500D01*
X168707211Y-93574280D01*
G37*
X168707211Y-93574280D02*
X169481383Y-93538519D01*
X169816829Y-93458437D01*
X169922784Y-93402542D01*
X170231305Y-93339375D01*
X170342474Y-93374288D01*
X170447375Y-93515798D01*
X170481621Y-93708615D01*
X170437831Y-93889959D01*
X170308624Y-93997053D01*
X170124167Y-94003443D01*
X169721427Y-93930178D01*
X169287782Y-93851324D01*
X168934818Y-93906051D01*
X168657464Y-94112087D01*
X168500889Y-94246224D01*
X168041193Y-94448121D01*
X167488592Y-94535826D01*
X166948226Y-94498774D01*
X166525236Y-94326395D01*
X166477433Y-94286474D01*
X166330405Y-94075855D01*
X166323153Y-94049189D01*
X166879561Y-94049189D01*
X167114845Y-94164033D01*
X167589702Y-94197711D01*
X167592862Y-94197539D01*
X167963509Y-94124141D01*
X168170251Y-93994366D01*
X168163184Y-93871002D01*
X167892406Y-93816840D01*
X167696917Y-93824026D01*
X167126097Y-93888204D01*
X166987721Y-93922525D01*
X166879561Y-94049189D01*
X166323153Y-94049189D01*
X166262716Y-93826960D01*
X166274020Y-93588663D01*
X166363970Y-93409843D01*
X166532222Y-93339375D01*
X166662052Y-93352807D01*
X166814444Y-93458437D01*
X166907359Y-93521244D01*
X167343914Y-93564902D01*
X167892406Y-93572662D01*
X168234413Y-93577500D01*
X168707211Y-93574280D01*
G36*
X169807662Y-91313520D02*
G01*
X170141561Y-91390079D01*
X170412347Y-91539551D01*
X170483333Y-91784139D01*
X170482438Y-91835511D01*
X170425427Y-92031377D01*
X170213652Y-92126506D01*
X169755533Y-92169373D01*
X169141112Y-92160666D01*
X168822939Y-92048785D01*
X168944592Y-91851093D01*
X169019498Y-91803772D01*
X169163280Y-91753775D01*
X169277703Y-91851093D01*
X169405464Y-91938837D01*
X169715929Y-91984703D01*
X169998345Y-91890781D01*
X169999405Y-91889945D01*
X169979954Y-91707648D01*
X169527106Y-91568899D01*
X168771212Y-91513750D01*
X168673139Y-91514374D01*
X167960695Y-91577470D01*
X167690330Y-91724770D01*
X167918347Y-91928868D01*
X168120924Y-92051013D01*
X168027937Y-92138575D01*
X167532171Y-92121359D01*
X167288259Y-92053452D01*
X167114242Y-91873254D01*
X167137172Y-91647808D01*
X167371444Y-91438287D01*
X167466621Y-91396470D01*
X168117167Y-91265409D01*
X168971425Y-91233974D01*
X169807662Y-91313520D01*
G37*
X169807662Y-91313520D02*
X170141561Y-91390079D01*
X170412347Y-91539551D01*
X170483333Y-91784139D01*
X170482438Y-91835511D01*
X170425427Y-92031377D01*
X170213652Y-92126506D01*
X169755533Y-92169373D01*
X169141112Y-92160666D01*
X168822939Y-92048785D01*
X168944592Y-91851093D01*
X169019498Y-91803772D01*
X169163280Y-91753775D01*
X169277703Y-91851093D01*
X169405464Y-91938837D01*
X169715929Y-91984703D01*
X169998345Y-91890781D01*
X169999405Y-91889945D01*
X169979954Y-91707648D01*
X169527106Y-91568899D01*
X168771212Y-91513750D01*
X168673139Y-91514374D01*
X167960695Y-91577470D01*
X167690330Y-91724770D01*
X167918347Y-91928868D01*
X168120924Y-92051013D01*
X168027937Y-92138575D01*
X167532171Y-92121359D01*
X167288259Y-92053452D01*
X167114242Y-91873254D01*
X167137172Y-91647808D01*
X167371444Y-91438287D01*
X167466621Y-91396470D01*
X168117167Y-91265409D01*
X168971425Y-91233974D01*
X169807662Y-91313520D01*
G36*
X170130555Y-102090058D02*
G01*
X170227829Y-102114904D01*
X170494981Y-102287349D01*
X170340631Y-102487557D01*
X169827842Y-102674759D01*
X169019679Y-102808187D01*
X168516212Y-102800679D01*
X167864871Y-102701271D01*
X167323041Y-102548757D01*
X167096666Y-102388125D01*
X167802222Y-102388125D01*
X167802760Y-102394141D01*
X168045268Y-102480048D01*
X168766481Y-102507187D01*
X169285281Y-102490728D01*
X169767110Y-102426734D01*
X169882362Y-102341127D01*
X169539549Y-102262827D01*
X169316355Y-102244205D01*
X168621093Y-102237500D01*
X168043421Y-102290735D01*
X167802222Y-102388125D01*
X167096666Y-102388125D01*
X167097511Y-102380932D01*
X167328902Y-102230471D01*
X167846567Y-102074995D01*
X168324351Y-101992655D01*
X168621093Y-101982509D01*
X169219237Y-101962058D01*
X170130555Y-102090058D01*
G37*
X170130555Y-102090058D02*
X170227829Y-102114904D01*
X170494981Y-102287349D01*
X170340631Y-102487557D01*
X169827842Y-102674759D01*
X169019679Y-102808187D01*
X168516212Y-102800679D01*
X167864871Y-102701271D01*
X167323041Y-102548757D01*
X167096666Y-102388125D01*
X167802222Y-102388125D01*
X167802760Y-102394141D01*
X168045268Y-102480048D01*
X168766481Y-102507187D01*
X169285281Y-102490728D01*
X169767110Y-102426734D01*
X169882362Y-102341127D01*
X169539549Y-102262827D01*
X169316355Y-102244205D01*
X168621093Y-102237500D01*
X168043421Y-102290735D01*
X167802222Y-102388125D01*
X167096666Y-102388125D01*
X167097511Y-102380932D01*
X167328902Y-102230471D01*
X167846567Y-102074995D01*
X168324351Y-101992655D01*
X168621093Y-101982509D01*
X169219237Y-101962058D01*
X170130555Y-102090058D01*
G36*
X170360691Y-102984143D02*
G01*
X170382883Y-103122343D01*
X170264375Y-103230350D01*
X170031876Y-103280144D01*
X169827417Y-103262864D01*
X169262620Y-103213365D01*
X168886835Y-103188729D01*
X168601134Y-103205855D01*
X168745356Y-103269503D01*
X169308679Y-103348031D01*
X169643130Y-103383431D01*
X170119088Y-103465504D01*
X170044384Y-103546463D01*
X169425000Y-103641396D01*
X168648888Y-103734689D01*
X169566111Y-103698391D01*
X170072806Y-103685353D01*
X170408223Y-103720173D01*
X170483390Y-103838703D01*
X170461992Y-103914293D01*
X170289124Y-103980812D01*
X169825781Y-104009287D01*
X168935243Y-104015312D01*
X168204952Y-104004289D01*
X167440966Y-103947709D01*
X167173312Y-103854437D01*
X167424680Y-103737315D01*
X168217763Y-103609189D01*
X168915527Y-103524958D01*
X168080103Y-103412343D01*
X168054147Y-103408788D01*
X167454716Y-103292434D01*
X167156345Y-103170722D01*
X167153326Y-103166132D01*
X167196956Y-103090758D01*
X167542392Y-103065708D01*
X168315560Y-103081265D01*
X168531335Y-103087073D01*
X169348005Y-103083286D01*
X169757655Y-103032282D01*
X169840619Y-103001869D01*
X170215996Y-102943750D01*
X170360691Y-102984143D01*
G37*
X170360691Y-102984143D02*
X170382883Y-103122343D01*
X170264375Y-103230350D01*
X170031876Y-103280144D01*
X169827417Y-103262864D01*
X169262620Y-103213365D01*
X168886835Y-103188729D01*
X168601134Y-103205855D01*
X168745356Y-103269503D01*
X169308679Y-103348031D01*
X169643130Y-103383431D01*
X170119088Y-103465504D01*
X170044384Y-103546463D01*
X169425000Y-103641396D01*
X168648888Y-103734689D01*
X169566111Y-103698391D01*
X170072806Y-103685353D01*
X170408223Y-103720173D01*
X170483390Y-103838703D01*
X170461992Y-103914293D01*
X170289124Y-103980812D01*
X169825781Y-104009287D01*
X168935243Y-104015312D01*
X168204952Y-104004289D01*
X167440966Y-103947709D01*
X167173312Y-103854437D01*
X167424680Y-103737315D01*
X168217763Y-103609189D01*
X168915527Y-103524958D01*
X168080103Y-103412343D01*
X168054147Y-103408788D01*
X167454716Y-103292434D01*
X167156345Y-103170722D01*
X167153326Y-103166132D01*
X167196956Y-103090758D01*
X167542392Y-103065708D01*
X168315560Y-103081265D01*
X168531335Y-103087073D01*
X169348005Y-103083286D01*
X169757655Y-103032282D01*
X169840619Y-103001869D01*
X170215996Y-102943750D01*
X170360691Y-102984143D01*
G36*
X169919299Y-90164313D02*
G01*
X170072576Y-90142444D01*
X170347248Y-90129932D01*
X170460930Y-90212423D01*
X170483333Y-90421733D01*
X170469327Y-90531231D01*
X170208394Y-90847245D01*
X169643546Y-91047131D01*
X168808553Y-91116875D01*
X168784127Y-91116846D01*
X167993542Y-91066284D01*
X167484662Y-90904936D01*
X167205291Y-90627473D01*
X167719420Y-90627473D01*
X167725412Y-90635212D01*
X168034669Y-90730274D01*
X168790000Y-90759687D01*
X168912434Y-90758796D01*
X169569887Y-90714203D01*
X169894194Y-90627592D01*
X169823947Y-90534124D01*
X169297736Y-90468963D01*
X168450640Y-90453393D01*
X167865795Y-90507647D01*
X167719420Y-90627473D01*
X167205291Y-90627473D01*
X167189195Y-90611487D01*
X167135218Y-90488618D01*
X167158761Y-90260473D01*
X167366883Y-90134686D01*
X167729673Y-90137490D01*
X168058854Y-90182245D01*
X168450640Y-90199246D01*
X169023377Y-90224099D01*
X169919299Y-90164313D01*
G37*
X169919299Y-90164313D02*
X170072576Y-90142444D01*
X170347248Y-90129932D01*
X170460930Y-90212423D01*
X170483333Y-90421733D01*
X170469327Y-90531231D01*
X170208394Y-90847245D01*
X169643546Y-91047131D01*
X168808553Y-91116875D01*
X168784127Y-91116846D01*
X167993542Y-91066284D01*
X167484662Y-90904936D01*
X167205291Y-90627473D01*
X167719420Y-90627473D01*
X167725412Y-90635212D01*
X168034669Y-90730274D01*
X168790000Y-90759687D01*
X168912434Y-90758796D01*
X169569887Y-90714203D01*
X169894194Y-90627592D01*
X169823947Y-90534124D01*
X169297736Y-90468963D01*
X168450640Y-90453393D01*
X167865795Y-90507647D01*
X167719420Y-90627473D01*
X167205291Y-90627473D01*
X167189195Y-90611487D01*
X167135218Y-90488618D01*
X167158761Y-90260473D01*
X167366883Y-90134686D01*
X167729673Y-90137490D01*
X168058854Y-90182245D01*
X168450640Y-90199246D01*
X169023377Y-90224099D01*
X169919299Y-90164313D01*
G36*
X169665283Y-89012923D02*
G01*
X170235577Y-88973750D01*
X170324345Y-88976002D01*
X170496689Y-89031901D01*
X170334198Y-89121430D01*
X169918888Y-89188876D01*
X169591754Y-89239794D01*
X169354444Y-89374533D01*
X169460364Y-89467796D01*
X169918888Y-89569062D01*
X170250695Y-89612016D01*
X170483333Y-89688789D01*
X170470621Y-89724859D01*
X170205095Y-89795806D01*
X169564109Y-89775217D01*
X168506204Y-89662542D01*
X167735483Y-89562953D01*
X167325600Y-89488928D01*
X167279730Y-89424587D01*
X167319418Y-89410947D01*
X168341557Y-89410947D01*
X168632232Y-89450000D01*
X168774723Y-89448447D01*
X169059748Y-89410952D01*
X168809501Y-89334327D01*
X168707739Y-89323541D01*
X168369511Y-89369330D01*
X168341557Y-89410947D01*
X167319418Y-89410947D01*
X167515747Y-89343472D01*
X167516397Y-89343290D01*
X168069150Y-89229848D01*
X168707739Y-89132799D01*
X168864293Y-89109008D01*
X169665283Y-89012923D01*
G37*
X169665283Y-89012923D02*
X170235577Y-88973750D01*
X170324345Y-88976002D01*
X170496689Y-89031901D01*
X170334198Y-89121430D01*
X169918888Y-89188876D01*
X169591754Y-89239794D01*
X169354444Y-89374533D01*
X169460364Y-89467796D01*
X169918888Y-89569062D01*
X170250695Y-89612016D01*
X170483333Y-89688789D01*
X170470621Y-89724859D01*
X170205095Y-89795806D01*
X169564109Y-89775217D01*
X168506204Y-89662542D01*
X167735483Y-89562953D01*
X167325600Y-89488928D01*
X167279730Y-89424587D01*
X167319418Y-89410947D01*
X168341557Y-89410947D01*
X168632232Y-89450000D01*
X168774723Y-89448447D01*
X169059748Y-89410952D01*
X168809501Y-89334327D01*
X168707739Y-89323541D01*
X168369511Y-89369330D01*
X168341557Y-89410947D01*
X167319418Y-89410947D01*
X167515747Y-89343472D01*
X167516397Y-89343290D01*
X168069150Y-89229848D01*
X168707739Y-89132799D01*
X168864293Y-89109008D01*
X169665283Y-89012923D01*
G36*
X170070699Y-92495114D02*
G01*
X170201111Y-92664687D01*
X170247970Y-92737002D01*
X170373574Y-92917022D01*
X170443284Y-92995539D01*
X170460994Y-93003175D01*
X170390450Y-93100180D01*
X170068880Y-93208626D01*
X169691138Y-93260000D01*
X169408585Y-93242097D01*
X169580222Y-93164750D01*
X169674448Y-93134541D01*
X169900345Y-92981186D01*
X169823333Y-92843491D01*
X169462639Y-92783750D01*
X169172812Y-92812434D01*
X169153995Y-92942500D01*
X169182011Y-93042907D01*
X168904689Y-93101250D01*
X168673103Y-93071224D01*
X168507777Y-92942500D01*
X168429205Y-92849924D01*
X168084444Y-92783750D01*
X167974347Y-92787960D01*
X167703615Y-92873142D01*
X167713089Y-93021727D01*
X168013888Y-93172454D01*
X168070055Y-93189267D01*
X168178048Y-93251780D01*
X167802222Y-93247146D01*
X167476555Y-93207790D01*
X167258447Y-93089366D01*
X167153396Y-92853845D01*
X167069015Y-92488806D01*
X168493952Y-92527314D01*
X169250615Y-92540459D01*
X169783483Y-92520881D01*
X169958937Y-92456505D01*
X169978133Y-92438663D01*
X170070699Y-92495114D01*
G37*
X170070699Y-92495114D02*
X170201111Y-92664687D01*
X170247970Y-92737002D01*
X170373574Y-92917022D01*
X170443284Y-92995539D01*
X170460994Y-93003175D01*
X170390450Y-93100180D01*
X170068880Y-93208626D01*
X169691138Y-93260000D01*
X169408585Y-93242097D01*
X169580222Y-93164750D01*
X169674448Y-93134541D01*
X169900345Y-92981186D01*
X169823333Y-92843491D01*
X169462639Y-92783750D01*
X169172812Y-92812434D01*
X169153995Y-92942500D01*
X169182011Y-93042907D01*
X168904689Y-93101250D01*
X168673103Y-93071224D01*
X168507777Y-92942500D01*
X168429205Y-92849924D01*
X168084444Y-92783750D01*
X167974347Y-92787960D01*
X167703615Y-92873142D01*
X167713089Y-93021727D01*
X168013888Y-93172454D01*
X168070055Y-93189267D01*
X168178048Y-93251780D01*
X167802222Y-93247146D01*
X167476555Y-93207790D01*
X167258447Y-93089366D01*
X167153396Y-92853845D01*
X167069015Y-92488806D01*
X168493952Y-92527314D01*
X169250615Y-92540459D01*
X169783483Y-92520881D01*
X169958937Y-92456505D01*
X169978133Y-92438663D01*
X170070699Y-92495114D01*
D12*
%TO.C,BT1*%
X139970000Y-96945000D02*
X141577090Y-96945000D01*
X160910000Y-87175000D02*
X159302910Y-87175000D01*
X160910000Y-95060000D02*
X160910000Y-96945000D01*
X139970000Y-95060000D02*
X139970000Y-96945000D01*
X139970000Y-87175000D02*
X141577090Y-87175000D01*
X160910000Y-89060000D02*
X160910000Y-87175000D01*
X160910000Y-96945000D02*
X159302910Y-96945000D01*
X139970000Y-89060000D02*
X139970000Y-87175000D01*
X159305021Y-87178832D02*
G75*
G03*
X141577090Y-87175000I-8865021J-4881167D01*
G01*
X141577090Y-96945000D02*
G75*
G03*
X159302910Y-96945000I8862910J4885000D01*
G01*
%TO.C,ON/OFF*%
X164255397Y-120353397D02*
X164537262Y-120285192D01*
X160488538Y-122277788D02*
X159804378Y-121882788D01*
X161420052Y-116984359D02*
X160570052Y-118456603D01*
X164905397Y-119227564D02*
X164987262Y-119505770D01*
X164255397Y-120353397D02*
X163138224Y-119708397D01*
X159920052Y-119582436D02*
X159820052Y-119755641D01*
X164513224Y-117326828D02*
X161663224Y-122263172D01*
X163788224Y-118582564D02*
X164905397Y-119227564D01*
X164987262Y-119505770D02*
X164537262Y-120285192D01*
X163254378Y-115907212D02*
X163938538Y-116302212D01*
%TO.C,kibuzzard-639739B8*%
G36*
X142845825Y-114847959D02*
G01*
X142921928Y-115054743D01*
X142835582Y-115241849D01*
X142645654Y-115317123D01*
X142448348Y-115236213D01*
X142371064Y-115032777D01*
X142450754Y-114841063D01*
X142641864Y-114762441D01*
X142845825Y-114847959D01*
G37*
G36*
X140863141Y-118531777D02*
G01*
X140940330Y-118735542D01*
X140856346Y-118921010D01*
X140664841Y-118992883D01*
X140467191Y-118909792D01*
X140394309Y-118712739D01*
X140474956Y-118528319D01*
X140662154Y-118449735D01*
X140863141Y-118531777D01*
G37*
G36*
X135532196Y-112038765D02*
G01*
X135600825Y-112166543D01*
X135585075Y-112320363D01*
X135484944Y-112500225D01*
X135300431Y-112706129D01*
X135088349Y-112883484D01*
X134905510Y-112977699D01*
X134751913Y-112988775D01*
X134627558Y-112916712D01*
X134557204Y-112788696D01*
X134569956Y-112636414D01*
X134665812Y-112459865D01*
X134844774Y-112259050D01*
X134858275Y-112246012D01*
X135070000Y-112069273D01*
X135252896Y-111975819D01*
X135406960Y-111965649D01*
X135532196Y-112038765D01*
G37*
G36*
X146153101Y-118140196D02*
G01*
X146234834Y-118345953D01*
X146176371Y-118543652D01*
X145898473Y-118255880D01*
X145887747Y-118098514D01*
X146010849Y-118056878D01*
X146153101Y-118140196D01*
G37*
G36*
X137701240Y-109465738D02*
G01*
X137791914Y-109673898D01*
X137772677Y-109795095D01*
X137692419Y-109906806D01*
X137577708Y-109982271D01*
X137455117Y-109994726D01*
X137255801Y-109900308D01*
X137167333Y-109694432D01*
X137183547Y-109569534D01*
X137263559Y-109455853D01*
X137378289Y-109379267D01*
X137498655Y-109365649D01*
X137701240Y-109465738D01*
G37*
G36*
X130124729Y-109786897D02*
G01*
X130006981Y-109645479D01*
X129896315Y-109498453D01*
X129792996Y-109346173D01*
X129697274Y-109189008D01*
X129609379Y-109027335D01*
X129529523Y-108861545D01*
X129457897Y-108692036D01*
X129394675Y-108519216D01*
X129340009Y-108343502D01*
X129315772Y-108249572D01*
X135048190Y-108249572D01*
X135060388Y-108354759D01*
X135158557Y-108487266D01*
X135303193Y-108594764D01*
X135423915Y-108592942D01*
X135553628Y-108494162D01*
X135955595Y-108105987D01*
X136153595Y-108018505D01*
X136345074Y-108111663D01*
X136431415Y-108310766D01*
X136341564Y-108505671D01*
X135937313Y-108896051D01*
X135861828Y-108975568D01*
X135824540Y-109053507D01*
X135835084Y-109156980D01*
X135932701Y-109288917D01*
X136060049Y-109389938D01*
X136164193Y-109405228D01*
X136243465Y-109366194D01*
X136325567Y-109293529D01*
X137134069Y-108512768D01*
X137207272Y-108435456D01*
X137244558Y-108357518D01*
X137229486Y-108256212D01*
X137131829Y-108126519D01*
X137010075Y-108026719D01*
X136913884Y-108005953D01*
X136798188Y-108073541D01*
X136804167Y-107988320D01*
X136792579Y-107880339D01*
X136679693Y-107658318D01*
X136521455Y-107533306D01*
X136340807Y-107462791D01*
X136137753Y-107446772D01*
X135931289Y-107483087D01*
X135740417Y-107569572D01*
X135565136Y-107706226D01*
X135163169Y-108094401D01*
X135087683Y-108173918D01*
X135048190Y-108249572D01*
X129315772Y-108249572D01*
X129294032Y-108165318D01*
X129256852Y-107985093D01*
X129228561Y-107803259D01*
X129209225Y-107620258D01*
X129198892Y-107436527D01*
X129197588Y-107252512D01*
X129205314Y-107068653D01*
X129222053Y-106885395D01*
X129247763Y-106703179D01*
X129282383Y-106522445D01*
X129325829Y-106343626D01*
X129377998Y-106167155D01*
X129438762Y-105993457D01*
X129507977Y-105822948D01*
X129585474Y-105656042D01*
X129671068Y-105493139D01*
X129764552Y-105334633D01*
X129865702Y-105180904D01*
X129974271Y-105032324D01*
X130090001Y-104889250D01*
X130212613Y-104752027D01*
X130341809Y-104620985D01*
X130477279Y-104496441D01*
X130618698Y-104378694D01*
X130765723Y-104268027D01*
X130918002Y-104164709D01*
X131075168Y-104068986D01*
X131236839Y-103981091D01*
X131402630Y-103901235D01*
X131572139Y-103829609D01*
X131744960Y-103766387D01*
X131920673Y-103711722D01*
X132098857Y-103665744D01*
X132279083Y-103628565D01*
X132460916Y-103600274D01*
X132643918Y-103580938D01*
X132827648Y-103570606D01*
X133011665Y-103569301D01*
X133195523Y-103577026D01*
X133378780Y-103593765D01*
X133560996Y-103619475D01*
X133741731Y-103654095D01*
X133920549Y-103697542D01*
X134097020Y-103749710D01*
X134270720Y-103810475D01*
X134441227Y-103879690D01*
X134608134Y-103957188D01*
X134771036Y-104042781D01*
X134929543Y-104136265D01*
X135083271Y-104237414D01*
X135231852Y-104345984D01*
X135374926Y-104461714D01*
X135512149Y-104584325D01*
X135643191Y-104713521D01*
X135999293Y-105082277D01*
X149544624Y-119108878D01*
X149900728Y-119477633D01*
X150025272Y-119613104D01*
X150143020Y-119754522D01*
X150253685Y-119901547D01*
X150357004Y-120053827D01*
X150452726Y-120210992D01*
X150540621Y-120372665D01*
X150620478Y-120538456D01*
X150692103Y-120707965D01*
X150755325Y-120880784D01*
X150809991Y-121056498D01*
X150855968Y-121234682D01*
X150893148Y-121414907D01*
X150921439Y-121596741D01*
X150940775Y-121779742D01*
X150951107Y-121963473D01*
X150952412Y-122147488D01*
X150944686Y-122331347D01*
X150927947Y-122514605D01*
X150902237Y-122696821D01*
X150867617Y-122877555D01*
X150824171Y-123056374D01*
X150772002Y-123232845D01*
X150711238Y-123406543D01*
X150642023Y-123577052D01*
X150564526Y-123743958D01*
X150478932Y-123906861D01*
X150385448Y-124065367D01*
X150284298Y-124219096D01*
X150175729Y-124367676D01*
X150059999Y-124510750D01*
X149937387Y-124647973D01*
X149808191Y-124779015D01*
X149672721Y-124903559D01*
X149531302Y-125021306D01*
X149384277Y-125131973D01*
X149231998Y-125235291D01*
X149074832Y-125331014D01*
X148913161Y-125418909D01*
X148747370Y-125498765D01*
X148577861Y-125570391D01*
X148405040Y-125633613D01*
X148229327Y-125688278D01*
X148051143Y-125734256D01*
X147870917Y-125771435D01*
X147689084Y-125799726D01*
X147506082Y-125819062D01*
X147322352Y-125829394D01*
X147138335Y-125830699D01*
X146954478Y-125822973D01*
X146771220Y-125806235D01*
X146589004Y-125780525D01*
X146408269Y-125745905D01*
X146229451Y-125702458D01*
X146052980Y-125650290D01*
X145879281Y-125589525D01*
X145708773Y-125520311D01*
X145541867Y-125442813D01*
X145378964Y-125357219D01*
X145220457Y-125263735D01*
X145066729Y-125162586D01*
X144918148Y-125054016D01*
X144775074Y-124938287D01*
X144637851Y-124815676D01*
X144506810Y-124686479D01*
X144150707Y-124317723D01*
X142638209Y-122751486D01*
X143455214Y-122751486D01*
X143545705Y-122890223D01*
X144327965Y-123700278D01*
X144469941Y-123804518D01*
X144591653Y-123802219D01*
X144719448Y-123704899D01*
X145970533Y-122496741D01*
X146044904Y-122418399D01*
X146083889Y-122339439D01*
X146071872Y-122235808D01*
X145975154Y-122105258D01*
X145833198Y-121999912D01*
X145711544Y-121998895D01*
X145583671Y-122100637D01*
X144467596Y-123178418D01*
X143876555Y-122566377D01*
X143755377Y-122474667D01*
X143659039Y-122480728D01*
X143552543Y-122561828D01*
X143467777Y-122665428D01*
X143455214Y-122751486D01*
X142638209Y-122751486D01*
X141377591Y-121446078D01*
X142414197Y-121446078D01*
X142450027Y-121658800D01*
X142534635Y-121849422D01*
X142658448Y-122011969D01*
X142817972Y-122140574D01*
X143009716Y-122229368D01*
X143224413Y-122270447D01*
X143452802Y-122255907D01*
X143674232Y-122180684D01*
X143868050Y-122039719D01*
X144017280Y-121855023D01*
X144104948Y-121648604D01*
X144131051Y-121420464D01*
X144101079Y-121194294D01*
X144020515Y-120993787D01*
X143889358Y-120818944D01*
X143719566Y-120681896D01*
X143523093Y-120594770D01*
X143299938Y-120557569D01*
X143072859Y-120576342D01*
X142864606Y-120657140D01*
X142675180Y-120799963D01*
X142522183Y-120994457D01*
X142436718Y-121217229D01*
X142414197Y-121446078D01*
X141377591Y-121446078D01*
X139986384Y-120005441D01*
X140881662Y-120005441D01*
X140893680Y-120109071D01*
X140990397Y-120239622D01*
X141132897Y-120345531D01*
X141251835Y-120343736D01*
X141379630Y-120246416D01*
X141775657Y-119863977D01*
X141970731Y-119777788D01*
X142159380Y-119869569D01*
X142244445Y-120065730D01*
X142155923Y-120257754D01*
X141757646Y-120642366D01*
X141683275Y-120720708D01*
X141646539Y-120797494D01*
X141656927Y-120899437D01*
X141753102Y-121029425D01*
X141878568Y-121128953D01*
X141981173Y-121144018D01*
X142059272Y-121105561D01*
X142140161Y-121033969D01*
X142936715Y-120264746D01*
X143008836Y-120188577D01*
X143045572Y-120111791D01*
X143030722Y-120011982D01*
X142934509Y-119884205D01*
X142814552Y-119785880D01*
X142719784Y-119765422D01*
X142605799Y-119832011D01*
X142611689Y-119748050D01*
X142600272Y-119641663D01*
X142578470Y-119598783D01*
X146228684Y-119598783D01*
X146241061Y-119725864D01*
X146269190Y-119850976D01*
X146358682Y-120062483D01*
X146441828Y-120203430D01*
X146539386Y-120322737D01*
X146651838Y-120424900D01*
X146779667Y-120514422D01*
X146926545Y-120589962D01*
X147096145Y-120650179D01*
X147278738Y-120689574D01*
X147464598Y-120702641D01*
X147657799Y-120681034D01*
X147862418Y-120616401D01*
X148064698Y-120508785D01*
X148250888Y-120358224D01*
X148406418Y-120179342D01*
X148516717Y-119986758D01*
X148583844Y-119791177D01*
X148609859Y-119603297D01*
X148601266Y-119420147D01*
X148564577Y-119238751D01*
X148488754Y-119023116D01*
X148385034Y-118833441D01*
X148253416Y-118669723D01*
X148140650Y-118569518D01*
X148009671Y-118483590D01*
X147780188Y-118380787D01*
X147695281Y-118356851D01*
X147592415Y-118332601D01*
X147426586Y-118377983D01*
X147346145Y-118548352D01*
X147335253Y-118722181D01*
X147377202Y-118827325D01*
X147539931Y-118895282D01*
X147706242Y-118950952D01*
X147864604Y-119076091D01*
X147981168Y-119248216D01*
X148044137Y-119467680D01*
X148012812Y-119718619D01*
X147948544Y-119846888D01*
X147850230Y-119963898D01*
X147729860Y-120058069D01*
X147599426Y-120117821D01*
X147343057Y-120140291D01*
X147130394Y-120070902D01*
X146962462Y-119947279D01*
X146851709Y-119796027D01*
X146801133Y-119670524D01*
X146791124Y-119600742D01*
X146730936Y-119447003D01*
X146627833Y-119404226D01*
X146455266Y-119417492D01*
X146278846Y-119490756D01*
X146228684Y-119598783D01*
X142578470Y-119598783D01*
X142489055Y-119422924D01*
X142333153Y-119299759D01*
X142155176Y-119230286D01*
X141955122Y-119214504D01*
X141751710Y-119250282D01*
X141563659Y-119335488D01*
X141390968Y-119470124D01*
X140994941Y-119852562D01*
X140920570Y-119930904D01*
X140881662Y-120005441D01*
X139986384Y-120005441D01*
X138689135Y-118662100D01*
X139584413Y-118662100D01*
X139601048Y-118770512D01*
X139707273Y-118910908D01*
X139852448Y-119006078D01*
X139985934Y-118978820D01*
X140014119Y-119170116D01*
X140132161Y-119346389D01*
X140278301Y-119458445D01*
X140455967Y-119524595D01*
X140665161Y-119544838D01*
X140878752Y-119517349D01*
X141069611Y-119440303D01*
X141237737Y-119313700D01*
X141370135Y-119149848D01*
X141453807Y-118961057D01*
X141488755Y-118747328D01*
X141476088Y-118536577D01*
X141443349Y-118437066D01*
X144926137Y-118437066D01*
X144950700Y-118589620D01*
X145059393Y-118778447D01*
X145252218Y-119003547D01*
X145420890Y-119149074D01*
X145600486Y-119247639D01*
X145780905Y-119299065D01*
X145952045Y-119303174D01*
X146157392Y-119259355D01*
X146341503Y-119174250D01*
X146504381Y-119047857D01*
X146663442Y-118854286D01*
X146756927Y-118644101D01*
X146784837Y-118417303D01*
X146750874Y-118190423D01*
X146658743Y-117979992D01*
X146508443Y-117786010D01*
X146351370Y-117651351D01*
X146186721Y-117564835D01*
X146014493Y-117526464D01*
X145834690Y-117536237D01*
X145654262Y-117597924D01*
X145500479Y-117708912D01*
X145395108Y-117844324D01*
X145359913Y-117979276D01*
X145441411Y-118198503D01*
X145964124Y-118739788D01*
X145783998Y-118768080D01*
X145595038Y-118659247D01*
X145487754Y-118534439D01*
X145421741Y-118424946D01*
X145406616Y-118391000D01*
X145343517Y-118275383D01*
X145119437Y-118249018D01*
X144985705Y-118320782D01*
X144926137Y-118437066D01*
X141443349Y-118437066D01*
X141416917Y-118356723D01*
X141311241Y-118207765D01*
X141140243Y-118086979D01*
X140948844Y-118057645D01*
X141336833Y-117682969D01*
X144078467Y-117682969D01*
X144151530Y-117806618D01*
X144338251Y-117979406D01*
X144518842Y-118085286D01*
X144675284Y-118095314D01*
X144866628Y-118003224D01*
X145093328Y-117815199D01*
X146180466Y-116765362D01*
X146255953Y-116685845D01*
X146297729Y-116607985D01*
X146285532Y-116502799D01*
X146187362Y-116370291D01*
X146062772Y-116272125D01*
X145958076Y-116256263D01*
X145875458Y-116294116D01*
X145792213Y-116367884D01*
X144734765Y-117389049D01*
X144617615Y-117475698D01*
X144537471Y-117436127D01*
X144473393Y-117376628D01*
X144416485Y-117356549D01*
X144210217Y-117467464D01*
X144105337Y-117590815D01*
X144078467Y-117682969D01*
X141336833Y-117682969D01*
X141421376Y-117601327D01*
X141495747Y-117522985D01*
X141534694Y-117446236D01*
X141523240Y-117342062D01*
X141427006Y-117215392D01*
X141303772Y-117114797D01*
X141198936Y-117100800D01*
X141119750Y-117138131D01*
X141038860Y-117209723D01*
X139695520Y-118506972D01*
X139621149Y-118585314D01*
X139584413Y-118662100D01*
X138689135Y-118662100D01*
X137457597Y-117386805D01*
X138494202Y-117386805D01*
X138530032Y-117599526D01*
X138614641Y-117790148D01*
X138738453Y-117952696D01*
X138897977Y-118081300D01*
X139089720Y-118170094D01*
X139304419Y-118211174D01*
X139532808Y-118196633D01*
X139754237Y-118121410D01*
X139948055Y-117980446D01*
X140097285Y-117795750D01*
X140184953Y-117589330D01*
X140211057Y-117361190D01*
X140181084Y-117135020D01*
X140100520Y-116934513D01*
X139969364Y-116759671D01*
X139799571Y-116622623D01*
X139603098Y-116535497D01*
X139379944Y-116498296D01*
X139152864Y-116517068D01*
X138944610Y-116597866D01*
X138755185Y-116740690D01*
X138602188Y-116935183D01*
X138516724Y-117157956D01*
X138494202Y-117386805D01*
X137457597Y-117386805D01*
X136066389Y-115946167D01*
X136961667Y-115946167D01*
X136973685Y-116049798D01*
X137070403Y-116180349D01*
X137212901Y-116286257D01*
X137331840Y-116284462D01*
X137459635Y-116187143D01*
X137855662Y-115804704D01*
X138050736Y-115718514D01*
X138239385Y-115810296D01*
X138324450Y-116006456D01*
X138235928Y-116198481D01*
X137837651Y-116583092D01*
X137763280Y-116661434D01*
X137726544Y-116738221D01*
X137736932Y-116840164D01*
X137833107Y-116970152D01*
X137958573Y-117069680D01*
X138061178Y-117084744D01*
X138139276Y-117046287D01*
X138220166Y-116974695D01*
X138834384Y-116381552D01*
X142941151Y-116381552D01*
X142965714Y-116534106D01*
X143074407Y-116722934D01*
X143267231Y-116948033D01*
X143435904Y-117093560D01*
X143615500Y-117192125D01*
X143795919Y-117243551D01*
X143967059Y-117247661D01*
X144172405Y-117203842D01*
X144356517Y-117118736D01*
X144519394Y-116992344D01*
X144678455Y-116798772D01*
X144771940Y-116588587D01*
X144799850Y-116361789D01*
X144765888Y-116134910D01*
X144673756Y-115924479D01*
X144523457Y-115730497D01*
X144366384Y-115595837D01*
X144201734Y-115509322D01*
X144029507Y-115470951D01*
X143849704Y-115480723D01*
X143669276Y-115542410D01*
X143515493Y-115653399D01*
X143410121Y-115788811D01*
X143374927Y-115923762D01*
X143456425Y-116142989D01*
X143979138Y-116684275D01*
X143799012Y-116712566D01*
X143610052Y-116603734D01*
X143502767Y-116478925D01*
X143436755Y-116369432D01*
X143421629Y-116335487D01*
X143358531Y-116219870D01*
X143134450Y-116193504D01*
X143000719Y-116265269D01*
X142941151Y-116381552D01*
X138834384Y-116381552D01*
X139016720Y-116205472D01*
X139088841Y-116129303D01*
X139125577Y-116052517D01*
X139110727Y-115952708D01*
X139014514Y-115824931D01*
X138894558Y-115726607D01*
X138799790Y-115706148D01*
X138685804Y-115772737D01*
X138691693Y-115688776D01*
X138680277Y-115582390D01*
X138569060Y-115363650D01*
X138413158Y-115240486D01*
X138235181Y-115171013D01*
X138035128Y-115155230D01*
X137831716Y-115191009D01*
X137643665Y-115276215D01*
X137470973Y-115410850D01*
X137074947Y-115793289D01*
X137000576Y-115871631D01*
X136961667Y-115946167D01*
X136066389Y-115946167D01*
X134215870Y-114029898D01*
X135032874Y-114029898D01*
X135140595Y-114195483D01*
X135990217Y-115075292D01*
X136185694Y-115156132D01*
X136383950Y-115077741D01*
X136430639Y-115012900D01*
X141811183Y-115012900D01*
X141823081Y-115224550D01*
X141880213Y-115403309D01*
X141982577Y-115549176D01*
X142170437Y-115688864D01*
X142359075Y-115719662D01*
X142331383Y-115858955D01*
X142436840Y-116024149D01*
X142564188Y-116125171D01*
X142668332Y-116140460D01*
X142747603Y-116101427D01*
X142829705Y-116028761D01*
X144193196Y-114712054D01*
X144268683Y-114632537D01*
X144308175Y-114556882D01*
X144295978Y-114451697D01*
X144197808Y-114319188D01*
X144071012Y-114218739D01*
X143968522Y-114205161D01*
X143887046Y-114241911D01*
X143804942Y-114314576D01*
X143329890Y-114773328D01*
X143306855Y-114581506D01*
X143190370Y-114404892D01*
X143043014Y-114292419D01*
X142862669Y-114226027D01*
X142649336Y-114205712D01*
X142431295Y-114233590D01*
X142236824Y-114311779D01*
X142065927Y-114440277D01*
X141931547Y-114606337D01*
X141846633Y-114797212D01*
X141811183Y-115012900D01*
X136430639Y-115012900D01*
X136480305Y-114943924D01*
X136526355Y-114777152D01*
X136531518Y-114592245D01*
X136510074Y-114438795D01*
X141016225Y-114438795D01*
X141031239Y-114543468D01*
X141128876Y-114674284D01*
X141319885Y-114794379D01*
X141457792Y-114740651D01*
X141524025Y-114676690D01*
X142325676Y-113902546D01*
X142401163Y-113823029D01*
X142440655Y-113747374D01*
X142428457Y-113642189D01*
X142330288Y-113509680D01*
X142209636Y-113411022D01*
X142112342Y-113389115D01*
X142012713Y-113436775D01*
X142019559Y-113366164D01*
X141991900Y-113214116D01*
X141910525Y-113052149D01*
X141817696Y-112967448D01*
X141721088Y-112906259D01*
X141604795Y-112879530D01*
X141471023Y-112953539D01*
X141353055Y-113151321D01*
X141387572Y-113360746D01*
X141481934Y-113421897D01*
X141596146Y-113503602D01*
X141664132Y-113660845D01*
X141610902Y-113815971D01*
X141131283Y-114279134D01*
X141055797Y-114358651D01*
X141016225Y-114438795D01*
X136510074Y-114438795D01*
X136505215Y-114404023D01*
X136462616Y-114214688D01*
X136418892Y-114026438D01*
X136387808Y-113842835D01*
X136383126Y-113667434D01*
X136414831Y-113514515D01*
X136492903Y-113398353D01*
X136565493Y-113358694D01*
X136659927Y-113334902D01*
X136761389Y-113352158D01*
X136890288Y-113445109D01*
X136958008Y-113621057D01*
X136910959Y-113781729D01*
X136867897Y-113840707D01*
X136854396Y-113853744D01*
X136783400Y-113928827D01*
X136747789Y-114004527D01*
X136765956Y-114104394D01*
X136863275Y-114232190D01*
X137005793Y-114336992D01*
X137129136Y-114336381D01*
X137254758Y-114236811D01*
X137387406Y-114072717D01*
X137473329Y-113881754D01*
X137512527Y-113663920D01*
X137496630Y-113441068D01*
X137417268Y-113235052D01*
X137274441Y-113045872D01*
X137089989Y-112896646D01*
X136885756Y-112810491D01*
X136661741Y-112787408D01*
X136440069Y-112820287D01*
X136242861Y-112902015D01*
X136070116Y-113032593D01*
X135958815Y-113167255D01*
X135881424Y-113323525D01*
X135837673Y-113485360D01*
X135827288Y-113636716D01*
X135855074Y-113914282D01*
X135913853Y-114127128D01*
X135945675Y-114205111D01*
X135934425Y-114215976D01*
X135536776Y-113804198D01*
X135388282Y-113693207D01*
X135271964Y-113703345D01*
X135144168Y-113800664D01*
X135044660Y-113925024D01*
X135032874Y-114029898D01*
X134215870Y-114029898D01*
X133034235Y-112806279D01*
X133988218Y-112806279D01*
X134021522Y-112973606D01*
X134098514Y-113141144D01*
X134222685Y-113298996D01*
X134376932Y-113428892D01*
X134544154Y-113512556D01*
X134712400Y-113553378D01*
X134869721Y-113554741D01*
X135024313Y-113522320D01*
X135184373Y-113461789D01*
X135354140Y-113367906D01*
X135521406Y-113248417D01*
X135686168Y-113103319D01*
X135823253Y-112959582D01*
X135934491Y-112818098D01*
X136019879Y-112678867D01*
X136050528Y-112611829D01*
X139260772Y-112611829D01*
X139269445Y-112709936D01*
X139352470Y-112825621D01*
X139544308Y-112962570D01*
X139681940Y-112924556D01*
X139700054Y-113124994D01*
X139833278Y-113323512D01*
X139977448Y-113432685D01*
X140155588Y-113496794D01*
X140367695Y-113515840D01*
X140585125Y-113487326D01*
X140779227Y-113408757D01*
X140950002Y-113280132D01*
X141084259Y-113113946D01*
X141168807Y-112922691D01*
X141203644Y-112706368D01*
X141190152Y-112493068D01*
X141129712Y-112310884D01*
X141022324Y-112159814D01*
X140858174Y-112044679D01*
X140720770Y-112005231D01*
X140634250Y-112009335D01*
X140679998Y-111864743D01*
X140587911Y-111705396D01*
X140446286Y-111586163D01*
X140339878Y-111571956D01*
X140259505Y-111609847D01*
X140177401Y-111682513D01*
X139378035Y-112454452D01*
X139302549Y-112533969D01*
X139260772Y-112611829D01*
X136050528Y-112611829D01*
X136108430Y-112485184D01*
X136156692Y-112318451D01*
X136164728Y-112159034D01*
X136132607Y-111987302D01*
X136055973Y-111815071D01*
X135944184Y-111671734D01*
X138273485Y-111671734D01*
X138312519Y-111751004D01*
X138382978Y-111830823D01*
X138535570Y-111964968D01*
X138687509Y-112050700D01*
X138838797Y-112088020D01*
X138993021Y-112071501D01*
X139153767Y-111995718D01*
X139321037Y-111860670D01*
X139659055Y-111534250D01*
X139742630Y-111634506D01*
X139861959Y-111680375D01*
X140026406Y-111585570D01*
X140151271Y-111442920D01*
X140180916Y-111352499D01*
X140122385Y-111232471D01*
X140040467Y-111165924D01*
X140275709Y-110938754D01*
X140350054Y-110860340D01*
X140383914Y-110785710D01*
X140369945Y-110685545D01*
X140271185Y-110554710D01*
X140130409Y-110451211D01*
X140008032Y-110451319D01*
X139880525Y-110552382D01*
X139656703Y-110768525D01*
X139519170Y-110607824D01*
X139440756Y-110533479D01*
X139360612Y-110493908D01*
X139258794Y-110506165D01*
X139127407Y-110604353D01*
X139026387Y-110731701D01*
X139011096Y-110835845D01*
X139050130Y-110915116D01*
X139122795Y-110997219D01*
X139275291Y-111136850D01*
X138960112Y-111441215D01*
X138852293Y-111507818D01*
X138754309Y-111461200D01*
X138671484Y-111382287D01*
X138591339Y-111342716D01*
X138387590Y-111437958D01*
X138287121Y-111565876D01*
X138273485Y-111671734D01*
X135944184Y-111671734D01*
X135930473Y-111654153D01*
X135774858Y-111523405D01*
X135607879Y-111441679D01*
X135439856Y-111403905D01*
X135281110Y-111405005D01*
X135125374Y-111439618D01*
X134966381Y-111502379D01*
X134792406Y-111597910D01*
X134627417Y-111713752D01*
X134471414Y-111849908D01*
X134288916Y-112047343D01*
X134148699Y-112246346D01*
X134050763Y-112446917D01*
X133995110Y-112649055D01*
X133988218Y-112806279D01*
X133034235Y-112806279D01*
X131571395Y-111291464D01*
X132388399Y-111291464D01*
X132496119Y-111457048D01*
X133345741Y-112336858D01*
X133541218Y-112417698D01*
X133739474Y-112339306D01*
X133835829Y-112205489D01*
X133881879Y-112038717D01*
X133887042Y-111853811D01*
X133860739Y-111665589D01*
X133818141Y-111476253D01*
X133774417Y-111288004D01*
X133743332Y-111104400D01*
X133738651Y-110928999D01*
X133770355Y-110776080D01*
X133848428Y-110659919D01*
X133921017Y-110620260D01*
X134015452Y-110596468D01*
X134116913Y-110613724D01*
X134245812Y-110706675D01*
X134313532Y-110882623D01*
X134266483Y-111043294D01*
X134223421Y-111102272D01*
X134209920Y-111115310D01*
X134138925Y-111190392D01*
X134103314Y-111266093D01*
X134121481Y-111365959D01*
X134218800Y-111493755D01*
X134361318Y-111598558D01*
X134484660Y-111597946D01*
X134610283Y-111498376D01*
X134742931Y-111334283D01*
X134828854Y-111143320D01*
X134852726Y-111010655D01*
X137705709Y-111010655D01*
X137717967Y-111112474D01*
X137816154Y-111243860D01*
X137943502Y-111344882D01*
X138047646Y-111360171D01*
X138125775Y-111322241D01*
X138209020Y-111248472D01*
X139010670Y-110474328D01*
X139086157Y-110394811D01*
X139127933Y-110316951D01*
X139114023Y-110213419D01*
X139015282Y-110081462D01*
X138826479Y-109963651D01*
X138688572Y-110017379D01*
X138620133Y-110079055D01*
X137820767Y-110850995D01*
X137745281Y-110930512D01*
X137705709Y-111010655D01*
X134852726Y-111010655D01*
X134868052Y-110925485D01*
X134852154Y-110702634D01*
X134772793Y-110496618D01*
X134629965Y-110307438D01*
X134445514Y-110158211D01*
X134241280Y-110072057D01*
X134017266Y-110048974D01*
X133795593Y-110081852D01*
X133598385Y-110163580D01*
X133425641Y-110294159D01*
X133314339Y-110428821D01*
X133236949Y-110585090D01*
X133193198Y-110746926D01*
X133182813Y-110898281D01*
X133210599Y-111175847D01*
X133269379Y-111388694D01*
X133301201Y-111466678D01*
X133289950Y-111477542D01*
X132892301Y-111065764D01*
X132743806Y-110954773D01*
X132627488Y-110964910D01*
X132499693Y-111062229D01*
X132400185Y-111186589D01*
X132388399Y-111291464D01*
X131571395Y-111291464D01*
X130605376Y-110291122D01*
X130287391Y-109961839D01*
X131306602Y-109961839D01*
X131345511Y-110175997D01*
X131438970Y-110377098D01*
X131586979Y-110565139D01*
X131768658Y-110718250D01*
X131966024Y-110817558D01*
X132179079Y-110863063D01*
X132310781Y-110858726D01*
X132454005Y-110828042D01*
X132536412Y-110796298D01*
X132563259Y-110779068D01*
X132708670Y-110686481D01*
X132753314Y-110536829D01*
X132626230Y-110339935D01*
X132488562Y-110242406D01*
X132306366Y-110287895D01*
X132078846Y-110268438D01*
X131974082Y-110186969D01*
X131886221Y-110071783D01*
X131852970Y-109964740D01*
X131907779Y-109803098D01*
X132067899Y-109755011D01*
X132240058Y-109840974D01*
X132343427Y-109939011D01*
X132422425Y-109975786D01*
X132524369Y-109965397D01*
X132654356Y-109869222D01*
X132759702Y-109727267D01*
X132760720Y-109605612D01*
X132658977Y-109477740D01*
X132557058Y-109328295D01*
X132581590Y-109221983D01*
X132715055Y-109180069D01*
X132878405Y-109263666D01*
X132974175Y-109416875D01*
X132976668Y-109527530D01*
X132962704Y-109567106D01*
X132939165Y-109711596D01*
X132993610Y-109824263D01*
X133153626Y-109908909D01*
X133305429Y-109925385D01*
X133413033Y-109875829D01*
X133497731Y-109711819D01*
X136603714Y-109711819D01*
X136640081Y-109927732D01*
X136725958Y-110121214D01*
X136851628Y-110286199D01*
X137013545Y-110416733D01*
X137208164Y-110506858D01*
X137426083Y-110548554D01*
X137657899Y-110533795D01*
X137882649Y-110457445D01*
X138079373Y-110314366D01*
X138230843Y-110126899D01*
X138319825Y-109917384D01*
X138345900Y-109689498D01*
X139071524Y-109689498D01*
X139083150Y-109795235D01*
X139180827Y-109923805D01*
X139305909Y-110025909D01*
X139412319Y-110040116D01*
X139492692Y-110002224D01*
X139574794Y-109929559D01*
X139650282Y-109850042D01*
X139689773Y-109774388D01*
X139677576Y-109669202D01*
X139579407Y-109536693D01*
X139452611Y-109436244D01*
X139350120Y-109422666D01*
X139268645Y-109459416D01*
X139186541Y-109532081D01*
X139111055Y-109611598D01*
X139071524Y-109689498D01*
X138345900Y-109689498D01*
X138346321Y-109685821D01*
X138315899Y-109456259D01*
X138234126Y-109252745D01*
X138101002Y-109075279D01*
X137928663Y-108936175D01*
X137729242Y-108847742D01*
X137502741Y-108809982D01*
X137272255Y-108829038D01*
X137060878Y-108911048D01*
X136868610Y-109056013D01*
X136713319Y-109253425D01*
X136626573Y-109479538D01*
X136603714Y-109711819D01*
X133497731Y-109711819D01*
X133516066Y-109676315D01*
X133539141Y-109558364D01*
X133537845Y-109379151D01*
X133464185Y-109163280D01*
X133390300Y-109039488D01*
X133290344Y-108920219D01*
X133107215Y-108765608D01*
X132914195Y-108670801D01*
X132711281Y-108635796D01*
X132516189Y-108652669D01*
X132346629Y-108713495D01*
X132202603Y-108818274D01*
X132102302Y-108952821D01*
X132063918Y-109102950D01*
X132087449Y-109268663D01*
X132071697Y-109283874D01*
X131959218Y-109264213D01*
X131817640Y-109263954D01*
X131662603Y-109306046D01*
X131529918Y-109398302D01*
X131398098Y-109564253D01*
X131323659Y-109752099D01*
X131306602Y-109961839D01*
X130287391Y-109961839D01*
X130249273Y-109922367D01*
X130124729Y-109786897D01*
G37*
G36*
X144168114Y-116084682D02*
G01*
X144249848Y-116290440D01*
X144191385Y-116488138D01*
X143913486Y-116200366D01*
X143902761Y-116043001D01*
X144025863Y-116001364D01*
X144168114Y-116084682D01*
G37*
G36*
X140568684Y-112485339D02*
G01*
X140645889Y-112693264D01*
X140560606Y-112883758D01*
X140367370Y-112955605D01*
X140167898Y-112870167D01*
X140093923Y-112670157D01*
X140175779Y-112482971D01*
X140365785Y-112403208D01*
X140568684Y-112485339D01*
G37*
G36*
X143495504Y-121203633D02*
G01*
X143584839Y-121408717D01*
X143565886Y-121528123D01*
X143486813Y-121638183D01*
X143373799Y-121712532D01*
X143253018Y-121724804D01*
X143056647Y-121631781D01*
X142969487Y-121428947D01*
X142985461Y-121305894D01*
X143064291Y-121193895D01*
X143177325Y-121118440D01*
X143295914Y-121105024D01*
X143495504Y-121203633D01*
G37*
G36*
X139575510Y-117144360D02*
G01*
X139664844Y-117349444D01*
X139645890Y-117468849D01*
X139566819Y-117578910D01*
X139453804Y-117653258D01*
X139333023Y-117665530D01*
X139136653Y-117572507D01*
X139049492Y-117369674D01*
X139065467Y-117246621D01*
X139144297Y-117134621D01*
X139257330Y-117059166D01*
X139375919Y-117045750D01*
X139575510Y-117144360D01*
G37*
%TD*%
M02*
