%TF.GenerationSoftware,KiCad,Pcbnew,(6.0.7)*%
%TF.CreationDate,2022-12-12T17:27:47-06:00*%
%TF.ProjectId,LLK,4c4c4b2e-6b69-4636-9164-5f7063625858,rev?*%
%TF.SameCoordinates,Original*%
%TF.FileFunction,Legend,Top*%
%TF.FilePolarity,Positive*%
%FSLAX46Y46*%
G04 Gerber Fmt 4.6, Leading zero omitted, Abs format (unit mm)*
G04 Created by KiCad (PCBNEW (6.0.7)) date 2022-12-12 17:27:47*
%MOMM*%
%LPD*%
G01*
G04 APERTURE LIST*
%ADD10C,0.300000*%
G04 APERTURE END LIST*
D10*
%TO.C,G\u002A\u002A\u002A*%
X132677428Y-72318000D02*
X132532285Y-72245428D01*
X132314571Y-72245428D01*
X132096857Y-72318000D01*
X131951714Y-72463142D01*
X131879142Y-72608285D01*
X131806571Y-72898571D01*
X131806571Y-73116285D01*
X131879142Y-73406571D01*
X131951714Y-73551714D01*
X132096857Y-73696857D01*
X132314571Y-73769428D01*
X132459714Y-73769428D01*
X132677428Y-73696857D01*
X132750000Y-73624285D01*
X132750000Y-73116285D01*
X132459714Y-73116285D01*
X133620857Y-72245428D02*
X133620857Y-72608285D01*
X133258000Y-72463142D02*
X133620857Y-72608285D01*
X133983714Y-72463142D01*
X133403142Y-72898571D02*
X133620857Y-72608285D01*
X133838571Y-72898571D01*
X134782000Y-72245428D02*
X134782000Y-72608285D01*
X134419142Y-72463142D02*
X134782000Y-72608285D01*
X135144857Y-72463142D01*
X134564285Y-72898571D02*
X134782000Y-72608285D01*
X134999714Y-72898571D01*
X135943142Y-72245428D02*
X135943142Y-72608285D01*
X135580285Y-72463142D02*
X135943142Y-72608285D01*
X136306000Y-72463142D01*
X135725428Y-72898571D02*
X135943142Y-72608285D01*
X136160857Y-72898571D01*
G36*
X142349213Y-124190190D02*
G01*
X141739860Y-124163538D01*
X141275928Y-124137011D01*
X140927155Y-124095027D01*
X140663273Y-124022004D01*
X140454018Y-123902358D01*
X140269124Y-123720508D01*
X140078326Y-123460870D01*
X139851359Y-123107864D01*
X139660497Y-122805876D01*
X139369601Y-122344610D01*
X139017743Y-121779612D01*
X138634379Y-121158602D01*
X138248965Y-120529300D01*
X137890958Y-119939426D01*
X137883472Y-119927020D01*
X136869236Y-118245915D01*
X135472401Y-118215284D01*
X134946934Y-118202820D01*
X134568595Y-118188993D01*
X134308153Y-118169095D01*
X134136377Y-118138423D01*
X134024039Y-118092270D01*
X133941908Y-118025931D01*
X133881803Y-117959232D01*
X133793632Y-117819332D01*
X133645890Y-117542378D01*
X133450494Y-117152569D01*
X133219359Y-116674104D01*
X132964400Y-116131183D01*
X132731045Y-115622079D01*
X132326758Y-114734574D01*
X131984600Y-113994865D01*
X131697084Y-113388675D01*
X131456724Y-112901731D01*
X131256036Y-112519755D01*
X131087535Y-112228474D01*
X130981644Y-112070256D01*
X132899403Y-112070256D01*
X132922047Y-112180353D01*
X133009931Y-112429066D01*
X133154276Y-112794905D01*
X133346302Y-113256380D01*
X133577231Y-113792000D01*
X133838281Y-114380274D01*
X133889985Y-114494950D01*
X134928958Y-116793540D01*
X136203016Y-116855835D01*
X136671315Y-116884087D01*
X137086093Y-116919074D01*
X137410743Y-116956972D01*
X137608661Y-116993957D01*
X137641446Y-117006100D01*
X137767928Y-117126553D01*
X137975727Y-117392567D01*
X138259512Y-117796060D01*
X138613952Y-118328954D01*
X139033714Y-118983170D01*
X139513468Y-119750627D01*
X140047883Y-120623245D01*
X140265004Y-120982094D01*
X141367153Y-122809396D01*
X142590101Y-122812129D01*
X143813048Y-122814861D01*
X143777793Y-122261188D01*
X143747085Y-121970873D01*
X143684979Y-121699261D01*
X143577440Y-121417770D01*
X143410432Y-121097816D01*
X143169918Y-120710817D01*
X142841864Y-120228191D01*
X142635236Y-119934483D01*
X142259884Y-119417920D01*
X141949158Y-119028266D01*
X141676105Y-118741682D01*
X141413770Y-118534325D01*
X141135202Y-118382354D01*
X140813447Y-118261927D01*
X140707487Y-118229284D01*
X140088333Y-118044892D01*
X140088333Y-116767039D01*
X140083809Y-116224946D01*
X140069213Y-115840686D01*
X140043008Y-115595911D01*
X140003659Y-115472271D01*
X139978090Y-115449966D01*
X139863278Y-115424498D01*
X139600013Y-115374022D01*
X139213723Y-115303160D01*
X138729839Y-115216533D01*
X138173790Y-115118763D01*
X137776531Y-115049842D01*
X137153992Y-114940156D01*
X136556757Y-114830772D01*
X136017665Y-114728024D01*
X135569556Y-114638244D01*
X135245269Y-114567766D01*
X135135196Y-114540502D01*
X134585178Y-114392065D01*
X134255807Y-113342852D01*
X134119237Y-112929156D01*
X133988451Y-112570718D01*
X133986325Y-112565606D01*
X134860066Y-112565606D01*
X134866750Y-112628403D01*
X134940599Y-112973179D01*
X135051799Y-113316683D01*
X135179998Y-113608056D01*
X135304844Y-113796441D01*
X135347933Y-113830855D01*
X135510019Y-113886398D01*
X135828422Y-113967079D01*
X136285435Y-114069253D01*
X136863351Y-114189274D01*
X137544464Y-114323494D01*
X138311066Y-114468267D01*
X139145451Y-114619946D01*
X139393833Y-114664044D01*
X140771903Y-114907421D01*
X140826993Y-115434495D01*
X140859245Y-115834297D01*
X140879572Y-116260964D01*
X140883054Y-116455750D01*
X140893512Y-116802547D01*
X140919059Y-117133169D01*
X140936899Y-117269620D01*
X140992148Y-117480778D01*
X141104238Y-117601560D01*
X141329383Y-117689457D01*
X141354852Y-117697053D01*
X141662934Y-117805133D01*
X141927703Y-117946182D01*
X142178874Y-118146123D01*
X142446162Y-118430876D01*
X142759281Y-118826364D01*
X142958687Y-119096202D01*
X143240295Y-119481538D01*
X143436089Y-119740405D01*
X143564057Y-119888948D01*
X143642187Y-119943310D01*
X143688466Y-119919636D01*
X143720883Y-119834068D01*
X143732715Y-119790880D01*
X143751243Y-119631734D01*
X143765840Y-119322946D01*
X143776052Y-118891226D01*
X143781424Y-118363288D01*
X143781500Y-117765843D01*
X143776813Y-117202706D01*
X143766496Y-116481582D01*
X143754439Y-115917375D01*
X143739360Y-115490618D01*
X143719977Y-115181840D01*
X143695009Y-114971572D01*
X143663173Y-114840344D01*
X143623189Y-114768686D01*
X143616111Y-114761597D01*
X143484833Y-114700969D01*
X143215372Y-114618239D01*
X142843075Y-114522938D01*
X142403290Y-114424594D01*
X142249097Y-114393042D01*
X141468178Y-114229780D01*
X140625017Y-114040897D01*
X139753353Y-113834934D01*
X138886925Y-113620432D01*
X138059473Y-113405929D01*
X137304734Y-113199967D01*
X136656448Y-113011085D01*
X136159027Y-112851508D01*
X135662715Y-112681726D01*
X135309506Y-112566179D01*
X135076019Y-112500830D01*
X134938872Y-112481643D01*
X134874681Y-112504580D01*
X134860066Y-112565606D01*
X133986325Y-112565606D01*
X133877983Y-112305046D01*
X133802367Y-112169651D01*
X133800421Y-112167624D01*
X133626059Y-112064757D01*
X133385176Y-112000738D01*
X133141043Y-111982403D01*
X132956933Y-112016591D01*
X132899403Y-112070256D01*
X130981644Y-112070256D01*
X130943733Y-112013611D01*
X130817147Y-111860890D01*
X130706165Y-111760477D01*
X130431488Y-111441449D01*
X130264860Y-110991274D01*
X130210555Y-110439508D01*
X130173213Y-110026571D01*
X130043270Y-109725436D01*
X129793854Y-109484217D01*
X129674888Y-109405288D01*
X129328611Y-109191277D01*
X129329716Y-108402441D01*
X130827917Y-108402441D01*
X131231865Y-108795630D01*
X131564870Y-109152469D01*
X131769060Y-109463123D01*
X131867639Y-109770866D01*
X131886250Y-110015987D01*
X131922005Y-110292891D01*
X132012801Y-110492236D01*
X132024841Y-110505436D01*
X132205221Y-110593103D01*
X132479221Y-110638147D01*
X132768149Y-110635650D01*
X132993315Y-110580696D01*
X133017029Y-110567433D01*
X133066739Y-110503621D01*
X133083465Y-110374467D01*
X133066136Y-110148146D01*
X133013684Y-109792831D01*
X132985270Y-109622944D01*
X132900703Y-109137383D01*
X132829946Y-108797754D01*
X132757225Y-108576101D01*
X132666766Y-108444467D01*
X132542796Y-108374893D01*
X132369540Y-108339423D01*
X132252938Y-108324962D01*
X131796757Y-108226487D01*
X131496341Y-108058722D01*
X131386089Y-107911897D01*
X131371214Y-107796777D01*
X131355156Y-107524858D01*
X131338510Y-107115722D01*
X131335741Y-107028055D01*
X132756794Y-107028055D01*
X133269612Y-107029406D01*
X133566464Y-107040999D01*
X133796805Y-107069517D01*
X133887156Y-107097347D01*
X133968423Y-107177858D01*
X134045359Y-107324964D01*
X134124003Y-107560012D01*
X134210389Y-107904350D01*
X134310555Y-108379325D01*
X134430537Y-109006286D01*
X134437399Y-109043274D01*
X134552742Y-109653219D01*
X134647575Y-110113435D01*
X134730296Y-110448197D01*
X134809306Y-110681778D01*
X134893005Y-110838453D01*
X134989794Y-110942496D01*
X135108072Y-111018182D01*
X135123607Y-111026255D01*
X135393178Y-111141818D01*
X135804986Y-111289175D01*
X136335228Y-111461908D01*
X136960104Y-111653598D01*
X137655811Y-111857825D01*
X138398548Y-112068170D01*
X139164514Y-112278214D01*
X139929906Y-112481538D01*
X140670924Y-112671724D01*
X141363765Y-112842351D01*
X141984629Y-112987001D01*
X142509713Y-113099255D01*
X142915216Y-113172694D01*
X143177336Y-113200898D01*
X143187485Y-113201011D01*
X143379806Y-113145540D01*
X143658295Y-112997307D01*
X143980941Y-112784724D01*
X144305734Y-112536200D01*
X144590660Y-112280147D01*
X144667769Y-112199938D01*
X144881580Y-111966944D01*
X156921615Y-111966944D01*
X157670926Y-112620268D01*
X158420238Y-113273592D01*
X159815570Y-112980759D01*
X160424757Y-112849052D01*
X161101167Y-112696540D01*
X161769328Y-112540590D01*
X162353770Y-112398571D01*
X162445625Y-112375481D01*
X163234257Y-112166941D01*
X164018747Y-111942934D01*
X164766553Y-111713853D01*
X165445135Y-111490093D01*
X166021950Y-111282048D01*
X166464457Y-111100113D01*
X166522109Y-111073416D01*
X166719541Y-110980331D01*
X166870993Y-110896772D01*
X166987090Y-110798379D01*
X167078457Y-110660796D01*
X167155718Y-110459663D01*
X167184459Y-110347070D01*
X168818794Y-110347070D01*
X168873997Y-110531117D01*
X169005768Y-110615726D01*
X169224776Y-110624643D01*
X169355708Y-110610141D01*
X169629632Y-110545470D01*
X169831779Y-110447975D01*
X169876007Y-110406124D01*
X169968629Y-110218867D01*
X169986742Y-110120053D01*
X170069663Y-109680110D01*
X170304971Y-109218916D01*
X170611525Y-108835922D01*
X171044583Y-108378026D01*
X171044091Y-104814673D01*
X171041979Y-103795736D01*
X171035414Y-102941863D01*
X171023597Y-102241767D01*
X171005730Y-101684162D01*
X170981014Y-101257759D01*
X170948651Y-100951273D01*
X170907840Y-100753416D01*
X170857784Y-100652901D01*
X170797684Y-100638441D01*
X170750886Y-100671787D01*
X170721184Y-100762577D01*
X170694822Y-100977787D01*
X170671433Y-101326065D01*
X170650652Y-101816059D01*
X170632113Y-102456417D01*
X170615448Y-103255787D01*
X170600294Y-104222818D01*
X170600165Y-104232188D01*
X170586626Y-105190393D01*
X170572292Y-105987130D01*
X170553520Y-106637294D01*
X170526666Y-107155783D01*
X170488088Y-107557492D01*
X170434141Y-107857320D01*
X170361184Y-108070161D01*
X170265572Y-108210914D01*
X170143662Y-108294475D01*
X169991812Y-108335741D01*
X169806378Y-108349608D01*
X169592862Y-108350972D01*
X169397247Y-108362986D01*
X169253451Y-108416741D01*
X169146466Y-108538809D01*
X169061281Y-108755760D01*
X168982888Y-109094167D01*
X168896278Y-109580601D01*
X168895422Y-109585694D01*
X168829492Y-110039844D01*
X168818794Y-110347070D01*
X167184459Y-110347070D01*
X167229500Y-110170624D01*
X167310427Y-109769320D01*
X167409125Y-109231394D01*
X167468355Y-108904151D01*
X167583187Y-108293013D01*
X167679729Y-107834443D01*
X167764305Y-107506345D01*
X167843235Y-107286623D01*
X167922842Y-107153182D01*
X167985344Y-107097347D01*
X168125875Y-107060937D01*
X168379936Y-107036188D01*
X168607227Y-107029406D01*
X169124384Y-107028055D01*
X169064032Y-99333090D01*
X169052060Y-97830671D01*
X169040671Y-96493517D01*
X169029277Y-95310508D01*
X169017289Y-94270525D01*
X169004120Y-93362446D01*
X168989180Y-92575153D01*
X168971880Y-91897525D01*
X168951634Y-91318443D01*
X168927851Y-90826786D01*
X168899943Y-90411435D01*
X168867323Y-90061269D01*
X168829400Y-89765169D01*
X168785588Y-89512015D01*
X168735296Y-89290686D01*
X168677938Y-89090064D01*
X168612923Y-88899027D01*
X168539665Y-88706457D01*
X168495780Y-88596195D01*
X168168500Y-87863520D01*
X167791721Y-87193271D01*
X167333365Y-86534988D01*
X166761355Y-85838206D01*
X166693471Y-85760843D01*
X165508657Y-84547205D01*
X164187772Y-83431801D01*
X162746436Y-82422852D01*
X161200270Y-81528579D01*
X159564896Y-80757202D01*
X157855934Y-80116941D01*
X156089005Y-79616018D01*
X154372689Y-79276961D01*
X153827738Y-79212352D01*
X153144825Y-79163241D01*
X152361605Y-79129629D01*
X151515732Y-79111518D01*
X150644864Y-79108912D01*
X149786655Y-79121811D01*
X148978761Y-79150218D01*
X148258838Y-79194135D01*
X147664540Y-79253564D01*
X147502439Y-79276575D01*
X145643429Y-79650860D01*
X143827248Y-80183090D01*
X142070549Y-80865680D01*
X140389985Y-81691046D01*
X138802207Y-82651601D01*
X137323868Y-83739761D01*
X136869236Y-84120065D01*
X135929882Y-84976959D01*
X135140217Y-85801945D01*
X134482490Y-86618582D01*
X133938950Y-87450428D01*
X133491845Y-88321041D01*
X133235861Y-88941846D01*
X133179908Y-89104664D01*
X133129845Y-89286472D01*
X133085248Y-89497849D01*
X133045695Y-89749371D01*
X133010764Y-90051617D01*
X132980033Y-90415164D01*
X132953080Y-90850590D01*
X132929483Y-91368472D01*
X132908818Y-91979388D01*
X132890664Y-92693915D01*
X132874600Y-93522631D01*
X132860201Y-94476114D01*
X132847047Y-95564941D01*
X132834716Y-96799690D01*
X132822784Y-98190939D01*
X132812275Y-99553576D01*
X132756794Y-107028055D01*
X131335741Y-107028055D01*
X131321874Y-106588949D01*
X131305843Y-105964121D01*
X131291013Y-105260820D01*
X131277981Y-104498626D01*
X131274143Y-104235111D01*
X131261785Y-103460915D01*
X131247279Y-102741872D01*
X131231237Y-102097076D01*
X131214269Y-101545621D01*
X131196988Y-101106603D01*
X131180003Y-100799115D01*
X131163927Y-100642253D01*
X131158646Y-100626488D01*
X131084641Y-100582895D01*
X131022043Y-100619116D01*
X130970001Y-100746123D01*
X130927667Y-100974883D01*
X130894191Y-101316365D01*
X130868725Y-101781538D01*
X130850418Y-102381372D01*
X130838422Y-103126834D01*
X130831887Y-104028895D01*
X130830021Y-104870977D01*
X130827917Y-108402441D01*
X129329716Y-108402441D01*
X129334916Y-104692131D01*
X129341220Y-100192986D01*
X130305054Y-99373033D01*
X131268889Y-98553081D01*
X131271837Y-96815395D01*
X131277229Y-95923442D01*
X131289886Y-95006424D01*
X131308972Y-94085469D01*
X131333652Y-93181705D01*
X131363088Y-92316260D01*
X131396445Y-91510262D01*
X131432887Y-90784838D01*
X131471577Y-90161117D01*
X131511680Y-89660227D01*
X131552358Y-89303296D01*
X131574063Y-89178802D01*
X131717788Y-88688796D01*
X131948517Y-88105519D01*
X132243997Y-87474178D01*
X132581975Y-86839976D01*
X132940197Y-86248121D01*
X133207151Y-85861389D01*
X133580315Y-85395127D01*
X134057191Y-84857381D01*
X134601887Y-84284481D01*
X135178512Y-83712754D01*
X135751173Y-83178530D01*
X136283977Y-82718137D01*
X136425162Y-82604213D01*
X138018752Y-81450584D01*
X139694057Y-80449237D01*
X141455256Y-79598392D01*
X143306530Y-78896268D01*
X145252058Y-78341084D01*
X147296019Y-77931060D01*
X147452569Y-77906240D01*
X148254631Y-77808876D01*
X149183882Y-77741918D01*
X150193769Y-77705349D01*
X151237736Y-77699152D01*
X152269227Y-77723311D01*
X153241688Y-77777808D01*
X154108563Y-77862626D01*
X154439598Y-77908778D01*
X156489985Y-78308139D01*
X158447232Y-78854390D01*
X160309035Y-79546372D01*
X162073090Y-80382923D01*
X163737093Y-81362883D01*
X165298740Y-82485091D01*
X166755729Y-83748388D01*
X167494934Y-84485433D01*
X168404511Y-85528076D01*
X169152485Y-86581505D01*
X169735514Y-87639460D01*
X170150257Y-88695683D01*
X170393372Y-89743913D01*
X170423201Y-89970256D01*
X170442978Y-90221141D01*
X170464005Y-90625794D01*
X170485567Y-91161607D01*
X170506952Y-91805970D01*
X170527444Y-92536272D01*
X170546331Y-93329906D01*
X170562898Y-94164261D01*
X170571146Y-94656832D01*
X170632211Y-98578811D01*
X171632147Y-99416876D01*
X172632083Y-100254942D01*
X172632083Y-109057694D01*
X172433646Y-109224473D01*
X172223853Y-109400582D01*
X171990834Y-109595911D01*
X171983469Y-109602080D01*
X171855493Y-109726500D01*
X171771825Y-109870577D01*
X171716226Y-110081333D01*
X171672458Y-110405791D01*
X171657961Y-110544661D01*
X171582105Y-111057873D01*
X171467371Y-111423315D01*
X171302789Y-111667384D01*
X171142338Y-111785439D01*
X171054574Y-111849114D01*
X170956119Y-111958785D01*
X170839441Y-112128779D01*
X170697009Y-112373423D01*
X170521292Y-112707044D01*
X170304757Y-113143969D01*
X170039873Y-113698525D01*
X169719110Y-114385038D01*
X169334934Y-115217837D01*
X169313937Y-115263549D01*
X169020038Y-115896964D01*
X168741612Y-116484712D01*
X168489015Y-117005867D01*
X168272606Y-117439504D01*
X168102742Y-117764697D01*
X167989780Y-117960519D01*
X167957751Y-118003501D01*
X167873110Y-118073150D01*
X167760301Y-118124257D01*
X167590201Y-118161011D01*
X167333685Y-118187600D01*
X166961626Y-118208210D01*
X166444899Y-118227032D01*
X166391284Y-118228750D01*
X165005857Y-118272847D01*
X163813935Y-120222188D01*
X163451293Y-120813388D01*
X163081592Y-121412725D01*
X162726341Y-121985574D01*
X162407048Y-122497309D01*
X162145222Y-122913305D01*
X162026755Y-123099275D01*
X161818120Y-123427230D01*
X161650408Y-123675792D01*
X161495512Y-123857001D01*
X161325327Y-123982894D01*
X161111746Y-124065509D01*
X160826662Y-124116886D01*
X160441970Y-124149061D01*
X159929562Y-124174074D01*
X159470377Y-124194197D01*
X158191241Y-124252319D01*
X158138984Y-124811922D01*
X158097049Y-125135406D01*
X158041218Y-125407236D01*
X157994132Y-125544542D01*
X157868211Y-125679494D01*
X157642792Y-125779181D01*
X157299570Y-125847033D01*
X156820243Y-125886479D01*
X156186507Y-125900949D01*
X156090563Y-125901175D01*
X154938973Y-125901667D01*
X154571355Y-126591610D01*
X154422092Y-126877277D01*
X154297933Y-127104811D01*
X154177686Y-127280869D01*
X154040157Y-127412110D01*
X153864155Y-127505191D01*
X153628486Y-127566769D01*
X153311957Y-127603504D01*
X152893377Y-127622052D01*
X152351551Y-127629072D01*
X151665288Y-127631222D01*
X151257868Y-127632566D01*
X150577723Y-127633554D01*
X149934121Y-127630826D01*
X149354202Y-127624780D01*
X148865103Y-127615814D01*
X148493964Y-127604324D01*
X148267924Y-127590709D01*
X148247898Y-127588468D01*
X147808505Y-127533264D01*
X147411008Y-126770469D01*
X147013512Y-126007674D01*
X146174707Y-125953079D01*
X145473908Y-125906729D01*
X144928593Y-125863795D01*
X144518306Y-125815095D01*
X144222593Y-125751448D01*
X144020998Y-125663672D01*
X143893067Y-125542586D01*
X143818345Y-125379008D01*
X143776377Y-125163758D01*
X143746707Y-124887655D01*
X143744200Y-124862135D01*
X143716276Y-124578750D01*
X145291805Y-124578750D01*
X146692829Y-124578750D01*
X146719921Y-122773016D01*
X146729832Y-122163962D01*
X146737388Y-121844722D01*
X148185089Y-121844722D01*
X148222758Y-123410173D01*
X148244823Y-124085799D01*
X148278841Y-124615625D01*
X148331320Y-125030157D01*
X148408767Y-125359899D01*
X148517686Y-125635357D01*
X148664586Y-125887035D01*
X148787395Y-126057411D01*
X148907897Y-126203108D01*
X149003789Y-126279881D01*
X149078188Y-126273696D01*
X149134210Y-126170523D01*
X149174974Y-125956328D01*
X149203597Y-125617080D01*
X149223196Y-125138747D01*
X149236888Y-124507295D01*
X149242951Y-124086840D01*
X150054305Y-124086840D01*
X150057408Y-124812136D01*
X150067136Y-125373996D01*
X150084123Y-125785271D01*
X150109001Y-126058812D01*
X150142402Y-126207470D01*
X150160139Y-126236805D01*
X150247568Y-126301224D01*
X150316111Y-126289106D01*
X150367910Y-126185143D01*
X150405105Y-125974029D01*
X150429835Y-125640457D01*
X150444243Y-125169120D01*
X150450467Y-124544709D01*
X150451181Y-124155456D01*
X150450810Y-124031913D01*
X151421319Y-124031913D01*
X151424026Y-124616221D01*
X151431608Y-125147091D01*
X151443261Y-125597130D01*
X151458180Y-125938946D01*
X151475560Y-126145146D01*
X151484697Y-126188298D01*
X151591820Y-126327212D01*
X151706779Y-126300982D01*
X151764661Y-126203134D01*
X151785192Y-126061530D01*
X151800457Y-125778416D01*
X151810690Y-125384644D01*
X151816125Y-124911067D01*
X151816996Y-124388538D01*
X151813537Y-123847910D01*
X151805980Y-123320034D01*
X151794561Y-122835763D01*
X151779511Y-122425950D01*
X151761066Y-122121448D01*
X151739459Y-121953108D01*
X151732322Y-121933654D01*
X151640996Y-121849467D01*
X151535235Y-121915983D01*
X151495961Y-122000311D01*
X151466057Y-122176390D01*
X151444583Y-122461640D01*
X151430602Y-122873481D01*
X151423177Y-123429332D01*
X151421319Y-124031913D01*
X150450810Y-124031913D01*
X150449013Y-123433299D01*
X150441214Y-122871227D01*
X150425840Y-122452972D01*
X150400944Y-122162269D01*
X150364582Y-121982851D01*
X150314810Y-121898452D01*
X150249683Y-121892806D01*
X150185554Y-121933783D01*
X150142556Y-121995237D01*
X150109764Y-122112964D01*
X150085906Y-122307823D01*
X150069712Y-122600676D01*
X150059908Y-123012383D01*
X150055224Y-123563804D01*
X150054305Y-124086840D01*
X149242951Y-124086840D01*
X149244185Y-124001239D01*
X149271912Y-121844722D01*
X152600588Y-121844722D01*
X152628315Y-123983437D01*
X152639055Y-124584717D01*
X152654403Y-125130319D01*
X152673179Y-125594491D01*
X152694205Y-125951476D01*
X152716303Y-126175520D01*
X152731492Y-126239028D01*
X152839128Y-126281266D01*
X152992908Y-126182825D01*
X153171579Y-125966030D01*
X153353886Y-125653208D01*
X153417753Y-125518163D01*
X153491311Y-125338294D01*
X153545919Y-125155258D01*
X153585188Y-124937491D01*
X153612728Y-124653428D01*
X153632147Y-124271504D01*
X153647056Y-123760155D01*
X153653778Y-123454271D01*
X153687101Y-121844722D01*
X152600588Y-121844722D01*
X149271912Y-121844722D01*
X148185089Y-121844722D01*
X146737388Y-121844722D01*
X146740667Y-121706176D01*
X146755278Y-121374548D01*
X146776518Y-121143968D01*
X146807239Y-120989326D01*
X146850291Y-120885511D01*
X146908527Y-120807413D01*
X146947793Y-120766593D01*
X147002828Y-120714496D01*
X147065056Y-120672134D01*
X147152324Y-120638317D01*
X147282482Y-120611852D01*
X147473377Y-120591546D01*
X147742858Y-120576209D01*
X148108773Y-120564647D01*
X148588970Y-120555670D01*
X149201298Y-120548085D01*
X149963605Y-120540699D01*
X150387377Y-120536881D01*
X151375654Y-120529265D01*
X152203235Y-120526341D01*
X152885773Y-120529128D01*
X153438922Y-120538647D01*
X153878337Y-120555916D01*
X154219670Y-120581957D01*
X154478577Y-120617787D01*
X154670710Y-120664427D01*
X154811724Y-120722896D01*
X154917273Y-120794215D01*
X154961448Y-120834820D01*
X155032099Y-120910700D01*
X155084628Y-120994121D01*
X155121720Y-121110568D01*
X155146059Y-121285529D01*
X155160331Y-121544490D01*
X155167219Y-121912938D01*
X155169408Y-122416358D01*
X155169583Y-122810852D01*
X155169583Y-124578750D01*
X156580694Y-124578750D01*
X156580679Y-122814861D01*
X158055850Y-122814861D01*
X159280599Y-122811355D01*
X160505347Y-122807849D01*
X161519583Y-121122423D01*
X162029373Y-120282739D01*
X162506446Y-119511602D01*
X162942799Y-118821166D01*
X163330430Y-118223587D01*
X163661338Y-117731021D01*
X163927521Y-117355622D01*
X164120975Y-117109546D01*
X164228546Y-117007442D01*
X164373740Y-116971279D01*
X164658606Y-116932946D01*
X165046528Y-116896280D01*
X165500893Y-116865118D01*
X165673707Y-116855985D01*
X166951988Y-116793839D01*
X167988200Y-114498911D01*
X168253430Y-113903365D01*
X168490097Y-113356232D01*
X168689433Y-112879070D01*
X168842669Y-112493436D01*
X168941036Y-112220887D01*
X168975764Y-112082982D01*
X168974559Y-112074066D01*
X168858391Y-111988192D01*
X168645816Y-111975708D01*
X168395608Y-112026148D01*
X168166540Y-112129047D01*
X168039089Y-112240652D01*
X167953000Y-112405363D01*
X167837449Y-112695241D01*
X167709361Y-113065273D01*
X167615906Y-113366102D01*
X167498327Y-113749232D01*
X167391822Y-114069392D01*
X167309553Y-114288569D01*
X167269767Y-114365927D01*
X167141129Y-114423985D01*
X166857867Y-114505719D01*
X166439526Y-114606908D01*
X165905651Y-114723327D01*
X165275785Y-114850753D01*
X164569474Y-114984963D01*
X163806262Y-115121733D01*
X163634993Y-115151346D01*
X163049979Y-115253113D01*
X162615310Y-115333350D01*
X162307215Y-115398753D01*
X162101924Y-115456022D01*
X161975666Y-115511853D01*
X161904670Y-115572944D01*
X161865166Y-115645994D01*
X161863427Y-115650513D01*
X161832672Y-115817525D01*
X161807480Y-116118290D01*
X161790447Y-116510198D01*
X161784167Y-116950637D01*
X161784167Y-118044892D01*
X161165013Y-118229284D01*
X160823548Y-118345875D01*
X160533491Y-118487553D01*
X160267820Y-118678261D01*
X159999518Y-118941942D01*
X159701564Y-119302540D01*
X159346939Y-119783999D01*
X159239594Y-119935513D01*
X158861655Y-120481707D01*
X158578674Y-120918712D01*
X158376318Y-121275785D01*
X158240251Y-121582188D01*
X158156139Y-121867179D01*
X158109649Y-122160018D01*
X158100305Y-122261052D01*
X158055850Y-122814861D01*
X156580679Y-122814861D01*
X156580638Y-118054052D01*
X158086469Y-118054052D01*
X158091970Y-118600779D01*
X158102796Y-119056115D01*
X158118511Y-119382503D01*
X158123378Y-119441977D01*
X158184494Y-120094179D01*
X158845921Y-119183513D01*
X159119461Y-118816434D01*
X159378739Y-118485440D01*
X159594931Y-118226278D01*
X159739212Y-118074698D01*
X159741764Y-118072497D01*
X159966909Y-117928870D01*
X160272580Y-117791495D01*
X160428825Y-117738526D01*
X160682480Y-117646407D01*
X160846385Y-117525258D01*
X160939620Y-117337877D01*
X160981264Y-117047064D01*
X160990417Y-116643532D01*
X160998286Y-116338143D01*
X161018874Y-115944511D01*
X161046430Y-115564257D01*
X161102443Y-114901623D01*
X162479589Y-114659385D01*
X163498121Y-114476925D01*
X164386728Y-114310894D01*
X165137917Y-114162874D01*
X165744195Y-114034450D01*
X166198066Y-113927205D01*
X166492039Y-113842723D01*
X166616202Y-113785168D01*
X166700276Y-113645607D01*
X166805384Y-113393952D01*
X166894748Y-113128982D01*
X167059663Y-112584305D01*
X166855036Y-112584305D01*
X166693316Y-112608929D01*
X166404162Y-112675978D01*
X166028486Y-112775218D01*
X165607201Y-112896414D01*
X165606351Y-112896668D01*
X165016297Y-113067081D01*
X164317213Y-113259030D01*
X163544802Y-113463569D01*
X162734766Y-113671754D01*
X161922808Y-113874637D01*
X161144630Y-114063274D01*
X160435934Y-114228719D01*
X159832423Y-114362026D01*
X159447014Y-114439962D01*
X159025283Y-114527338D01*
X158660121Y-114617189D01*
X158390700Y-114698927D01*
X158256389Y-114761782D01*
X158211358Y-114832134D01*
X158176010Y-114964443D01*
X158148689Y-115179796D01*
X158127733Y-115499281D01*
X158111486Y-115943988D01*
X158098287Y-116535003D01*
X158093180Y-116836647D01*
X158086727Y-117453489D01*
X158086469Y-118054052D01*
X156580638Y-118054052D01*
X156580608Y-114480486D01*
X156145359Y-114105660D01*
X155710111Y-113730833D01*
X146129653Y-113737837D01*
X145291805Y-114509133D01*
X145291805Y-124578750D01*
X143716276Y-124578750D01*
X143684052Y-124251727D01*
X142349213Y-124190190D01*
G37*
G36*
X157344765Y-103333680D02*
G01*
X157616686Y-102877697D01*
X157978221Y-102469455D01*
X158547260Y-102014438D01*
X159185493Y-101699197D01*
X159867802Y-101520232D01*
X160569072Y-101474042D01*
X161264186Y-101557127D01*
X161928028Y-101765989D01*
X162535482Y-102097125D01*
X163061431Y-102547037D01*
X163480759Y-103112225D01*
X163553508Y-103246381D01*
X163709487Y-103688978D01*
X163790820Y-104215825D01*
X163790360Y-104748208D01*
X163724645Y-105131159D01*
X163471328Y-105722600D01*
X163077060Y-106243904D01*
X162567766Y-106682071D01*
X161969373Y-107024102D01*
X161307807Y-107256997D01*
X160608994Y-107367757D01*
X159898861Y-107343384D01*
X159480512Y-107259130D01*
X158893918Y-107021285D01*
X158325830Y-106645112D01*
X157820201Y-106166828D01*
X157420982Y-105622651D01*
X157358609Y-105510675D01*
X157246828Y-105254211D01*
X157184142Y-104974249D01*
X157158722Y-104607372D01*
X157156352Y-104426319D01*
X158697361Y-104426319D01*
X158770071Y-104920417D01*
X158991720Y-105329761D01*
X159367586Y-105661278D01*
X159809605Y-105885983D01*
X160348910Y-106014667D01*
X160889493Y-105967369D01*
X161332382Y-105798849D01*
X161777300Y-105490615D01*
X162077863Y-105112789D01*
X162237054Y-104692759D01*
X162257854Y-104257911D01*
X162143246Y-103835631D01*
X161896213Y-103453307D01*
X161519736Y-103138324D01*
X161018728Y-102918630D01*
X160472487Y-102834835D01*
X159956805Y-102893936D01*
X159497193Y-103079366D01*
X159119159Y-103374557D01*
X158848214Y-103762942D01*
X158709867Y-104227951D01*
X158697361Y-104426319D01*
X157156352Y-104426319D01*
X157198665Y-103832400D01*
X157344765Y-103333680D01*
G37*
G36*
X138306900Y-103244751D02*
G01*
X138659841Y-102692818D01*
X139165639Y-102217967D01*
X139819216Y-101828075D01*
X139840472Y-101818046D01*
X140145312Y-101680755D01*
X140390945Y-101592816D01*
X140634187Y-101543312D01*
X140931852Y-101521330D01*
X141340755Y-101515952D01*
X141413104Y-101515903D01*
X141840374Y-101519481D01*
X142146426Y-101537426D01*
X142386395Y-101580555D01*
X142615416Y-101659686D01*
X142888624Y-101785636D01*
X142955802Y-101818568D01*
X143602020Y-102217214D01*
X144109161Y-102696840D01*
X144473656Y-103238319D01*
X144691936Y-103822525D01*
X144760435Y-104430333D01*
X144675583Y-105042615D01*
X144433814Y-105640246D01*
X144031557Y-106204099D01*
X143815167Y-106425055D01*
X143538529Y-106664642D01*
X143261365Y-106874092D01*
X143078760Y-106988262D01*
X142412833Y-107240546D01*
X141676602Y-107358446D01*
X140919814Y-107336810D01*
X140485208Y-107256855D01*
X139987401Y-107098212D01*
X139558358Y-106871090D01*
X139130465Y-106537434D01*
X139007333Y-106425055D01*
X138539576Y-105889263D01*
X138236498Y-105304464D01*
X138089100Y-104652444D01*
X138079907Y-104548360D01*
X138081928Y-104505235D01*
X139606637Y-104505235D01*
X139720284Y-104945052D01*
X139975368Y-105346060D01*
X140361329Y-105684054D01*
X140860836Y-105932422D01*
X141182094Y-106025582D01*
X141461914Y-106041736D01*
X141772407Y-105977789D01*
X142053143Y-105881273D01*
X142556864Y-105615113D01*
X142937460Y-105247650D01*
X143076168Y-105027430D01*
X143147652Y-104771383D01*
X143171830Y-104429926D01*
X143148688Y-104087581D01*
X143078213Y-103828869D01*
X143076362Y-103825209D01*
X142769122Y-103400035D01*
X142364395Y-103091577D01*
X141895010Y-102902062D01*
X141393794Y-102833717D01*
X140893576Y-102888771D01*
X140427185Y-103069450D01*
X140027448Y-103377983D01*
X139845897Y-103606001D01*
X139644988Y-104050816D01*
X139606637Y-104505235D01*
X138081928Y-104505235D01*
X138111896Y-103865891D01*
X138306900Y-103244751D01*
G37*
%TD*%
M02*
