%TF.GenerationSoftware,KiCad,Pcbnew,(6.0.7)*%
%TF.CreationDate,2022-11-23T15:41:05-06:00*%
%TF.ProjectId,LLK,4c4c4b2e-6b69-4636-9164-5f7063625858,rev?*%
%TF.SameCoordinates,Original*%
%TF.FileFunction,Soldermask,Top*%
%TF.FilePolarity,Negative*%
%FSLAX46Y46*%
G04 Gerber Fmt 4.6, Leading zero omitted, Abs format (unit mm)*
G04 Created by KiCad (PCBNEW (6.0.7)) date 2022-11-23 15:41:05*
%MOMM*%
%LPD*%
G01*
G04 APERTURE LIST*
%ADD10C,0.000000*%
%ADD11C,4.000000*%
%ADD12C,0.900000*%
G04 APERTURE END LIST*
D10*
G36*
X160773141Y-103497828D02*
G01*
X161073141Y-103617828D01*
X161343141Y-103817828D01*
X161533141Y-104087828D01*
X161593141Y-104277828D01*
X161603141Y-104497828D01*
X161583141Y-104707828D01*
X161543141Y-104857828D01*
X161463141Y-104997828D01*
X161193141Y-105247828D01*
X160883141Y-105417828D01*
X160733141Y-105467828D01*
X160503141Y-105517828D01*
X160333141Y-105507828D01*
X160123141Y-105447828D01*
X159793141Y-105287828D01*
X159543141Y-105077828D01*
X159383141Y-104807828D01*
X159313141Y-104537828D01*
X159333141Y-104247828D01*
X159463141Y-103957828D01*
X159573141Y-103807828D01*
X159843141Y-103597828D01*
X160033141Y-103537828D01*
X160153141Y-103497828D01*
X160463141Y-103457828D01*
X160773141Y-103497828D01*
G37*
G36*
X141700000Y-103350000D02*
G01*
X142000000Y-103470000D01*
X142270000Y-103670000D01*
X142460000Y-103940000D01*
X142520000Y-104130000D01*
X142530000Y-104350000D01*
X142510000Y-104560000D01*
X142470000Y-104710000D01*
X142390000Y-104850000D01*
X142120000Y-105100000D01*
X141810000Y-105270000D01*
X141660000Y-105320000D01*
X141430000Y-105370000D01*
X141260000Y-105360000D01*
X141050000Y-105300000D01*
X140720000Y-105140000D01*
X140470000Y-104930000D01*
X140310000Y-104660000D01*
X140240000Y-104390000D01*
X140260000Y-104100000D01*
X140390000Y-103810000D01*
X140500000Y-103660000D01*
X140770000Y-103450000D01*
X140960000Y-103390000D01*
X141080000Y-103350000D01*
X141390000Y-103310000D01*
X141700000Y-103350000D01*
G37*
D11*
%TO.C,REF\u002A\u002A*%
X150660000Y-79220000D03*
%TD*%
D12*
%TO.C,ON/OFF*%
X161125788Y-120394038D03*
X162625788Y-117795962D03*
%TD*%
M02*
