%TF.GenerationSoftware,KiCad,Pcbnew,(6.0.7)*%
%TF.CreationDate,2022-12-12T17:27:47-06:00*%
%TF.ProjectId,LLK,4c4c4b2e-6b69-4636-9164-5f7063625858,rev?*%
%TF.SameCoordinates,Original*%
%TF.FileFunction,Copper,L1,Top*%
%TF.FilePolarity,Positive*%
%FSLAX46Y46*%
G04 Gerber Fmt 4.6, Leading zero omitted, Abs format (unit mm)*
G04 Created by KiCad (PCBNEW (6.0.7)) date 2022-12-12 17:27:47*
%MOMM*%
%LPD*%
G01*
G04 APERTURE LIST*
%TA.AperFunction,ComponentPad*%
%ADD10C,4.000000*%
%TD*%
G04 APERTURE END LIST*
D10*
%TO.P,REF\u002A\u002A,*%
%TO.N,*%
X150660000Y-79220000D03*
%TD*%
%TA.AperFunction,NonConductor*%
G36*
X152698941Y-77044426D02*
G01*
X152703948Y-77044828D01*
X153642541Y-77139228D01*
X153647528Y-77139831D01*
X154121557Y-77206684D01*
X154581558Y-77271559D01*
X154586476Y-77272353D01*
X155050532Y-77356787D01*
X155514569Y-77441218D01*
X155519492Y-77442216D01*
X156440057Y-77647927D01*
X156444937Y-77649120D01*
X157356575Y-77891362D01*
X157361403Y-77892748D01*
X157871655Y-78050357D01*
X158262699Y-78171145D01*
X158267443Y-78172715D01*
X158555586Y-78274467D01*
X159156908Y-78486812D01*
X159161611Y-78488579D01*
X160037846Y-78837878D01*
X160042474Y-78839831D01*
X160701565Y-79133530D01*
X160886730Y-79216042D01*
X160904070Y-79223769D01*
X160908589Y-79225891D01*
X161754264Y-79643901D01*
X161758709Y-79646210D01*
X162586992Y-80097565D01*
X162591354Y-80100056D01*
X163400999Y-80584073D01*
X163405258Y-80586736D01*
X164194943Y-81102626D01*
X164199093Y-81105456D01*
X164967618Y-81652433D01*
X164971649Y-81655425D01*
X165698011Y-82217323D01*
X165717750Y-82232593D01*
X165721658Y-82235742D01*
X166427096Y-82827867D01*
X166444174Y-82842202D01*
X166447956Y-82845508D01*
X167145699Y-83480261D01*
X167149347Y-83483715D01*
X167156700Y-83490960D01*
X167805426Y-84130199D01*
X167821241Y-84145783D01*
X167824748Y-84149379D01*
X168469722Y-84837705D01*
X168473078Y-84841432D01*
X169075630Y-85538186D01*
X169090125Y-85554947D01*
X169093330Y-85558808D01*
X169667628Y-86279019D01*
X169681414Y-86296308D01*
X169684460Y-86300288D01*
X169974961Y-86695981D01*
X170216878Y-87025499D01*
X170228276Y-87044255D01*
X170232350Y-87052502D01*
X170232355Y-87052510D01*
X170236329Y-87060553D01*
X170242401Y-87067158D01*
X170242405Y-87067164D01*
X170243414Y-87068261D01*
X170258284Y-87088022D01*
X170493256Y-87474048D01*
X170497863Y-87482298D01*
X170726482Y-87930390D01*
X170730372Y-87938758D01*
X170943569Y-88445100D01*
X170949389Y-88462289D01*
X171052291Y-88858067D01*
X171056119Y-88882226D01*
X171081254Y-89301132D01*
X171081480Y-89308810D01*
X171081125Y-89639463D01*
X171071551Y-98562125D01*
X171070152Y-98580711D01*
X171066283Y-98606462D01*
X171071352Y-98643677D01*
X171071463Y-98644753D01*
X171071461Y-98645967D01*
X171071920Y-98649193D01*
X171076244Y-98679617D01*
X171076343Y-98680322D01*
X171085939Y-98750787D01*
X171086554Y-98752164D01*
X171086766Y-98753658D01*
X171090311Y-98761478D01*
X171090312Y-98761480D01*
X171116102Y-98818364D01*
X171116403Y-98819033D01*
X171145312Y-98883794D01*
X171146288Y-98884942D01*
X171146911Y-98886317D01*
X171193436Y-98940429D01*
X171217782Y-98969081D01*
X171218698Y-98969872D01*
X171219442Y-98970677D01*
X171236019Y-98989957D01*
X171241872Y-98996764D01*
X171267004Y-99013092D01*
X171280671Y-99023355D01*
X171357764Y-99089887D01*
X172490022Y-100067042D01*
X172528525Y-100126691D01*
X172533696Y-100161475D01*
X172573198Y-105370000D01*
X172599263Y-108806895D01*
X172579779Y-108875166D01*
X172554715Y-108903987D01*
X172086204Y-109300919D01*
X172075907Y-109308771D01*
X171922960Y-109413420D01*
X171919314Y-109415823D01*
X171866164Y-109449525D01*
X171860236Y-109456268D01*
X171840575Y-109478630D01*
X171831127Y-109488280D01*
X171802567Y-109514478D01*
X171797922Y-109522157D01*
X171767684Y-109572146D01*
X171766182Y-109574567D01*
X171740366Y-109615136D01*
X171739172Y-109617012D01*
X171733369Y-109625159D01*
X171727685Y-109630533D01*
X171696464Y-109683956D01*
X171693998Y-109687998D01*
X171681395Y-109707803D01*
X171679544Y-109711900D01*
X171677418Y-109715832D01*
X171677415Y-109715830D01*
X171674209Y-109722037D01*
X171658723Y-109748535D01*
X171658720Y-109748542D01*
X171654192Y-109756290D01*
X171652020Y-109765000D01*
X171650436Y-109771354D01*
X171642998Y-109792760D01*
X171636597Y-109806922D01*
X171633615Y-109828086D01*
X171631060Y-109846218D01*
X171628547Y-109859127D01*
X171628293Y-109860146D01*
X171627112Y-109864883D01*
X171626674Y-109869739D01*
X171626674Y-109869740D01*
X171625054Y-109887711D01*
X171624332Y-109893962D01*
X171616273Y-109951155D01*
X171617566Y-109960042D01*
X171617577Y-109964684D01*
X171617068Y-109976284D01*
X171520696Y-111045132D01*
X171514022Y-111075752D01*
X171433292Y-111304487D01*
X171431768Y-111308427D01*
X171430122Y-111311617D01*
X171428584Y-111316231D01*
X171419360Y-111343902D01*
X171418643Y-111345990D01*
X171409826Y-111370971D01*
X171409823Y-111370980D01*
X171408337Y-111375192D01*
X171407637Y-111378699D01*
X171406364Y-111382888D01*
X171362853Y-111513422D01*
X171342110Y-111551785D01*
X171315346Y-111585593D01*
X171269355Y-111621789D01*
X171203911Y-111651993D01*
X171180552Y-111660102D01*
X171179572Y-111660338D01*
X171170386Y-111662545D01*
X171162598Y-111667007D01*
X171130999Y-111685111D01*
X171121160Y-111690188D01*
X171113757Y-111693604D01*
X171109996Y-111696039D01*
X171109995Y-111696040D01*
X171098072Y-111703761D01*
X171092224Y-111707325D01*
X171073276Y-111718181D01*
X171069478Y-111721220D01*
X171069470Y-111721225D01*
X171067469Y-111722826D01*
X171057249Y-111730196D01*
X171022455Y-111752726D01*
X171016593Y-111759524D01*
X171016591Y-111759525D01*
X171013060Y-111763619D01*
X170996357Y-111779716D01*
X170948794Y-111817767D01*
X170947510Y-111818659D01*
X170946010Y-111819289D01*
X170942491Y-111822146D01*
X170942478Y-111822155D01*
X170886838Y-111867327D01*
X170886213Y-111867832D01*
X170863831Y-111885738D01*
X170862932Y-111886695D01*
X170862182Y-111887345D01*
X170839898Y-111905436D01*
X170839893Y-111905441D01*
X170832928Y-111911096D01*
X170827827Y-111918483D01*
X170818537Y-111931935D01*
X170806721Y-111946574D01*
X170804537Y-111948901D01*
X170789384Y-111965042D01*
X170773549Y-111996270D01*
X170771472Y-112000088D01*
X170769330Y-112003189D01*
X170755641Y-112031532D01*
X170754601Y-112033633D01*
X170732240Y-112077730D01*
X170723507Y-112094951D01*
X170722742Y-112099043D01*
X170721096Y-112103064D01*
X168084408Y-117562677D01*
X168075327Y-117581481D01*
X168069576Y-117592064D01*
X167961202Y-117770563D01*
X167939236Y-117797503D01*
X167824704Y-117903855D01*
X167778813Y-117931056D01*
X167603477Y-117989502D01*
X167581459Y-117994700D01*
X167322303Y-118031722D01*
X167308648Y-118032919D01*
X165236268Y-118101346D01*
X165231532Y-118101414D01*
X165169581Y-118101120D01*
X165160957Y-118103598D01*
X165160954Y-118103598D01*
X165131481Y-118112066D01*
X165118658Y-118115035D01*
X165079619Y-118121947D01*
X165071572Y-118125931D01*
X165071573Y-118125931D01*
X165065664Y-118128856D01*
X165044548Y-118137040D01*
X165038216Y-118138859D01*
X165038210Y-118138862D01*
X165029587Y-118141339D01*
X165022005Y-118146137D01*
X165021999Y-118146140D01*
X164996092Y-118162536D01*
X164984623Y-118168982D01*
X164949086Y-118186578D01*
X164937627Y-118197130D01*
X164919661Y-118210908D01*
X164906507Y-118219233D01*
X164900572Y-118225972D01*
X164900568Y-118225975D01*
X164880307Y-118248979D01*
X164871106Y-118258387D01*
X164841939Y-118285246D01*
X164837309Y-118292934D01*
X164837308Y-118292935D01*
X164807723Y-118342058D01*
X164806029Y-118344792D01*
X161541931Y-123464167D01*
X161539274Y-123468078D01*
X161536763Y-123471041D01*
X161519259Y-123499684D01*
X161517989Y-123501718D01*
X161501608Y-123527410D01*
X161500007Y-123530944D01*
X161497576Y-123535165D01*
X161470541Y-123579404D01*
X161438032Y-123614944D01*
X161330932Y-123694276D01*
X161303764Y-123709595D01*
X161250917Y-123731276D01*
X161058971Y-123810023D01*
X161029393Y-123818124D01*
X160728123Y-123862212D01*
X160715463Y-123863415D01*
X158542853Y-123959549D01*
X158521053Y-123958622D01*
X158516198Y-123957991D01*
X158512195Y-123957471D01*
X158512193Y-123957471D01*
X158503296Y-123956315D01*
X158465840Y-123962179D01*
X158459962Y-123962769D01*
X158459977Y-123962897D01*
X158455519Y-123963413D01*
X158451045Y-123963611D01*
X158425422Y-123968445D01*
X158421555Y-123969112D01*
X158359391Y-123978845D01*
X158352092Y-123982279D01*
X158344158Y-123983776D01*
X158288004Y-124012367D01*
X158284593Y-124014038D01*
X158227594Y-124040857D01*
X158221551Y-124046203D01*
X158214357Y-124049866D01*
X158207823Y-124056020D01*
X158168533Y-124093024D01*
X158165632Y-124095672D01*
X158118499Y-124137368D01*
X158114199Y-124144196D01*
X158108323Y-124149730D01*
X158103779Y-124157470D01*
X158103778Y-124157471D01*
X158076432Y-124204048D01*
X158074394Y-124207399D01*
X158040877Y-124260620D01*
X158038667Y-124268375D01*
X158034578Y-124275341D01*
X158032389Y-124284044D01*
X158032389Y-124284045D01*
X158019225Y-124336391D01*
X158018208Y-124340185D01*
X158011546Y-124363567D01*
X158011544Y-124363575D01*
X158010211Y-124368255D01*
X158009613Y-124373088D01*
X158008645Y-124377857D01*
X158008445Y-124377816D01*
X158007345Y-124383631D01*
X157999054Y-124416600D01*
X157999396Y-124425573D01*
X157999396Y-124425575D01*
X157999886Y-124438406D01*
X157999025Y-124458679D01*
X157909370Y-125183391D01*
X157901621Y-125246027D01*
X157884970Y-125294793D01*
X157829052Y-125389153D01*
X157812005Y-125411700D01*
X157775133Y-125450512D01*
X157726355Y-125482319D01*
X157495332Y-125565251D01*
X157488471Y-125567494D01*
X157152421Y-125666781D01*
X157117335Y-125671944D01*
X155212146Y-125681192D01*
X155188081Y-125678867D01*
X155187178Y-125678817D01*
X155178372Y-125677055D01*
X155169428Y-125677835D01*
X155169427Y-125677835D01*
X155144956Y-125679970D01*
X155131317Y-125681159D01*
X155120980Y-125681635D01*
X155120243Y-125681638D01*
X155115500Y-125681661D01*
X155115495Y-125681661D01*
X155111019Y-125681683D01*
X155106586Y-125682340D01*
X155106583Y-125682340D01*
X155094311Y-125684158D01*
X155086795Y-125685041D01*
X155061130Y-125687280D01*
X155033265Y-125689710D01*
X155024902Y-125692968D01*
X155018538Y-125694453D01*
X155012295Y-125696311D01*
X155003421Y-125697626D01*
X154995274Y-125701378D01*
X154995271Y-125701379D01*
X154954599Y-125720111D01*
X154947627Y-125723071D01*
X154897543Y-125742582D01*
X154890425Y-125748061D01*
X154884755Y-125751260D01*
X154879279Y-125754799D01*
X154871120Y-125758557D01*
X154864348Y-125764450D01*
X154864346Y-125764451D01*
X154830563Y-125793848D01*
X154824710Y-125798639D01*
X154807308Y-125812033D01*
X154789228Y-125825948D01*
X154789226Y-125825950D01*
X154782115Y-125831423D01*
X154776824Y-125838674D01*
X154772260Y-125843357D01*
X154768009Y-125848278D01*
X154761238Y-125854170D01*
X154737021Y-125891932D01*
X154732223Y-125899414D01*
X154727947Y-125905660D01*
X154719013Y-125917904D01*
X154719008Y-125917911D01*
X154716147Y-125921833D01*
X154711918Y-125930039D01*
X154705983Y-125940331D01*
X154682607Y-125976781D01*
X154680077Y-125985393D01*
X154680076Y-125985395D01*
X154679071Y-125988815D01*
X154670181Y-126011020D01*
X154539798Y-126264003D01*
X154112422Y-127093241D01*
X154076390Y-127163153D01*
X154051650Y-127196324D01*
X153892743Y-127348875D01*
X153886667Y-127354339D01*
X153844250Y-127390059D01*
X153813835Y-127415672D01*
X153768470Y-127440101D01*
X153648036Y-127475785D01*
X153639026Y-127478095D01*
X153498596Y-127508624D01*
X153471830Y-127511500D01*
X148221030Y-127511500D01*
X148204803Y-127510451D01*
X147937861Y-127475783D01*
X147814023Y-127459700D01*
X147749045Y-127431091D01*
X147717038Y-127390059D01*
X147698301Y-127351705D01*
X147258056Y-126450580D01*
X147255585Y-126444683D01*
X147254475Y-126439117D01*
X147250319Y-126431161D01*
X147250318Y-126431157D01*
X147224024Y-126380817D01*
X147222496Y-126377793D01*
X147212834Y-126358016D01*
X147212833Y-126358014D01*
X147210862Y-126353980D01*
X147208338Y-126350264D01*
X147206992Y-126347944D01*
X147204303Y-126343061D01*
X147191198Y-126317971D01*
X147187040Y-126310010D01*
X147173846Y-126296289D01*
X147160448Y-126279764D01*
X147149742Y-126264003D01*
X147139006Y-126255150D01*
X147121813Y-126240970D01*
X147111157Y-126231097D01*
X147092304Y-126211491D01*
X147092302Y-126211489D01*
X147086080Y-126205019D01*
X147069566Y-126195553D01*
X147052062Y-126183448D01*
X147044293Y-126177041D01*
X147037368Y-126171330D01*
X147004097Y-126157061D01*
X146991110Y-126150581D01*
X146967503Y-126137049D01*
X146967501Y-126137048D01*
X146959711Y-126132583D01*
X146950983Y-126130484D01*
X146950980Y-126130483D01*
X146941198Y-126128131D01*
X146920995Y-126121423D01*
X146903502Y-126113921D01*
X146876400Y-126110635D01*
X146867581Y-126109566D01*
X146860447Y-126108281D01*
X146860440Y-126108324D01*
X146855629Y-126107554D01*
X146850894Y-126106415D01*
X146824820Y-126104284D01*
X146819924Y-126103788D01*
X146758902Y-126096390D01*
X146750941Y-126097707D01*
X146740465Y-126097392D01*
X144343369Y-125901519D01*
X144304424Y-125891932D01*
X144150696Y-125826715D01*
X144120630Y-125808657D01*
X144011090Y-125719981D01*
X143999399Y-125709228D01*
X143823827Y-125526023D01*
X143820121Y-125521933D01*
X143817575Y-125518448D01*
X143794374Y-125495247D01*
X143792499Y-125493333D01*
X143777062Y-125477225D01*
X143743790Y-125411020D01*
X143727114Y-125312245D01*
X143643391Y-124816347D01*
X143641974Y-124804623D01*
X143641726Y-124801252D01*
X143642343Y-124792297D01*
X143640422Y-124783528D01*
X143629873Y-124735383D01*
X143628712Y-124729394D01*
X143626073Y-124713764D01*
X143626070Y-124713753D01*
X143625326Y-124709344D01*
X143623964Y-124705083D01*
X143623960Y-124705068D01*
X143623442Y-124703448D01*
X143620381Y-124692058D01*
X143613090Y-124658789D01*
X143613089Y-124658786D01*
X143611167Y-124650015D01*
X143606864Y-124642141D01*
X143606861Y-124642134D01*
X143605346Y-124639363D01*
X143595899Y-124617317D01*
X143594932Y-124614294D01*
X143594931Y-124614293D01*
X143592196Y-124605739D01*
X143584688Y-124594621D01*
X143568097Y-124570056D01*
X143561950Y-124559964D01*
X143545615Y-124530076D01*
X143541311Y-124522201D01*
X143532729Y-124513606D01*
X143517477Y-124495101D01*
X143515701Y-124492472D01*
X143515699Y-124492470D01*
X143510675Y-124485031D01*
X143503769Y-124479304D01*
X143503767Y-124479302D01*
X143477535Y-124457550D01*
X143468804Y-124449590D01*
X143444732Y-124425483D01*
X143444731Y-124425483D01*
X143438390Y-124419132D01*
X143427739Y-124413291D01*
X143407901Y-124399806D01*
X143405463Y-124397784D01*
X143405462Y-124397783D01*
X143398553Y-124392054D01*
X143379058Y-124383631D01*
X143359032Y-124374978D01*
X143348421Y-124369790D01*
X143318551Y-124353409D01*
X143318547Y-124353407D01*
X143310678Y-124349092D01*
X143301913Y-124347158D01*
X143301910Y-124347157D01*
X143298815Y-124346474D01*
X143275995Y-124339101D01*
X143273087Y-124337845D01*
X143273086Y-124337845D01*
X143264842Y-124334283D01*
X143239545Y-124331147D01*
X143222115Y-124328986D01*
X143210477Y-124326985D01*
X143206140Y-124326028D01*
X143206132Y-124326027D01*
X143201387Y-124324980D01*
X143196534Y-124324675D01*
X143196524Y-124324674D01*
X143181728Y-124323745D01*
X143174121Y-124323036D01*
X143129197Y-124317467D01*
X143129196Y-124317467D01*
X143120291Y-124316363D01*
X143111432Y-124317803D01*
X143102457Y-124317973D01*
X143102447Y-124317433D01*
X143090507Y-124318021D01*
X141691523Y-124230218D01*
X140826717Y-124175942D01*
X140805206Y-124172710D01*
X140639288Y-124132890D01*
X140627310Y-124129378D01*
X140493110Y-124082699D01*
X140468184Y-124070827D01*
X140444265Y-124056020D01*
X140354013Y-124000150D01*
X140340237Y-123990281D01*
X140281620Y-123942008D01*
X140255272Y-123912161D01*
X140140712Y-123731276D01*
X140137587Y-123726069D01*
X140135736Y-123722810D01*
X140133667Y-123718404D01*
X140116669Y-123693214D01*
X140114667Y-123690152D01*
X140102450Y-123670862D01*
X140102449Y-123670861D01*
X140100054Y-123667079D01*
X140097147Y-123663675D01*
X140094482Y-123660063D01*
X140094619Y-123659962D01*
X140091196Y-123655465D01*
X140039868Y-123579401D01*
X137922154Y-120441102D01*
X160163495Y-120441102D01*
X160192613Y-120633637D01*
X160194816Y-120639623D01*
X160194817Y-120639629D01*
X160257648Y-120810398D01*
X160257650Y-120810403D01*
X160259851Y-120816384D01*
X160362462Y-120981878D01*
X160496254Y-121123360D01*
X160655763Y-121235049D01*
X160661626Y-121237586D01*
X160828613Y-121309848D01*
X160828617Y-121309849D01*
X160834472Y-121312383D01*
X160840719Y-121313688D01*
X160840722Y-121313689D01*
X161020345Y-121351214D01*
X161020350Y-121351215D01*
X161025081Y-121352203D01*
X161031473Y-121352538D01*
X161174451Y-121352538D01*
X161243739Y-121345500D01*
X161313166Y-121338448D01*
X161313167Y-121338448D01*
X161319515Y-121337803D01*
X161400631Y-121312383D01*
X161499239Y-121281482D01*
X161499244Y-121281480D01*
X161505329Y-121279573D01*
X161592263Y-121231384D01*
X161670059Y-121188261D01*
X161670062Y-121188259D01*
X161675638Y-121185168D01*
X161680479Y-121181019D01*
X161680483Y-121181016D01*
X161818643Y-121062598D01*
X161823486Y-121058447D01*
X161942834Y-120904585D01*
X161983567Y-120821806D01*
X162025988Y-120735594D01*
X162028806Y-120729867D01*
X162030416Y-120723687D01*
X162076280Y-120547613D01*
X162076280Y-120547610D01*
X162077890Y-120541431D01*
X162088081Y-120346974D01*
X162058963Y-120154439D01*
X162056760Y-120148453D01*
X162056759Y-120148447D01*
X161993928Y-119977678D01*
X161993926Y-119977673D01*
X161991725Y-119971692D01*
X161889114Y-119806198D01*
X161755322Y-119664716D01*
X161595813Y-119553027D01*
X161547801Y-119532250D01*
X161422963Y-119478228D01*
X161422959Y-119478227D01*
X161417104Y-119475693D01*
X161410857Y-119474388D01*
X161410854Y-119474387D01*
X161231231Y-119436862D01*
X161231226Y-119436861D01*
X161226495Y-119435873D01*
X161220103Y-119435538D01*
X161077125Y-119435538D01*
X161007837Y-119442576D01*
X160938410Y-119449628D01*
X160938409Y-119449628D01*
X160932061Y-119450273D01*
X160889183Y-119463710D01*
X160752337Y-119506594D01*
X160752332Y-119506596D01*
X160746247Y-119508503D01*
X160686613Y-119541559D01*
X160581517Y-119599815D01*
X160581514Y-119599817D01*
X160575938Y-119602908D01*
X160571097Y-119607057D01*
X160571093Y-119607060D01*
X160508099Y-119661053D01*
X160428090Y-119729629D01*
X160308742Y-119883491D01*
X160305926Y-119889214D01*
X160305924Y-119889217D01*
X160262396Y-119977678D01*
X160222770Y-120058209D01*
X160221161Y-120064387D01*
X160221160Y-120064389D01*
X160199265Y-120148447D01*
X160173686Y-120246645D01*
X160163495Y-120441102D01*
X137922154Y-120441102D01*
X136796977Y-118773670D01*
X136795190Y-118770945D01*
X136764483Y-118722780D01*
X136764482Y-118722779D01*
X136759656Y-118715209D01*
X136732622Y-118691558D01*
X136722193Y-118681306D01*
X136704100Y-118661325D01*
X136704098Y-118661323D01*
X136698075Y-118654672D01*
X136690429Y-118649979D01*
X136690427Y-118649978D01*
X136681616Y-118644571D01*
X136664558Y-118632013D01*
X136656785Y-118625213D01*
X136650030Y-118619303D01*
X136641891Y-118615528D01*
X136641886Y-118615525D01*
X136617440Y-118604187D01*
X136604550Y-118597273D01*
X136593000Y-118590185D01*
X136573933Y-118578483D01*
X136555301Y-118573407D01*
X136535412Y-118566144D01*
X136526036Y-118561796D01*
X136526034Y-118561795D01*
X136517891Y-118558019D01*
X136482372Y-118552659D01*
X136468054Y-118549639D01*
X136442059Y-118542557D01*
X136442054Y-118542556D01*
X136433397Y-118540198D01*
X136424423Y-118540364D01*
X136424422Y-118540364D01*
X136398410Y-118540846D01*
X136362020Y-118541519D01*
X136360339Y-118541540D01*
X134317232Y-118551132D01*
X134286086Y-118547371D01*
X134093895Y-118499324D01*
X134074357Y-118492698D01*
X133870441Y-118404335D01*
X133852089Y-118394509D01*
X133769416Y-118341014D01*
X133606118Y-118235350D01*
X133587672Y-118220806D01*
X133506212Y-118143225D01*
X133479203Y-118105848D01*
X133354919Y-117843026D01*
X161663495Y-117843026D01*
X161692613Y-118035561D01*
X161694816Y-118041547D01*
X161694817Y-118041553D01*
X161757648Y-118212322D01*
X161757650Y-118212327D01*
X161759851Y-118218308D01*
X161806122Y-118292935D01*
X161836580Y-118342058D01*
X161862462Y-118383802D01*
X161866843Y-118388435D01*
X161866844Y-118388436D01*
X161969331Y-118496814D01*
X161996254Y-118525284D01*
X162001484Y-118528946D01*
X162001485Y-118528947D01*
X162048399Y-118561796D01*
X162155763Y-118636973D01*
X162161626Y-118639510D01*
X162328613Y-118711772D01*
X162328617Y-118711773D01*
X162334472Y-118714307D01*
X162340719Y-118715612D01*
X162340722Y-118715613D01*
X162520345Y-118753138D01*
X162520350Y-118753139D01*
X162525081Y-118754127D01*
X162531473Y-118754462D01*
X162674451Y-118754462D01*
X162743739Y-118747424D01*
X162813166Y-118740372D01*
X162813167Y-118740372D01*
X162819515Y-118739727D01*
X162900631Y-118714307D01*
X162999239Y-118683406D01*
X162999244Y-118683404D01*
X163005329Y-118681497D01*
X163117529Y-118619303D01*
X163170059Y-118590185D01*
X163170062Y-118590183D01*
X163175638Y-118587092D01*
X163180479Y-118582943D01*
X163180483Y-118582940D01*
X163318643Y-118464522D01*
X163323486Y-118460371D01*
X163442834Y-118306509D01*
X163449514Y-118292935D01*
X163525988Y-118137518D01*
X163528806Y-118131791D01*
X163536719Y-118101414D01*
X163576280Y-117949537D01*
X163576280Y-117949534D01*
X163577890Y-117943355D01*
X163585534Y-117797503D01*
X163587747Y-117755279D01*
X163587747Y-117755275D01*
X163588081Y-117748898D01*
X163558963Y-117556363D01*
X163556760Y-117550377D01*
X163556759Y-117550371D01*
X163493928Y-117379602D01*
X163493926Y-117379597D01*
X163491725Y-117373616D01*
X163389114Y-117208122D01*
X163255322Y-117066640D01*
X163095813Y-116954951D01*
X163047801Y-116934174D01*
X162922963Y-116880152D01*
X162922959Y-116880151D01*
X162917104Y-116877617D01*
X162910857Y-116876312D01*
X162910854Y-116876311D01*
X162731231Y-116838786D01*
X162731226Y-116838785D01*
X162726495Y-116837797D01*
X162720103Y-116837462D01*
X162577125Y-116837462D01*
X162507837Y-116844500D01*
X162438410Y-116851552D01*
X162438409Y-116851552D01*
X162432061Y-116852197D01*
X162375727Y-116869851D01*
X162252337Y-116908518D01*
X162252332Y-116908520D01*
X162246247Y-116910427D01*
X162170501Y-116952414D01*
X162081517Y-117001739D01*
X162081514Y-117001741D01*
X162075938Y-117004832D01*
X162071097Y-117008981D01*
X162071093Y-117008984D01*
X162008099Y-117062977D01*
X161928090Y-117131553D01*
X161808742Y-117285415D01*
X161805926Y-117291138D01*
X161805924Y-117291141D01*
X161762396Y-117379602D01*
X161722770Y-117460133D01*
X161721161Y-117466311D01*
X161721160Y-117466313D01*
X161699265Y-117550371D01*
X161673686Y-117648569D01*
X161673352Y-117654948D01*
X161665881Y-117797503D01*
X161663495Y-117843026D01*
X133354919Y-117843026D01*
X133093943Y-117291141D01*
X130759543Y-112354596D01*
X130752951Y-112337555D01*
X130745074Y-112311772D01*
X130724622Y-112280623D01*
X130724354Y-112280182D01*
X130724084Y-112279611D01*
X130704636Y-112250182D01*
X130683648Y-112218216D01*
X130683228Y-112217751D01*
X130682926Y-112217329D01*
X130669064Y-112196353D01*
X130669061Y-112196350D01*
X130664114Y-112188864D01*
X130640550Y-112168922D01*
X130628516Y-112157279D01*
X130483924Y-111997467D01*
X130477659Y-111989979D01*
X130471453Y-111981948D01*
X130471447Y-111981942D01*
X130468476Y-111978097D01*
X130457446Y-111967648D01*
X130450676Y-111960720D01*
X130442574Y-111951765D01*
X130430362Y-111941622D01*
X130424247Y-111936195D01*
X130242083Y-111763619D01*
X130162807Y-111688515D01*
X130132084Y-111642852D01*
X130056589Y-111449398D01*
X130048465Y-111414775D01*
X129972901Y-110566788D01*
X129972405Y-110555156D01*
X129972421Y-110550690D01*
X129973725Y-110541808D01*
X129965729Y-110484535D01*
X129965016Y-110478296D01*
X129963252Y-110458498D01*
X129961741Y-110452076D01*
X129959599Y-110440625D01*
X129958924Y-110435792D01*
X129958250Y-110430964D01*
X129956844Y-110426307D01*
X129956842Y-110426297D01*
X129952681Y-110412514D01*
X129950656Y-110404966D01*
X129940394Y-110361358D01*
X129940391Y-110361350D01*
X129938336Y-110352618D01*
X129933912Y-110344812D01*
X129930636Y-110336450D01*
X129931082Y-110336275D01*
X129926271Y-110325034D01*
X129865456Y-110123585D01*
X129807682Y-109932207D01*
X129805624Y-109920900D01*
X129804990Y-109921035D01*
X129803127Y-109912260D01*
X129802526Y-109903301D01*
X129797960Y-109890848D01*
X129783582Y-109851636D01*
X129781257Y-109844676D01*
X129777542Y-109832370D01*
X129776249Y-109828086D01*
X129774356Y-109824016D01*
X129772326Y-109819651D01*
X129768275Y-109809892D01*
X129764187Y-109798745D01*
X129752381Y-109766548D01*
X129747050Y-109759328D01*
X129747049Y-109759325D01*
X129747035Y-109759306D01*
X129734164Y-109737622D01*
X129734155Y-109737602D01*
X129734153Y-109737599D01*
X129730368Y-109729463D01*
X129699911Y-109694731D01*
X129693295Y-109686515D01*
X129665868Y-109649365D01*
X129658723Y-109643929D01*
X129658705Y-109643915D01*
X129640271Y-109626721D01*
X129640253Y-109626701D01*
X129634333Y-109619950D01*
X129595354Y-109595164D01*
X129586694Y-109589131D01*
X129580668Y-109584547D01*
X129576796Y-109581601D01*
X129572523Y-109579289D01*
X129572516Y-109579285D01*
X129562139Y-109573672D01*
X129554475Y-109569170D01*
X129518997Y-109546609D01*
X129518994Y-109546608D01*
X129511421Y-109541792D01*
X129502801Y-109539296D01*
X129494617Y-109535600D01*
X129494668Y-109535488D01*
X129481846Y-109530234D01*
X129013301Y-109276759D01*
X128984159Y-109255032D01*
X128875663Y-109146536D01*
X128841637Y-109084224D01*
X128838758Y-109057317D01*
X128838909Y-108903987D01*
X128843417Y-104310000D01*
X140280000Y-104310000D01*
X140350000Y-104580000D01*
X140354523Y-104587632D01*
X140354524Y-104587635D01*
X140383824Y-104637078D01*
X140510000Y-104850000D01*
X140760000Y-105060000D01*
X140767011Y-105063399D01*
X140767012Y-105063400D01*
X141028125Y-105190000D01*
X141090000Y-105220000D01*
X141160000Y-105240000D01*
X141293341Y-105278098D01*
X141293346Y-105278099D01*
X141300000Y-105280000D01*
X141306907Y-105280406D01*
X141306911Y-105280407D01*
X141461410Y-105289495D01*
X141461412Y-105289495D01*
X141470000Y-105290000D01*
X141478408Y-105288172D01*
X141478410Y-105288172D01*
X141696676Y-105240723D01*
X141696683Y-105240721D01*
X141700000Y-105240000D01*
X141850000Y-105190000D01*
X142160000Y-105020000D01*
X142298617Y-104891651D01*
X142422943Y-104776535D01*
X142422945Y-104776532D01*
X142430000Y-104770000D01*
X142510000Y-104630000D01*
X142513988Y-104615045D01*
X142548655Y-104485045D01*
X142548656Y-104485041D01*
X142550000Y-104480000D01*
X142553810Y-104440000D01*
X159270000Y-104440000D01*
X159340000Y-104710000D01*
X159344523Y-104717632D01*
X159344524Y-104717635D01*
X159379428Y-104776535D01*
X159500000Y-104980000D01*
X159750000Y-105190000D01*
X159757011Y-105193399D01*
X159757012Y-105193400D01*
X160018125Y-105320000D01*
X160080000Y-105350000D01*
X160150000Y-105370000D01*
X160283341Y-105408098D01*
X160283346Y-105408099D01*
X160290000Y-105410000D01*
X160296907Y-105410406D01*
X160296911Y-105410407D01*
X160451410Y-105419495D01*
X160451412Y-105419495D01*
X160460000Y-105420000D01*
X160468408Y-105418172D01*
X160468410Y-105418172D01*
X160686676Y-105370723D01*
X160686683Y-105370721D01*
X160690000Y-105370000D01*
X160840000Y-105320000D01*
X161150000Y-105150000D01*
X161296080Y-105014741D01*
X161412943Y-104906535D01*
X161412945Y-104906532D01*
X161420000Y-104900000D01*
X161500000Y-104760000D01*
X161502101Y-104752122D01*
X161538655Y-104615045D01*
X161538656Y-104615041D01*
X161540000Y-104610000D01*
X161550038Y-104504601D01*
X161559581Y-104404404D01*
X161559581Y-104404398D01*
X161560000Y-104400000D01*
X161550000Y-104180000D01*
X161547527Y-104172168D01*
X161547526Y-104172164D01*
X161492922Y-103999252D01*
X161492921Y-103999250D01*
X161490000Y-103990000D01*
X161300000Y-103720000D01*
X161124500Y-103590000D01*
X161036517Y-103524827D01*
X161036515Y-103524826D01*
X161030000Y-103520000D01*
X161022470Y-103516988D01*
X160737386Y-103402954D01*
X160737383Y-103402953D01*
X160730000Y-103400000D01*
X160722111Y-103398982D01*
X160428029Y-103361036D01*
X160420000Y-103360000D01*
X160110000Y-103400000D01*
X160104218Y-103401927D01*
X160104215Y-103401928D01*
X159990933Y-103439689D01*
X159989031Y-103440306D01*
X159800000Y-103500000D01*
X159530000Y-103710000D01*
X159524833Y-103717046D01*
X159524832Y-103717047D01*
X159519276Y-103724624D01*
X159420000Y-103860000D01*
X159417273Y-103866083D01*
X159417272Y-103866085D01*
X159334828Y-104050000D01*
X159290000Y-104150000D01*
X159270000Y-104440000D01*
X142553810Y-104440000D01*
X142565252Y-104319857D01*
X142569581Y-104274404D01*
X142569581Y-104274398D01*
X142570000Y-104270000D01*
X142560000Y-104050000D01*
X142557527Y-104042168D01*
X142557526Y-104042164D01*
X142502922Y-103869252D01*
X142502921Y-103869250D01*
X142500000Y-103860000D01*
X142407296Y-103728262D01*
X142315814Y-103598262D01*
X142310000Y-103590000D01*
X142262594Y-103554885D01*
X142046517Y-103394827D01*
X142046515Y-103394826D01*
X142040000Y-103390000D01*
X142032470Y-103386988D01*
X141747386Y-103272954D01*
X141747383Y-103272953D01*
X141740000Y-103270000D01*
X141732111Y-103268982D01*
X141438029Y-103231036D01*
X141430000Y-103230000D01*
X141120000Y-103270000D01*
X141114218Y-103271927D01*
X141114215Y-103271928D01*
X141000933Y-103309689D01*
X140999031Y-103310306D01*
X140810000Y-103370000D01*
X140540000Y-103580000D01*
X140534833Y-103587046D01*
X140534832Y-103587047D01*
X140526608Y-103598262D01*
X140430000Y-103730000D01*
X140427273Y-103736083D01*
X140427272Y-103736085D01*
X140309301Y-103999252D01*
X140300000Y-104020000D01*
X140280000Y-104310000D01*
X128843417Y-104310000D01*
X128848213Y-99422610D01*
X128868282Y-99354509D01*
X128892378Y-99326927D01*
X130074643Y-98317076D01*
X130089504Y-98306157D01*
X130104386Y-98296818D01*
X130104390Y-98296815D01*
X130111991Y-98292045D01*
X130136830Y-98264060D01*
X130137343Y-98263519D01*
X130138027Y-98262935D01*
X130139664Y-98261075D01*
X130139678Y-98261060D01*
X130160920Y-98236921D01*
X130161275Y-98236519D01*
X130202913Y-98189607D01*
X130202917Y-98189601D01*
X130208680Y-98183108D01*
X130209151Y-98182111D01*
X130209885Y-98181277D01*
X130240146Y-98116520D01*
X130240375Y-98116034D01*
X130267190Y-98059285D01*
X130267191Y-98059281D01*
X130270909Y-98051413D01*
X130271082Y-98050318D01*
X130271550Y-98049317D01*
X130282442Y-97978526D01*
X130288401Y-97940869D01*
X130288403Y-97939969D01*
X130288493Y-97939203D01*
X130292337Y-97914222D01*
X130292337Y-97914219D01*
X130293701Y-97905354D01*
X130292522Y-97896462D01*
X130292522Y-97896458D01*
X130289698Y-97875162D01*
X130288605Y-97858290D01*
X130308347Y-89862610D01*
X130310742Y-89838472D01*
X130477000Y-88997946D01*
X130477782Y-88994279D01*
X130651570Y-88235099D01*
X130659533Y-88211415D01*
X130841446Y-87808044D01*
X130851927Y-87789268D01*
X131018999Y-87542176D01*
X131209567Y-87260333D01*
X131356600Y-87042877D01*
X131359496Y-87038772D01*
X131505906Y-86839816D01*
X131918604Y-86279003D01*
X131921637Y-86275050D01*
X132510579Y-85538178D01*
X132513786Y-85534325D01*
X133131608Y-84821540D01*
X133134973Y-84817810D01*
X133780734Y-84130199D01*
X133784245Y-84126607D01*
X134456885Y-83465296D01*
X134460537Y-83461846D01*
X135159008Y-82827867D01*
X135162794Y-82824566D01*
X135885975Y-82218936D01*
X135889890Y-82215788D01*
X135978514Y-82147390D01*
X136636666Y-81639442D01*
X136640655Y-81636489D01*
X137390598Y-81104008D01*
X137409803Y-81090372D01*
X137413956Y-81087546D01*
X138012672Y-80697375D01*
X138204256Y-80572524D01*
X138208487Y-80569885D01*
X139018706Y-80086764D01*
X139023041Y-80084295D01*
X139851860Y-79633858D01*
X139856318Y-79631550D01*
X140702409Y-79214520D01*
X140706924Y-79212405D01*
X141569002Y-78829415D01*
X141573586Y-78827487D01*
X142450261Y-78479156D01*
X142454942Y-78477404D01*
X143344749Y-78164314D01*
X143349520Y-78162742D01*
X144251108Y-77885366D01*
X144255924Y-77883988D01*
X145167876Y-77642762D01*
X145172754Y-77641576D01*
X146093573Y-77436898D01*
X146098463Y-77435913D01*
X147026726Y-77268098D01*
X147031661Y-77267307D01*
X147462655Y-77207018D01*
X147965851Y-77136629D01*
X147970838Y-77136032D01*
X148909515Y-77042692D01*
X148914523Y-77042295D01*
X149001822Y-77037117D01*
X149071007Y-77053051D01*
X149120595Y-77103859D01*
X149134842Y-77173412D01*
X149109225Y-77239626D01*
X149083345Y-77264830D01*
X149057860Y-77283346D01*
X148827767Y-77499418D01*
X148626568Y-77742625D01*
X148457438Y-78009131D01*
X148455754Y-78012710D01*
X148455750Y-78012717D01*
X148324733Y-78291144D01*
X148323044Y-78294734D01*
X148225505Y-78594928D01*
X148166359Y-78904980D01*
X148146540Y-79220000D01*
X148166359Y-79535020D01*
X148225505Y-79845072D01*
X148226732Y-79848848D01*
X148307936Y-80098767D01*
X148323044Y-80145266D01*
X148324731Y-80148852D01*
X148324733Y-80148856D01*
X148455750Y-80427283D01*
X148455754Y-80427290D01*
X148457438Y-80430869D01*
X148626568Y-80697375D01*
X148827767Y-80940582D01*
X149057860Y-81156654D01*
X149313221Y-81342184D01*
X149589821Y-81494247D01*
X149593490Y-81495700D01*
X149593495Y-81495702D01*
X149669532Y-81525807D01*
X149883298Y-81610443D01*
X150189025Y-81688940D01*
X150502179Y-81728500D01*
X150817821Y-81728500D01*
X151130975Y-81688940D01*
X151436702Y-81610443D01*
X151650468Y-81525807D01*
X151726505Y-81495702D01*
X151726510Y-81495700D01*
X151730179Y-81494247D01*
X152006779Y-81342184D01*
X152262140Y-81156654D01*
X152492233Y-80940582D01*
X152693432Y-80697375D01*
X152862562Y-80430869D01*
X152864246Y-80427290D01*
X152864250Y-80427283D01*
X152995267Y-80148856D01*
X152995269Y-80148852D01*
X152996956Y-80145266D01*
X153012065Y-80098767D01*
X153093268Y-79848848D01*
X153094495Y-79845072D01*
X153153641Y-79535020D01*
X153173460Y-79220000D01*
X153153641Y-78904980D01*
X153094495Y-78594928D01*
X152996956Y-78294734D01*
X152995267Y-78291144D01*
X152864250Y-78012717D01*
X152864246Y-78012710D01*
X152862562Y-78009131D01*
X152693432Y-77742625D01*
X152492233Y-77499418D01*
X152262140Y-77283346D01*
X152247014Y-77272356D01*
X152213079Y-77247701D01*
X152169725Y-77191479D01*
X152163650Y-77120742D01*
X152196782Y-77057951D01*
X152258602Y-77023039D01*
X152294741Y-77019995D01*
X152698941Y-77044426D01*
G37*
%TD.AperFunction*%
M02*
