%TF.GenerationSoftware,KiCad,Pcbnew,(6.0.7)*%
%TF.CreationDate,2022-11-23T15:41:05-06:00*%
%TF.ProjectId,LLK,4c4c4b2e-6b69-4636-9164-5f7063625858,rev?*%
%TF.SameCoordinates,Original*%
%TF.FileFunction,Soldermask,Bot*%
%TF.FilePolarity,Negative*%
%FSLAX46Y46*%
G04 Gerber Fmt 4.6, Leading zero omitted, Abs format (unit mm)*
G04 Created by KiCad (PCBNEW (6.0.7)) date 2022-11-23 15:41:05*
%MOMM*%
%LPD*%
G01*
G04 APERTURE LIST*
G04 Aperture macros list*
%AMRotRect*
0 Rectangle, with rotation*
0 The origin of the aperture is its center*
0 $1 length*
0 $2 width*
0 $3 Rotation angle, in degrees counterclockwise*
0 Add horizontal line*
21,1,$1,$2,0,0,$3*%
G04 Aperture macros list end*
%ADD10C,1.152496*%
%ADD11C,0.100000*%
%ADD12C,4.000000*%
%ADD13RotRect,1.955800X2.463800X135.000000*%
%ADD14RotRect,1.930400X2.438400X135.000000*%
%ADD15RotRect,1.955800X2.463800X45.000000*%
%ADD16RotRect,1.930400X2.438400X45.000000*%
%ADD17C,1.000000*%
%ADD18R,3.857800X5.472400*%
%ADD19R,3.908600X5.523200*%
%ADD20C,16.459512*%
%ADD21RotRect,1.000000X0.800000X240.000000*%
%ADD22C,0.900000*%
%ADD23RotRect,0.700000X1.500000X240.000000*%
G04 APERTURE END LIST*
%TO.C,D1*%
D10*
X142016248Y-104320000D02*
G75*
G03*
X142016248Y-104320000I-576248J0D01*
G01*
G36*
X141368158Y-102523949D02*
G01*
X139643949Y-104248158D01*
X138278950Y-102883159D01*
X140003159Y-101158950D01*
X141368158Y-102523949D01*
G37*
D11*
X141368158Y-102523949D02*
X139643949Y-104248158D01*
X138278950Y-102883159D01*
X140003159Y-101158950D01*
X141368158Y-102523949D01*
G36*
X144654932Y-105774801D02*
G01*
X142894801Y-107534932D01*
X141493882Y-106134012D01*
X143254012Y-104373882D01*
X144654932Y-105774801D01*
G37*
X144654932Y-105774801D02*
X142894801Y-107534932D01*
X141493882Y-106134012D01*
X143254012Y-104373882D01*
X144654932Y-105774801D01*
%TO.C,D2*%
D10*
X161133603Y-104549758D02*
G75*
G03*
X161133603Y-104549758I-576248J0D01*
G01*
G36*
X160503473Y-106363770D02*
G01*
X159102554Y-107764690D01*
X157342423Y-106004559D01*
X158743343Y-104603640D01*
X160503473Y-106363770D01*
G37*
D11*
X160503473Y-106363770D02*
X159102554Y-107764690D01*
X157342423Y-106004559D01*
X158743343Y-104603640D01*
X160503473Y-106363770D01*
G36*
X163718405Y-103112917D02*
G01*
X162353406Y-104477916D01*
X160629197Y-102753707D01*
X161994196Y-101388708D01*
X163718405Y-103112917D01*
G37*
X163718405Y-103112917D02*
X162353406Y-104477916D01*
X160629197Y-102753707D01*
X161994196Y-101388708D01*
X163718405Y-103112917D01*
%TD*%
D12*
%TO.C,REF\u002A\u002A*%
X150660000Y-79220000D03*
%TD*%
D13*
%TO.C,D1*%
X143056446Y-105936446D03*
D14*
X139823554Y-102703554D03*
%TD*%
D15*
%TO.C,D2*%
X158940909Y-106166204D03*
D16*
X162173801Y-102933312D03*
%TD*%
D17*
%TO.C,REF\u002A\u002A*%
X172110000Y-100300000D03*
%TD*%
%TO.C,REF\u002A\u002A*%
X147740000Y-77580000D03*
%TD*%
D18*
%TO.C,BT1*%
X138535000Y-92060000D03*
D19*
X162345000Y-92060000D03*
D20*
X150440000Y-92060000D03*
%TD*%
D21*
%TO.C,ON/OFF*%
X162739500Y-115379007D03*
D22*
X161125788Y-120394038D03*
D21*
X159089500Y-121700993D03*
D22*
X162625788Y-117795962D03*
D21*
X164653416Y-116484007D03*
X161003416Y-122805993D03*
D23*
X161476584Y-116266443D03*
X159976584Y-118864519D03*
X159226584Y-120163557D03*
%TD*%
D17*
%TO.C,REF\u002A\u002A*%
X148170000Y-126990000D03*
%TD*%
M02*
